<?xml version="1.0" encoding="utf-8"?>
<!-- Generator: Adobe Illustrator 16.0.0, SVG Export Plug-In . SVG Version: 6.00 Build 0)  -->
<!DOCTYPE svg PUBLIC "-//W3C//DTD SVG 1.1//EN" "http://www.w3.org/Graphics/SVG/1.1/DTD/svg11.dtd">
<svg version="1.1" id="Layer_1" xmlns="http://www.w3.org/2000/svg" xmlns:xlink="http://www.w3.org/1999/xlink" x="0px" y="0px"
	 width="53px" height="52.667px" viewBox="0 0 53 52.667" enable-background="new 0 0 53 52.667" xml:space="preserve">
<g>
	<g>
		<path d="M38.549,19.467v14.571c0,0.59-0.21,1.094-0.63,1.514c-0.419,0.419-0.924,0.629-1.513,0.629H16.691
			c-0.589,0-1.094-0.21-1.513-0.629c-0.42-0.42-0.63-0.924-0.63-1.514V19.467c0-0.589,0.21-1.094,0.63-1.514
			c0.419-0.419,0.924-0.629,1.513-0.629h19.715c0.589,0,1.094,0.21,1.513,0.629C38.339,18.374,38.549,18.878,38.549,19.467z
			 M36.835,19.962c0-0.018,0-0.066,0-0.146c0-0.081,0-0.141,0-0.182c0-0.04-0.003-0.098-0.007-0.174
			c-0.005-0.075-0.019-0.132-0.04-0.167c-0.022-0.036-0.047-0.076-0.074-0.121c-0.026-0.044-0.066-0.078-0.12-0.101
			c-0.054-0.021-0.116-0.033-0.188-0.033H16.691c-0.116,0-0.217,0.043-0.301,0.127c-0.085,0.085-0.128,0.186-0.128,0.302
			c0,1.5,0.656,2.768,1.969,3.804c1.724,1.357,3.514,2.772,5.371,4.245c0.054,0.045,0.21,0.177,0.469,0.396s0.464,0.386,0.616,0.502
			c0.151,0.116,0.35,0.257,0.596,0.422c0.245,0.165,0.471,0.288,0.677,0.368c0.205,0.081,0.396,0.121,0.575,0.121h0.014h0.014
			c0.178,0,0.37-0.04,0.575-0.121c0.206-0.08,0.431-0.203,0.677-0.368c0.245-0.165,0.444-0.306,0.596-0.422
			c0.152-0.116,0.357-0.283,0.616-0.502s0.415-0.351,0.469-0.396c1.857-1.473,3.647-2.888,5.371-4.245
			c0.481-0.384,0.931-0.899,1.346-1.547S36.835,20.49,36.835,19.962z M36.835,34.039V23.753c-0.286,0.321-0.595,0.615-0.925,0.884
			c-2.393,1.839-4.295,3.348-5.705,4.526c-0.455,0.384-0.826,0.684-1.111,0.897c-0.286,0.214-0.672,0.431-1.159,0.649
			c-0.486,0.219-0.943,0.328-1.372,0.328h-0.014h-0.014c-0.429,0-0.886-0.109-1.372-0.328c-0.487-0.219-0.873-0.436-1.159-0.649
			c-0.285-0.214-0.656-0.514-1.111-0.897c-1.411-1.179-3.312-2.688-5.705-4.526c-0.331-0.269-0.639-0.562-0.925-0.884v10.285
			c0,0.116,0.043,0.217,0.128,0.302c0.084,0.085,0.185,0.127,0.301,0.127h19.715c0.115,0,0.216-0.042,0.301-0.127
			S36.835,34.155,36.835,34.039z"/>
	</g>
	<circle fill="none" stroke="#000000" stroke-width="2" stroke-miterlimit="10" cx="26.099" cy="25.896" r="23"/>
</g>
</svg>
