<?xml version="1.0" encoding="utf-8"?>
<!-- Generator: Adobe Illustrator 16.0.0, SVG Export Plug-In . SVG Version: 6.00 Build 0)  -->
<!DOCTYPE svg PUBLIC "-//W3C//DTD SVG 1.1//EN" "http://www.w3.org/Graphics/SVG/1.1/DTD/svg11.dtd">
<svg version="1.1" id="Layer_1" xmlns="http://www.w3.org/2000/svg" xmlns:xlink="http://www.w3.org/1999/xlink" x="0px" y="0px"
	 width="53.711px" height="52.5px" viewBox="0 0 53.711 52.5" enable-background="new 0 0 53.711 52.5" xml:space="preserve">
<g>
	<path fill="#F26475" d="M53.711-80.098l-9.954,9.954v-9.229H14.973v-1.428h28.784v-9.229L53.711-80.098z"/>
</g>
<text transform="matrix(1 0 0 1 14.9727 -35.6675)" fill="#F26475" font-family="'ZapfDingbatsITC'" font-size="45">➝</text>
<circle fill="#F26475" cx="160.271" cy="20.902" r="43.498"/>
<g>
	<path fill="#FFFFFF" d="M159.705,2.035l9.953,9.954h-9.229v28.784h-1.428V11.989h-9.229L159.705,2.035z"/>
</g>
<path fill="#FFFFFF" d="M-23.804,20.258c-0.549,0.803-1.212,1.486-1.989,2.051c0.008,0.114,0.013,0.286,0.013,0.516
	c0,1.063-0.156,2.126-0.467,3.186c-0.312,1.061-0.784,2.077-1.418,3.051c-0.635,0.975-1.39,1.836-2.265,2.584
	c-0.876,0.749-1.932,1.347-3.168,1.793c-1.235,0.446-2.558,0.669-3.965,0.669c-2.219,0-4.248-0.594-6.09-1.78
	c0.286,0.033,0.605,0.049,0.958,0.049c1.841,0,3.482-0.564,4.923-1.693c-0.859-0.017-1.629-0.28-2.309-0.792
	c-0.679-0.512-1.146-1.164-1.399-1.958c0.271,0.041,0.52,0.061,0.749,0.061c0.352,0,0.7-0.045,1.044-0.135
	c-0.917-0.188-1.676-0.645-2.277-1.369c-0.602-0.724-0.902-1.564-0.902-2.522v-0.049c0.557,0.311,1.153,0.479,1.792,0.503
	c-0.54-0.36-0.97-0.83-1.289-1.412c-0.319-0.581-0.479-1.211-0.479-1.891c0-0.72,0.18-1.387,0.54-2.001
	c0.99,1.22,2.195,2.196,3.615,2.929s2.94,1.14,4.562,1.221c-0.066-0.311-0.099-0.613-0.099-0.908c0-1.097,0.387-2.031,1.16-2.805
	s1.708-1.16,2.806-1.16c1.146,0,2.111,0.417,2.896,1.252c0.893-0.172,1.731-0.491,2.518-0.958c-0.304,0.941-0.885,1.67-1.744,2.186
	C-25.326,20.791-24.565,20.586-23.804,20.258z"/>
<path fill="#FFFFFF" d="M97.38,19.338c0.009,0.597-0.198,1.097-0.619,1.497c-0.422,0.401-0.977,0.602-1.664,0.602h-0.024
	c-0.671,0-1.211-0.2-1.62-0.602c-0.41-0.4-0.614-0.9-0.614-1.497c0-0.606,0.211-1.107,0.632-1.504
	c0.422-0.397,0.973-0.596,1.651-0.596c0.68,0,1.224,0.198,1.633,0.596C97.163,18.231,97.372,18.732,97.38,19.338z M97.122,23.094
	v12.167h-4.051V23.094H97.122z M111.695,28.288v6.974h-4.039v-6.507c0-0.859-0.166-1.532-0.497-2.02
	c-0.332-0.487-0.85-0.73-1.554-0.73c-0.516,0-0.947,0.141-1.295,0.424c-0.348,0.282-0.607,0.632-0.779,1.049
	c-0.091,0.246-0.136,0.577-0.136,0.995v6.789h-4.039c0.017-3.266,0.025-5.913,0.025-7.943c0-2.029-0.005-3.241-0.013-3.634
	l-0.013-0.59h4.039v1.769h-0.024c0.164-0.262,0.332-0.491,0.504-0.688s0.402-0.409,0.693-0.639c0.29-0.229,0.646-0.407,1.068-0.534
	c0.421-0.127,0.89-0.19,1.405-0.19c1.399,0,2.525,0.465,3.376,1.394C111.27,25.134,111.695,26.496,111.695,28.288z"/>
<path fill="#FFFFFF" d="M36.284,77.24v14.021c0,0.662-0.237,1.231-0.712,1.706c-0.476,0.475-1.044,0.712-1.707,0.712h-14.02
	c-0.663,0-1.232-0.237-1.707-0.712s-0.712-1.044-0.712-1.706V77.24c0-0.663,0.237-1.231,0.712-1.706s1.044-0.713,1.707-0.713h14.02
	c0.663,0,1.231,0.238,1.707,0.713C36.047,76.009,36.284,76.577,36.284,77.24z M34.147,90.757v-7.955H32.49
	c0.164,0.516,0.246,1.052,0.246,1.608c0,1.031-0.263,1.982-0.786,2.854c-0.523,0.871-1.236,1.561-2.136,2.068
	c-0.9,0.508-1.883,0.761-2.947,0.761c-1.612,0-2.991-0.554-4.137-1.663c-1.146-1.109-1.719-2.449-1.719-4.021
	c0-0.557,0.082-1.093,0.245-1.608h-1.73v7.955c0,0.213,0.071,0.391,0.215,0.534c0.143,0.144,0.321,0.215,0.534,0.215h13.123
	c0.205,0,0.381-0.071,0.528-0.215S34.147,90.97,34.147,90.757z M29.55,86.81c0.741-0.716,1.111-1.581,1.111-2.596
	c0-1.016-0.37-1.881-1.111-2.597c-0.74-0.717-1.635-1.074-2.683-1.074c-1.039,0-1.929,0.357-2.67,1.074
	c-0.74,0.716-1.111,1.581-1.111,2.597c0,1.015,0.371,1.88,1.111,2.596c0.741,0.717,1.631,1.074,2.67,1.074
	C27.915,87.884,28.81,87.526,29.55,86.81z M34.147,79.794v-2.025c0-0.229-0.082-0.428-0.245-0.596
	c-0.164-0.168-0.364-0.252-0.602-0.252h-2.137c-0.237,0-0.438,0.084-0.602,0.252c-0.163,0.168-0.245,0.366-0.245,0.596v2.025
	c0,0.237,0.082,0.438,0.245,0.602c0.164,0.164,0.364,0.245,0.602,0.245h2.137c0.237,0,0.438-0.081,0.602-0.245
	C34.065,80.231,34.147,80.031,34.147,79.794z"/>
<path fill="#FFFFFF" d="M85.945,15.994v3.241h-1.928c-0.704,0-1.179,0.147-1.424,0.442c-0.245,0.294-0.368,0.736-0.368,1.325v2.32
	h3.597l-0.479,3.634h-3.118v9.318h-3.757v-9.318h-3.131v-3.634h3.131v-2.676c0-1.522,0.426-2.703,1.276-3.542
	c0.852-0.839,1.985-1.259,3.401-1.259C84.35,15.847,85.282,15.896,85.945,15.994z"/>
<circle fill="none" stroke="#F26475" stroke-width="1.5" stroke-miterlimit="10" cx="26.855" cy="84.167" r="23"/>
<circle fill="none" stroke="#F26475" stroke-miterlimit="10" cx="69.838" cy="-138.833" r="23"/>
<circle fill="none" stroke="#F26475" stroke-miterlimit="10" cx="155.838" cy="-137.833" r="23"/>
<circle fill="none" stroke="#F26475" stroke-miterlimit="10" cx="241.838" cy="-139.833" r="23"/>
<g>
	<path fill="#646464" d="M-32.598-39.006v3.241h-1.928c-0.704,0-1.179,0.147-1.424,0.442c-0.245,0.294-0.368,0.736-0.368,1.325v2.32
		h3.597l-0.479,3.634h-3.118v9.318h-3.757v-9.318h-3.131v-3.634h3.131v-2.676c0-1.522,0.426-2.703,1.276-3.542
		c0.852-0.839,1.985-1.259,3.401-1.259C-34.193-39.153-33.261-39.104-32.598-39.006z"/>
	<circle fill="none" stroke="#F26475" stroke-miterlimit="10" cx="-37.592" cy="-29.333" r="23"/>
</g>
<g>
	<path fill="#646464" d="M138.589,2.855c-0.549,0.803-1.212,1.486-1.989,2.051c0.008,0.114,0.013,0.286,0.013,0.516
		c0,1.063-0.156,2.126-0.467,3.186c-0.312,1.061-0.784,2.077-1.418,3.051c-0.635,0.975-1.39,1.836-2.265,2.584
		c-0.876,0.749-1.932,1.347-3.168,1.793c-1.235,0.446-2.558,0.669-3.965,0.669c-2.219,0-4.248-0.594-6.09-1.78
		c0.286,0.033,0.605,0.049,0.958,0.049c1.841,0,3.482-0.564,4.923-1.693c-0.859-0.017-1.629-0.28-2.309-0.792
		c-0.679-0.512-1.146-1.164-1.399-1.958c0.271,0.041,0.52,0.061,0.749,0.061c0.352,0,0.7-0.045,1.044-0.135
		c-0.917-0.188-1.676-0.645-2.277-1.369c-0.602-0.724-0.902-1.564-0.902-2.522V6.515c0.557,0.311,1.153,0.479,1.792,0.503
		c-0.54-0.36-0.97-0.83-1.289-1.412c-0.319-0.581-0.479-1.211-0.479-1.891c0-0.72,0.18-1.387,0.54-2.001
		c0.99,1.22,2.195,2.196,3.615,2.929s2.94,1.14,4.562,1.221c-0.066-0.311-0.099-0.613-0.099-0.908c0-1.097,0.387-2.031,1.16-2.805
		s1.708-1.16,2.806-1.16c1.146,0,2.111,0.417,2.896,1.252c0.893-0.172,1.731-0.491,2.518-0.958c-0.304,0.941-0.885,1.67-1.744,2.186
		C137.066,3.388,137.827,3.184,138.589,2.855z"/>
	<circle fill="none" stroke="#F26475" stroke-miterlimit="10" cx="128.855" cy="7.667" r="23"/>
</g>
<g>
	<path fill="#646464" d="M98.589,73.438c-0.549,0.803-1.212,1.486-1.989,2.051c0.008,0.114,0.013,0.286,0.013,0.516
		c0,1.063-0.156,2.126-0.467,3.186c-0.312,1.061-0.784,2.077-1.418,3.051c-0.635,0.975-1.39,1.836-2.265,2.584
		c-0.876,0.749-1.932,1.347-3.168,1.793c-1.235,0.446-2.558,0.669-3.965,0.669c-2.219,0-4.248-0.594-6.09-1.78
		c0.286,0.033,0.605,0.049,0.958,0.049c1.841,0,3.482-0.564,4.923-1.693c-0.859-0.017-1.629-0.28-2.309-0.792
		c-0.679-0.512-1.146-1.164-1.399-1.958c0.271,0.041,0.52,0.061,0.749,0.061c0.352,0,0.7-0.045,1.044-0.135
		c-0.917-0.188-1.676-0.645-2.277-1.369c-0.602-0.724-0.902-1.564-0.902-2.522v-0.049c0.557,0.311,1.153,0.479,1.792,0.503
		c-0.54-0.36-0.97-0.83-1.289-1.412c-0.319-0.581-0.479-1.211-0.479-1.891c0-0.72,0.18-1.387,0.54-2.001
		c0.99,1.22,2.195,2.196,3.615,2.929s2.94,1.14,4.562,1.221c-0.066-0.311-0.099-0.613-0.099-0.908c0-1.097,0.387-2.031,1.16-2.805
		s1.708-1.16,2.806-1.16c1.146,0,2.111,0.417,2.896,1.252c0.893-0.172,1.731-0.491,2.518-0.958c-0.304,0.941-0.885,1.67-1.744,2.186
		C97.066,73.971,97.827,73.767,98.589,73.438z"/>
	<circle fill="none" stroke="#F26475" stroke-miterlimit="10" cx="88.855" cy="78.667" r="23"/>
</g>
<path fill="#646464" d="M-27.716,63.24v14.021c0,0.662-0.237,1.231-0.712,1.706c-0.476,0.475-1.044,0.712-1.707,0.712h-14.02
	c-0.663,0-1.232-0.237-1.707-0.712s-0.712-1.044-0.712-1.706V63.24c0-0.663,0.237-1.231,0.712-1.706s1.044-0.713,1.707-0.713h14.02
	c0.663,0,1.231,0.238,1.707,0.713C-27.953,62.009-27.716,62.577-27.716,63.24z M-29.853,76.757v-7.955h-1.657
	c0.164,0.516,0.246,1.052,0.246,1.608c0,1.031-0.263,1.982-0.786,2.854c-0.523,0.871-1.236,1.561-2.136,2.068
	c-0.9,0.508-1.883,0.761-2.947,0.761c-1.612,0-2.991-0.554-4.137-1.663c-1.146-1.109-1.719-2.449-1.719-4.021
	c0-0.557,0.082-1.093,0.245-1.608h-1.73v7.955c0,0.213,0.071,0.391,0.215,0.534c0.143,0.144,0.321,0.215,0.534,0.215h13.123
	c0.205,0,0.381-0.071,0.528-0.215S-29.853,76.97-29.853,76.757z M-34.45,72.81c0.741-0.716,1.111-1.581,1.111-2.596
	c0-1.016-0.37-1.881-1.111-2.597c-0.74-0.717-1.635-1.074-2.683-1.074c-1.039,0-1.929,0.357-2.67,1.074
	c-0.74,0.716-1.111,1.581-1.111,2.597c0,1.015,0.371,1.88,1.111,2.596c0.741,0.717,1.631,1.074,2.67,1.074
	C-36.085,73.884-35.19,73.526-34.45,72.81z M-29.853,65.794v-2.025c0-0.229-0.082-0.428-0.245-0.596
	c-0.164-0.168-0.364-0.252-0.602-0.252h-2.137c-0.237,0-0.438,0.084-0.602,0.252c-0.163,0.168-0.245,0.366-0.245,0.596v2.025
	c0,0.237,0.082,0.438,0.245,0.602c0.164,0.164,0.364,0.245,0.602,0.245h2.137c0.237,0,0.438-0.081,0.602-0.245
	C-29.935,66.231-29.853,66.031-29.853,65.794z"/>
<circle fill="none" stroke="#F26475" stroke-miterlimit="10" cx="-37.592" cy="70.667" r="23"/>
<g>
	<circle fill="none" stroke="#F26475" stroke-miterlimit="10" cx="26.855" cy="26.695" r="23"/>
	<g>
		<path fill="#646464" d="M22.594,25.039v7.105c0,0.193-0.07,0.359-0.212,0.5c-0.141,0.141-0.307,0.211-0.499,0.211h-3.197
			c-0.192,0-0.359-0.07-0.5-0.211s-0.211-0.307-0.211-0.5v-7.105c0-0.192,0.07-0.358,0.211-0.499s0.308-0.211,0.5-0.211h3.197
			c0.192,0,0.358,0.07,0.499,0.211C22.523,24.681,22.594,24.847,22.594,25.039z M20.816,30.724c0-0.192-0.07-0.359-0.211-0.5
			c-0.141-0.14-0.307-0.211-0.5-0.211c-0.199,0-0.367,0.071-0.504,0.211c-0.138,0.141-0.206,0.307-0.206,0.5
			c0,0.2,0.068,0.368,0.206,0.505c0.137,0.137,0.305,0.205,0.504,0.205c0.193,0,0.359-0.068,0.5-0.205
			C20.746,31.092,20.816,30.924,20.816,30.724z M35.737,25.039c0,0.637-0.203,1.188-0.61,1.654c0.111,0.326,0.167,0.607,0.167,0.844
			c0.021,0.563-0.138,1.07-0.478,1.521c0.125,0.415,0.125,0.847,0,1.299c-0.111,0.422-0.311,0.77-0.6,1.043
			c0.066,0.829-0.115,1.499-0.544,2.009c-0.474,0.562-1.203,0.851-2.188,0.866h-0.399h-0.844h-0.188
			c-0.489,0-1.021-0.058-1.599-0.172c-0.578-0.115-1.027-0.222-1.35-0.322c-0.321-0.1-0.768-0.246-1.338-0.438
			c-0.91-0.318-1.494-0.481-1.754-0.488c-0.192-0.007-0.358-0.08-0.499-0.217c-0.142-0.137-0.211-0.301-0.211-0.494v-7.116
			c0-0.185,0.066-0.346,0.2-0.483c0.133-0.137,0.291-0.212,0.477-0.227c0.178-0.015,0.459-0.233,0.844-0.655s0.759-0.87,1.121-1.344
			c0.504-0.644,0.878-1.088,1.122-1.332c0.133-0.133,0.248-0.311,0.344-0.533c0.097-0.222,0.161-0.401,0.194-0.539
			c0.033-0.137,0.083-0.361,0.15-0.672c0.051-0.288,0.098-0.514,0.139-0.677c0.04-0.163,0.113-0.355,0.216-0.577
			c0.104-0.223,0.229-0.407,0.378-0.556c0.141-0.14,0.307-0.211,0.5-0.211c0.34,0,0.645,0.039,0.916,0.117
			c0.27,0.078,0.491,0.174,0.666,0.289c0.174,0.115,0.321,0.265,0.443,0.45s0.211,0.352,0.267,0.5
			c0.056,0.148,0.1,0.333,0.134,0.555c0.032,0.222,0.051,0.389,0.055,0.5c0.004,0.111,0.006,0.256,0.006,0.433
			c0,0.281-0.035,0.562-0.105,0.844s-0.141,0.503-0.211,0.667c-0.07,0.163-0.172,0.37-0.305,0.621
			c-0.023,0.045-0.061,0.111-0.112,0.2c-0.051,0.088-0.092,0.17-0.121,0.244c-0.03,0.074-0.06,0.163-0.089,0.266h3.075
			c0.577,0,1.077,0.211,1.499,0.633S35.737,24.462,35.737,25.039z"/>
	</g>
</g>
</svg>
