<?xml version="1.0" encoding="utf-8"?>
<!-- Generator: Adobe Illustrator 16.0.0, SVG Export Plug-In . SVG Version: 6.00 Build 0)  -->
<!DOCTYPE svg PUBLIC "-//W3C//DTD SVG 1.1//EN" "http://www.w3.org/Graphics/SVG/1.1/DTD/svg11.dtd">
<svg version="1.1" id="Layer_1" xmlns="http://www.w3.org/2000/svg" xmlns:xlink="http://www.w3.org/1999/xlink" x="0px" y="0px"
	 width="53.711px" height="52.5px" viewBox="0 0 53.711 52.5" enable-background="new 0 0 53.711 52.5" xml:space="preserve">
<path fill="#FFFFFF" d="M36.284,19.24v14.021c0,0.662-0.237,1.231-0.712,1.706c-0.476,0.475-1.044,0.712-1.707,0.712h-14.02
	c-0.663,0-1.232-0.237-1.707-0.712s-0.712-1.044-0.712-1.706V19.24c0-0.663,0.237-1.231,0.712-1.706s1.044-0.713,1.707-0.713h14.02
	c0.663,0,1.231,0.238,1.707,0.713C36.047,18.009,36.284,18.577,36.284,19.24z M34.147,32.757v-7.955H32.49
	c0.164,0.516,0.246,1.052,0.246,1.608c0,1.031-0.263,1.982-0.786,2.854c-0.523,0.871-1.236,1.561-2.136,2.068
	c-0.9,0.508-1.883,0.761-2.947,0.761c-1.612,0-2.991-0.554-4.137-1.663c-1.146-1.109-1.719-2.449-1.719-4.021
	c0-0.557,0.082-1.093,0.245-1.608h-1.73v7.955c0,0.213,0.071,0.391,0.215,0.534c0.143,0.144,0.321,0.215,0.534,0.215h13.123
	c0.205,0,0.381-0.071,0.528-0.215S34.147,32.97,34.147,32.757z M29.55,28.81c0.741-0.716,1.111-1.581,1.111-2.596
	c0-1.016-0.37-1.881-1.111-2.597c-0.74-0.717-1.635-1.074-2.683-1.074c-1.039,0-1.929,0.357-2.67,1.074
	c-0.74,0.716-1.111,1.581-1.111,2.597c0,1.015,0.371,1.88,1.111,2.596c0.741,0.717,1.631,1.074,2.67,1.074
	C27.915,29.884,28.81,29.526,29.55,28.81z M34.147,21.794v-2.025c0-0.229-0.082-0.428-0.245-0.596
	c-0.164-0.168-0.364-0.252-0.602-0.252h-2.137c-0.237,0-0.438,0.084-0.602,0.252c-0.163,0.168-0.245,0.366-0.245,0.596v2.025
	c0,0.237,0.082,0.438,0.245,0.602c0.164,0.164,0.364,0.245,0.602,0.245h2.137c0.237,0,0.438-0.081,0.602-0.245
	C34.065,22.231,34.147,22.031,34.147,21.794z"/>
<circle fill="none" stroke="#F26475" stroke-width="1.5" stroke-miterlimit="10" cx="26.855" cy="26.167" r="23"/>
</svg>
