<?xml version="1.0" encoding="utf-8"?>
<!-- Generator: Adobe Illustrator 16.0.0, SVG Export Plug-In . SVG Version: 6.00 Build 0)  -->
<!DOCTYPE svg PUBLIC "-//W3C//DTD SVG 1.1//EN" "http://www.w3.org/Graphics/SVG/1.1/DTD/svg11.dtd">
<svg version="1.1" id="Layer_1" xmlns="http://www.w3.org/2000/svg" xmlns:xlink="http://www.w3.org/1999/xlink" x="0px" y="0px"
	 width="53.711px" height="52.5px" viewBox="0 0 53.711 52.5" enable-background="new 0 0 53.711 52.5" xml:space="preserve">
<path fill="#FFFFFF" d="M21.969,19.338c0.009,0.597-0.198,1.097-0.619,1.497c-0.422,0.401-0.977,0.602-1.664,0.602h-0.024
	c-0.671,0-1.211-0.2-1.62-0.602c-0.41-0.4-0.614-0.9-0.614-1.497c0-0.606,0.211-1.107,0.632-1.504
	c0.422-0.397,0.973-0.596,1.651-0.596c0.68,0,1.224,0.198,1.633,0.596C21.752,18.231,21.961,18.732,21.969,19.338z M21.711,23.094
	v12.167H17.66V23.094H21.711z M36.284,28.288v6.974h-4.039v-6.507c0-0.859-0.166-1.532-0.497-2.02
	c-0.332-0.487-0.85-0.73-1.554-0.73c-0.516,0-0.947,0.141-1.295,0.424c-0.348,0.282-0.607,0.632-0.779,1.049
	c-0.091,0.246-0.136,0.577-0.136,0.995v6.789h-4.039c0.017-3.266,0.025-5.913,0.025-7.943c0-2.029-0.005-3.241-0.013-3.634
	l-0.013-0.59h4.039v1.769H27.96c0.164-0.262,0.332-0.491,0.504-0.688s0.402-0.409,0.693-0.639c0.29-0.229,0.646-0.407,1.068-0.534
	c0.421-0.127,0.89-0.19,1.405-0.19c1.399,0,2.525,0.465,3.376,1.394C35.858,25.134,36.284,26.496,36.284,28.288z"/>
<circle fill="none" stroke="#F26475" stroke-width="1.5" stroke-miterlimit="10" cx="26.855" cy="26.167" r="23"/>
</svg>
