<?xml version="1.0" encoding="utf-8"?>
<!-- Generator: Adobe Illustrator 16.0.0, SVG Export Plug-In . SVG Version: 6.00 Build 0)  -->
<!DOCTYPE svg PUBLIC "-//W3C//DTD SVG 1.1//EN" "http://www.w3.org/Graphics/SVG/1.1/DTD/svg11.dtd">
<svg version="1.1" id="Layer_1" xmlns="http://www.w3.org/2000/svg" xmlns:xlink="http://www.w3.org/1999/xlink" x="0px" y="0px"
	 width="53px" height="52.667px" viewBox="0 0 53 52.667" enable-background="new 0 0 53 52.667" xml:space="preserve">
<g>
	<circle fill="none" stroke="#000000" stroke-width="2" stroke-miterlimit="10" cx="26.25" cy="26.333" r="23"/>
	<g>
		<path d="M33.285,23.333c0,0.974-0.146,1.772-0.441,2.397l-4.875,10.366c-0.144,0.294-0.355,0.526-0.637,0.696
			c-0.281,0.169-0.582,0.254-0.903,0.254s-0.623-0.085-0.904-0.254c-0.281-0.17-0.489-0.402-0.623-0.696l-4.888-10.366
			c-0.295-0.625-0.442-1.424-0.442-2.397c0-1.893,0.67-3.509,2.009-4.849c1.34-1.339,2.955-2.009,4.849-2.009
			c1.893,0,3.509,0.67,4.848,2.009C32.616,19.825,33.285,21.441,33.285,23.333z M28.853,25.757c0.67-0.669,1.005-1.478,1.005-2.424
			s-0.335-1.755-1.005-2.424c-0.67-0.67-1.478-1.005-2.424-1.005c-0.947,0-1.755,0.335-2.425,1.005
			C23.335,21.579,23,22.387,23,23.333s0.335,1.755,1.004,2.424c0.67,0.67,1.478,1.005,2.425,1.005
			C27.375,26.762,28.183,26.427,28.853,25.757z"/>
	</g>
</g>
</svg>
