<?xml version="1.0" encoding="utf-8"?>
<!-- Generator: Adobe Illustrator 23.0.1, SVG Export Plug-In . SVG Version: 6.00 Build 0)  -->
<svg version="1.1" id="Layer_1" xmlns="http://www.w3.org/2000/svg" xmlns:xlink="http://www.w3.org/1999/xlink" x="0px" y="0px"
	 viewBox="0 0 47 47" style="enable-background:new 0 0 47 47;" xml:space="preserve">
<style type="text/css">
	.st0{fill:none;stroke:#FF6666;stroke-miterlimit:10;}
	.st1{fill:#FFFFFF;}
</style>
<circle class="st0" cx="23.5" cy="23.5" r="23"/>
<path class="st1" d="M32.9,28.7c0,0.2,0,0.6-0.1,0.9c-0.1,0.4-0.2,0.7-0.3,0.9c-0.2,0.4-0.7,0.9-1.6,1.4c-0.8,0.5-1.7,0.7-2.5,0.7
	c-0.2,0-0.5,0-0.7,0c-0.2,0-0.5-0.1-0.8-0.2c-0.3-0.1-0.5-0.1-0.6-0.2c-0.1,0-0.4-0.1-0.7-0.3c-0.4-0.1-0.6-0.2-0.7-0.2
	c-0.9-0.3-1.7-0.7-2.3-1.1c-1.1-0.7-2.3-1.7-3.5-2.9c-1.2-1.2-2.2-2.4-2.9-3.5c-0.4-0.7-0.8-1.5-1.1-2.3c0-0.1-0.1-0.3-0.2-0.7
	c-0.1-0.4-0.2-0.6-0.3-0.7c0-0.1-0.1-0.3-0.2-0.6c-0.1-0.3-0.1-0.5-0.2-0.8c0-0.2,0-0.5,0-0.7c0-0.8,0.2-1.7,0.7-2.5
	c0.5-0.9,1-1.4,1.4-1.6c0.2-0.1,0.5-0.2,0.9-0.3c0.4-0.1,0.7-0.1,0.9-0.1c0.1,0,0.2,0,0.3,0c0.2,0.1,0.4,0.4,0.7,1
	c0.1,0.2,0.2,0.4,0.4,0.7s0.3,0.6,0.5,0.9c0.1,0.3,0.3,0.5,0.4,0.7c0,0,0.1,0.1,0.2,0.3c0.1,0.2,0.2,0.3,0.3,0.5
	c0.1,0.1,0.1,0.3,0.1,0.4c0,0.2-0.1,0.4-0.4,0.7c-0.3,0.3-0.5,0.5-0.8,0.7c-0.3,0.2-0.6,0.5-0.8,0.7c-0.3,0.3-0.4,0.5-0.4,0.6
	c0,0.1,0,0.2,0.1,0.3c0,0.1,0.1,0.2,0.1,0.3c0,0.1,0.1,0.2,0.2,0.3c0.1,0.2,0.1,0.2,0.2,0.3c0.7,1.2,1.5,2.3,2.3,3.1
	c0.9,0.9,1.9,1.7,3.1,2.3c0,0,0.1,0.1,0.3,0.2c0.2,0.1,0.3,0.2,0.3,0.2c0.1,0,0.2,0.1,0.3,0.1c0.1,0,0.2,0.1,0.3,0.1
	c0.2,0,0.4-0.1,0.6-0.4c0.3-0.3,0.5-0.5,0.7-0.8c0.2-0.3,0.5-0.6,0.7-0.8c0.3-0.3,0.5-0.4,0.7-0.4c0.1,0,0.3,0,0.4,0.1
	c0.1,0.1,0.3,0.2,0.5,0.3c0.2,0.1,0.3,0.2,0.3,0.2c0.2,0.1,0.5,0.3,0.7,0.4c0.3,0.1,0.5,0.3,0.8,0.5c0.3,0.2,0.6,0.3,0.7,0.4
	c0.6,0.3,1,0.5,1,0.7C32.9,28.5,32.9,28.5,32.9,28.7z"/>
</svg>
