<?xml version="1.0" encoding="utf-8"?>
<!-- Generator: Adobe Illustrator 23.0.1, SVG Export Plug-In . SVG Version: 6.00 Build 0)  -->
<svg version="1.1" id="Layer_1" xmlns="http://www.w3.org/2000/svg" xmlns:xlink="http://www.w3.org/1999/xlink" x="0px" y="0px"
	 viewBox="0 0 47 47" style="enable-background:new 0 0 47 47;" xml:space="preserve">
<style type="text/css">
	.st0{fill:none;stroke:#FF6666;stroke-miterlimit:10;}
	.st1{fill:#FFFFFF;}
</style>
<circle class="st0" cx="23.5" cy="23.5" r="23"/>
<path class="st1" d="M30.4,20.3c0,1-0.1,1.8-0.4,2.4L25,33c-0.1,0.3-0.4,0.5-0.6,0.7c-0.3,0.2-0.6,0.3-0.9,0.3
	c-0.3,0-0.6-0.1-0.9-0.3c-0.3-0.2-0.5-0.4-0.6-0.7l-4.9-10.4c-0.3-0.6-0.4-1.4-0.4-2.4c0-1.9,0.7-3.5,2-4.8c1.3-1.3,3-2,4.8-2
	c1.9,0,3.5,0.7,4.8,2C29.7,16.8,30.4,18.4,30.4,20.3z M25.9,22.7c0.7-0.7,1-1.5,1-2.4s-0.3-1.8-1-2.4c-0.7-0.7-1.5-1-2.4-1
	c-0.9,0-1.8,0.3-2.4,1c-0.7,0.7-1,1.5-1,2.4s0.3,1.8,1,2.4c0.7,0.7,1.5,1,2.4,1C24.4,23.7,25.3,23.4,25.9,22.7z"/>
</svg>
