<?xml version="1.0" encoding="utf-8"?>
<!-- Generator: Adobe Illustrator 16.0.0, SVG Export Plug-In . SVG Version: 6.00 Build 0)  -->
<!DOCTYPE svg PUBLIC "-//W3C//DTD SVG 1.1//EN" "http://www.w3.org/Graphics/SVG/1.1/DTD/svg11.dtd">
<svg version="1.1" id="Layer_1" xmlns="http://www.w3.org/2000/svg" xmlns:xlink="http://www.w3.org/1999/xlink" x="0px" y="0px"
	 width="53px" height="52.667px" viewBox="0 0 53 52.667" enable-background="new 0 0 53 52.667" xml:space="preserve">
<g>
	<circle fill="none" stroke="#000000" stroke-width="2" stroke-miterlimit="10" cx="26.5" cy="26.333" r="23"/>
	<g>
		<path d="M35.879,31.503c0,0.24-0.045,0.556-0.134,0.943c-0.09,0.389-0.184,0.694-0.281,0.918c-0.188,0.446-0.732,0.92-1.635,1.42
			c-0.839,0.455-1.669,0.683-2.49,0.683c-0.241,0-0.476-0.016-0.703-0.047c-0.229-0.031-0.485-0.087-0.771-0.167
			c-0.286-0.081-0.498-0.146-0.636-0.194c-0.139-0.049-0.387-0.141-0.744-0.274c-0.356-0.135-0.575-0.215-0.656-0.241
			c-0.875-0.312-1.656-0.684-2.344-1.112c-1.143-0.705-2.323-1.667-3.542-2.886s-2.181-2.399-2.886-3.542
			c-0.429-0.688-0.8-1.469-1.112-2.344c-0.026-0.081-0.106-0.3-0.241-0.656c-0.134-0.357-0.226-0.605-0.274-0.744
			c-0.049-0.138-0.113-0.35-0.194-0.636c-0.08-0.285-0.136-0.542-0.167-0.771c-0.031-0.228-0.047-0.462-0.047-0.703
			c0-0.821,0.228-1.651,0.683-2.49c0.5-0.902,0.974-1.447,1.42-1.635c0.224-0.098,0.529-0.191,0.918-0.281
			c0.388-0.089,0.703-0.134,0.943-0.134c0.125,0,0.219,0.014,0.281,0.04c0.161,0.054,0.397,0.394,0.71,1.019
			c0.099,0.17,0.232,0.41,0.402,0.723c0.169,0.312,0.325,0.597,0.469,0.851c0.143,0.255,0.281,0.493,0.415,0.717
			c0.026,0.036,0.104,0.147,0.234,0.335c0.129,0.188,0.226,0.346,0.288,0.476c0.062,0.129,0.094,0.257,0.094,0.381
			c0,0.179-0.128,0.402-0.382,0.67c-0.255,0.268-0.531,0.514-0.83,0.736c-0.3,0.224-0.576,0.46-0.831,0.71
			c-0.254,0.25-0.382,0.456-0.382,0.616c0,0.08,0.022,0.181,0.067,0.302c0.045,0.12,0.082,0.212,0.114,0.274
			c0.03,0.062,0.094,0.17,0.188,0.321c0.094,0.152,0.145,0.236,0.153,0.255c0.679,1.223,1.455,2.272,2.331,3.146
			c0.874,0.876,1.924,1.652,3.146,2.331c0.019,0.009,0.103,0.06,0.255,0.153c0.151,0.094,0.259,0.157,0.321,0.188
			c0.062,0.032,0.154,0.069,0.274,0.114c0.121,0.045,0.222,0.067,0.302,0.067c0.16,0,0.366-0.128,0.616-0.382
			c0.25-0.255,0.486-0.531,0.71-0.831c0.223-0.299,0.469-0.575,0.736-0.83c0.268-0.254,0.491-0.382,0.67-0.382
			c0.124,0,0.252,0.031,0.381,0.094c0.13,0.062,0.288,0.159,0.476,0.288c0.188,0.13,0.299,0.208,0.335,0.234
			c0.224,0.134,0.462,0.272,0.717,0.415c0.254,0.144,0.538,0.3,0.851,0.469c0.312,0.17,0.553,0.304,0.723,0.402
			c0.625,0.312,0.965,0.549,1.019,0.71C35.865,31.285,35.879,31.378,35.879,31.503z"/>
	</g>
</g>
</svg>
