<?xml version="1.0" encoding="utf-8"?>
<!-- Generator: Adobe Illustrator 23.0.1, SVG Export Plug-In . SVG Version: 6.00 Build 0)  -->
<svg version="1.1" id="Layer_1" xmlns="http://www.w3.org/2000/svg" xmlns:xlink="http://www.w3.org/1999/xlink" x="0px" y="0px"
	 viewBox="0 0 47 47" style="enable-background:new 0 0 47 47;" xml:space="preserve">
<style type="text/css">
	.st0{fill:none;stroke:#FF6666;stroke-miterlimit:10;}
	.st1{fill:#FFFFFF;}
</style>
<circle class="st0" cx="23.5" cy="23.5" r="23"/>
<path class="st1" d="M32.8,18.1c1,1.6,1.4,3.4,1.4,5.4c0,1.9-0.5,3.7-1.4,5.4c-1,1.6-2.3,2.9-3.9,3.9c-1.6,1-3.4,1.4-5.4,1.4
	c-1.9,0-3.7-0.5-5.4-1.4c-1.6-1-2.9-2.3-3.9-3.9c-1-1.6-1.4-3.4-1.4-5.4c0-1.9,0.5-3.7,1.4-5.4c1-1.6,2.3-2.9,3.9-3.9
	c1.6-1,3.4-1.4,5.4-1.4c1.9,0,3.7,0.5,5.4,1.4C30.5,15.2,31.8,16.5,32.8,18.1z M30.1,27.3c0.7-1.2,1-2.4,1-3.8c0-1.4-0.3-2.6-1-3.8
	c-0.7-1.2-1.6-2.1-2.8-2.8c-1.2-0.7-2.4-1-3.8-1c-1.4,0-2.6,0.3-3.8,1c-1.2,0.7-2.1,1.6-2.8,2.8c-0.7,1.2-1,2.4-1,3.8
	c0,1.4,0.3,2.6,1,3.8c0.7,1.2,1.6,2.1,2.8,2.8c1.2,0.7,2.4,1,3.8,1c1.4,0,2.6-0.3,3.8-1C28.5,29.4,29.4,28.5,30.1,27.3z M25.3,18.6
	v6.3c0,0.1,0,0.2-0.1,0.3c-0.1,0.1-0.2,0.1-0.3,0.1h-4.5c-0.1,0-0.2,0-0.3-0.1c-0.1-0.1-0.1-0.2-0.1-0.3v-0.9c0-0.1,0-0.2,0.1-0.3
	c0.1-0.1,0.2-0.1,0.3-0.1h3.1v-4.9c0-0.1,0-0.2,0.1-0.3c0.1-0.1,0.2-0.1,0.3-0.1h0.9c0.1,0,0.2,0,0.3,0.1
	C25.2,18.4,25.3,18.5,25.3,18.6z"/>
</svg>
