<?xml version="1.0" encoding="utf-8"?>
<!-- Generator: Adobe Illustrator 16.0.0, SVG Export Plug-In . SVG Version: 6.00 Build 0)  -->
<!DOCTYPE svg PUBLIC "-//W3C//DTD SVG 1.1//EN" "http://www.w3.org/Graphics/SVG/1.1/DTD/svg11.dtd">
<svg version="1.1" id="Layer_1" xmlns="http://www.w3.org/2000/svg" xmlns:xlink="http://www.w3.org/1999/xlink" x="0px" y="0px"
	 width="53.711px" height="52.5px" viewBox="0 0 53.711 52.5" enable-background="new 0 0 53.711 52.5" xml:space="preserve">
<circle fill="none" stroke="#F26475" stroke-width="1.5" stroke-miterlimit="10" cx="26.855" cy="26.25" r="23"/>
<g>
	<path fill="#FFFFFF" d="M37.843,24.409c0.009,0.441,0.013,1.056,0.013,1.841c0,0.786-0.004,1.399-0.013,1.842
		c-0.008,0.442-0.043,1.001-0.104,1.676c-0.062,0.675-0.154,1.279-0.276,1.811c-0.131,0.598-0.414,1.102-0.848,1.511
		s-0.941,0.646-1.522,0.712c-1.816,0.204-4.562,0.307-8.237,0.307s-6.421-0.103-8.237-0.307c-0.582-0.065-1.091-0.303-1.529-0.712
		c-0.438-0.409-0.722-0.913-0.853-1.511c-0.115-0.531-0.203-1.136-0.265-1.811c-0.061-0.675-0.096-1.233-0.104-1.676
		c-0.009-0.442-0.013-1.056-0.013-1.842c0-0.785,0.004-1.399,0.013-1.841c0.008-0.442,0.043-1.001,0.104-1.676
		c0.062-0.676,0.154-1.279,0.276-1.812c0.131-0.597,0.413-1.101,0.848-1.51c0.434-0.409,0.94-0.646,1.522-0.712
		c1.816-0.205,4.562-0.307,8.237-0.307s6.421,0.102,8.237,0.307c0.581,0.065,1.091,0.303,1.529,0.712
		c0.438,0.409,0.722,0.913,0.853,1.51c0.115,0.532,0.203,1.136,0.265,1.812C37.8,23.408,37.835,23.966,37.843,24.409z M31.569,26.25
		c0-0.303-0.122-0.523-0.368-0.663l-6.285-3.928c-0.254-0.164-0.521-0.172-0.798-0.025c-0.271,0.147-0.405,0.377-0.405,0.688v7.857
		c0,0.312,0.135,0.54,0.405,0.688c0.131,0.065,0.258,0.099,0.38,0.099c0.164,0,0.303-0.041,0.418-0.123l6.285-3.929
		C31.447,26.774,31.569,26.552,31.569,26.25z"/>
</g>
</svg>
