<svg id="Layer_1" data-name="Layer 1" xmlns="http://www.w3.org/2000/svg" viewBox="0 0 22.81 30.41"><defs><style>.cls-1{fill:#f66;}.cls-2{fill:#fcfcfc;}</style></defs><title>marker</title><path class="cls-1" d="M11.41,0A11.41,11.41,0,0,0,0,11.41C0,16,1.6,17.29,10.23,29.8a1.43,1.43,0,0,0,2.35,0C21.21,17.29,22.81,16,22.81,11.41A11.41,11.41,0,0,0,11.41,0Z"/><path class="cls-2" d="M18.23,5.88c-1.47.08-4.39.38-6.2,1.49a.42.42,0,0,0-.19.35V17.5a.42.42,0,0,0,.62.36,16.53,16.53,0,0,1,5.88-1.26.83.83,0,0,0,.8-.82V6.7A.84.84,0,0,0,18.23,5.88ZM10.78,7.37C9,6.26,6.05,6,4.58,5.88a.84.84,0,0,0-.91.82v9.08a.83.83,0,0,0,.81.82,16.48,16.48,0,0,1,5.87,1.26A.42.42,0,0,0,11,17.5V7.72A.41.41,0,0,0,10.78,7.37Z"/></svg>