<svg id="Layer_1" data-name="Layer 1" xmlns="http://www.w3.org/2000/svg" viewBox="0 0 242 242"><defs><style>.cls-1{fill:#fc9;}.cls-2{fill:#fff;}.cls-3{fill:#511822;}</style></defs><title>15 ikonica</title><circle class="cls-1" cx="121.51" cy="120.93" r="118.5"/><path class="cls-2" d="M157.68,167.79c7.62-12.93,7.34-33,7.34-33V75.89a8.58,8.58,0,0,0-8.58-8.58h0a8.58,8.58,0,0,0-8.58,8.58V62.38a8.58,8.58,0,1,0-17.16,0V50.64a8.58,8.58,0,1,0-17.16,0V62.38a8.59,8.59,0,0,0-17.17,0v58.91l-.29,8.52s-.78-18.52-2-24.55c-2.38-11.37-16-9.58-16-9.58s.2,34.95,0,42.4,2,18.59,12.52,26c5.89,4.15,8.8,10.4,10.21,15H97.12V199.8h60.81V179.12h-3.26C155.09,173.75,156,170.67,157.68,167.79Z"/><path class="cls-3" d="M157.93,177.12h-1.06a20.13,20.13,0,0,1,2.53-8.31c7.81-13.26,7.63-33.2,7.62-34V75.89a10.58,10.58,0,0,0-17.16-8.28V62.38a10.58,10.58,0,0,0-17.17-8.28V50.64a10.58,10.58,0,0,0-21.16,0V54.1a10.58,10.58,0,0,0-17.16,8.28v38.18C90.56,94,82.26,93.11,77.76,93.7a2,2,0,0,0-1.74,2c0,.35.2,35,0,42.33-.15,5.4.86,18.89,13.37,27.71a25,25,0,0,1,8.54,11.39h-.81a2,2,0,0,0-2,2V199.8a2,2,0,0,0,2,2h60.81a2,2,0,0,0,2-2V179.12A2,2,0,0,0,157.93,177.12Zm-2,20.68H99.12V181.12h56.81Zm-3.08-20.68H102.2c-1.6-4.58-4.68-10.55-10.51-14.66C81.15,155,79.85,144,80,138.14c.18-6.48,0-33.12,0-40.57,3.35-.06,10.52.82,12,8.1,1.22,5.8,2,24,2,24.23h0a.26.26,0,0,0,0,.09c0,1.33,0,2.2.87,2.65l8.62,4.26.09,0a14.78,14.78,0,0,0,2.38,3.81,13.87,13.87,0,0,0,1.58,1.58l19.42,19.25a2.57,2.57,0,0,0,1.83.76h0a2.6,2.6,0,0,0,1.84-.76L150.9,141.5l.09-.09a14.76,14.76,0,0,0-10.54-25.08h0A14.78,14.78,0,0,0,128.83,122a14.79,14.79,0,0,0-11.61-5.66h0a14.77,14.77,0,0,0-14.74,14.77c0,.26,0,.52,0,.77l-4.41-2.17.28-8.44V62.38a6.58,6.58,0,0,1,13.14-.55V110a2,2,0,0,0,4,0V62.66a2.46,2.46,0,0,0,0-.28V50.64a6.58,6.58,0,0,1,13.16,0V62.38s0,0,0,.07v47.73a2,2,0,0,0,4,0V62.26a6.58,6.58,0,0,1,13.16.12v10.9a.69.69,0,0,0,0,.13v36.1a2,2,0,1,0,4,0V76a.51.51,0,0,0,0-.13,6.58,6.58,0,0,1,13.16,0v58.94c0,.19.19,19.64-7.07,31.95A24.18,24.18,0,0,0,152.85,177.12Zm-46.39-46a10.78,10.78,0,0,1,10.75-10.77h0a10.8,10.8,0,0,1,9.79,6.31,2,2,0,0,0,1.82,1.17h0a2,2,0,0,0,1.82-1.17,10.82,10.82,0,0,1,9.79-6.34h0a10.76,10.76,0,0,1,10.13,14.39,10.82,10.82,0,0,1-2.51,3.95l-.07.08-19.1,19-18.5-18.34-.12-.11a10.37,10.37,0,0,1-1.2-1.19,10.63,10.63,0,0,1-2-3.44A10.5,10.5,0,0,1,106.46,131.13Z"/></svg>