<svg id="Layer_1" data-name="Layer 1" xmlns="http://www.w3.org/2000/svg" viewBox="0 0 242 242"><defs><style>.cls-1{fill:#f96;}.cls-2{fill:#fff;}.cls-3{fill:#511822;}</style></defs><title>15 ikonica</title><circle class="cls-1" cx="121.51" cy="121.21" r="118.5"/><path class="cls-2" d="M121.71,61.49c-38.08,0-68.94,24.58-68.94,54.9,0,19.36,12.59,36.37,31.59,46.14v27.26l18.31-20.63a85.59,85.59,0,0,0,19,2.14c38.08,0,68.94-24.58,68.94-54.91S159.79,61.49,121.71,61.49Z"/><path class="cls-3" d="M121.51,59.49c-39.12,0-70.94,25.53-70.94,56.9,0,19.13,11.79,36.76,31.6,47.35v26a2,2,0,0,0,1.29,1.87,1.94,1.94,0,0,0,.71.13,2,2,0,0,0,1.49-.67l17.53-19.75a87.81,87.81,0,0,0,18.32,1.93c39.12,0,70.94-25.53,70.94-56.91S160.63,59.49,121.51,59.49Zm0,109.81a83.89,83.89,0,0,1-18.59-2.09,2,2,0,0,0-1.94.62L86.17,184.52v-22a2,2,0,0,0-1.09-1.78c-19.1-9.82-30.51-26.41-30.51-44.36,0-29.17,30-52.9,66.94-52.9s66.94,23.73,66.94,52.9S158.42,169.3,121.51,169.3Z"/><path class="cls-3" d="M89,107.55a8.72,8.72,0,1,0,8.72,8.72A8.73,8.73,0,0,0,89,107.55ZM89,121a4.72,4.72,0,1,1,4.72-4.72A4.72,4.72,0,0,1,89,121Z"/><path class="cls-3" d="M121.51,107.55a8.72,8.72,0,1,0,8.72,8.72A8.73,8.73,0,0,0,121.51,107.55Zm0,13.44a4.72,4.72,0,1,1,4.72-4.72A4.72,4.72,0,0,1,121.51,121Z"/><path class="cls-3" d="M153.32,107.55a8.72,8.72,0,1,0,8.72,8.72A8.73,8.73,0,0,0,153.32,107.55Zm0,13.44a4.72,4.72,0,1,1,4.72-4.72A4.72,4.72,0,0,1,153.32,121Z"/></svg>