<svg id="Layer_1" data-name="Layer 1" xmlns="http://www.w3.org/2000/svg" viewBox="0 0 242 242"><defs><style>.cls-1{fill:#fc6;}.cls-2{fill:#fff;}.cls-3{fill:#511822;}</style></defs><title>15 ikonica</title><circle class="cls-1" cx="121.41" cy="120.92" r="118.5"/><path class="cls-2" d="M169.17,92.1,112.65,76.29a5.11,5.11,0,0,0-6.32,3.55l-4.75,17a5.14,5.14,0,0,0,3.56,6.32l15,4.19L97.66,187.65a13.78,13.78,0,0,0,26.54,7.43l22.47-80.34,15,4.2a5.13,5.13,0,0,0,6.32-3.56l4.75-17A5.13,5.13,0,0,0,169.17,92.1Z"/><path class="cls-2" d="M168.91,77.05a25,25,0,0,0-17.37-30.86h0a25,25,0,0,0-30.86,17.37L116.8,77.42,165,90.91Z"/><path class="cls-3" d="M169.71,91.17l-2.22-.62,3.35-12A27,27,0,0,0,118.75,64l-3.34,12-2.23-.62a7.12,7.12,0,0,0-8.78,4.94l-4.74,17a7.12,7.12,0,0,0,4.94,8.78l13.07,3.66-21.94,78.4a15.8,15.8,0,0,0,11,19.45,16,16,0,0,0,4.27.59,15.82,15.82,0,0,0,15.18-11.54l21.93-78.4,13.06,3.65h0a7,7,0,0,0,1.91.27,7.14,7.14,0,0,0,6.87-5.21l4.74-17A7.13,7.13,0,0,0,169.71,91.17ZM122.6,65.1A23,23,0,1,1,167,77.52l-3.33,11.93L119.26,77Zm-.33,130.44a11.77,11.77,0,0,1-14.51,8.17,11.8,11.8,0,0,1-8.18-14.52l21.94-78.41,22.69,6.35ZM170.8,98.88l-4.74,17A3.13,3.13,0,0,1,162.2,118h0L105.68,102.2a3.11,3.11,0,0,1-2.17-3.85l4.75-17a3.12,3.12,0,0,1,3.85-2.17L168.63,95A3.14,3.14,0,0,1,170.8,98.88Z"/><polygon class="cls-3" points="114.52 85.84 111.13 97.98 114.51 98.92 117.14 89.51 121.75 90.8 119.12 100.21 122.52 101.16 125.91 89.03 114.52 85.84"/><path class="cls-3" d="M134,91.3l-5.53-1.55-3.4,12.14,3.44,1,.88-3.17,2.1.59c3.33.93,5.89-.21,6.66-3S137.37,92.23,134,91.3Zm.69,5c-.31,1.11-1.21,1.57-2.63,1.18L130.19,97l1-3.55,1.91.53C134.51,94.35,135,95.21,134.73,96.33Z"/><polygon class="cls-3" points="149.75 98.56 150.49 95.9 140.99 93.25 137.6 105.38 147.34 108.11 148.08 105.45 141.72 103.67 142.34 101.45 147.75 102.97 148.47 100.4 143.06 98.89 143.63 96.84 149.75 98.56"/><path class="cls-3" d="M158.67,97.93c-3.83-1.07-7.39.75-8.42,4.45s1.06,7.1,4.89,8.17a6.62,6.62,0,0,0,5.86-.83l-1.63-2.58a3.76,3.76,0,0,1-3.26.62,3.6,3.6,0,0,1,1.94-6.94,3.73,3.73,0,0,1,2.46,2.22l2.74-1.36A6.62,6.62,0,0,0,158.67,97.93Z"/><rect class="cls-2" x="28.87" y="124.34" width="64.25" height="24.22" rx="1.62" transform="translate(-86.84 158.43) rotate(-74.37)"/><path class="cls-2" d="M152.54,134.94l-30.07-8.41s-6.6-2.06-4.83-8.38l2.72-9.74L113,106.35l-19,8.51c-3.38,1.27-6.45,1.76-8.9,1.08l-5.39-1.51L65.44,165.52l14.3,4a9.93,9.93,0,0,1,5.39,3.74l2.31,3.17a16.33,16.33,0,0,0,8.82,6.13l4.58,1.28.42.12,26,7.26a6.83,6.83,0,0,0,3.68-13.16l4.1,1.15a7.89,7.89,0,1,0,4.25-15.2l2.69.75a7.89,7.89,0,1,0,4.25-15.2l2.1.59a7.9,7.9,0,0,0,4.25-15.21Z"/><path class="cls-3" d="M153.08,133l-30-8.39a4.7,4.7,0,0,1-3.5-5.94l2.72-9.74a2,2,0,0,0-1.39-2.46l-7.36-2.06a2,2,0,0,0-1.36.1L93.25,113c-3.17,1.19-5.72,1.52-7.59,1l-3.46-1,.6-2.16a3.55,3.55,0,0,0-.33-2.76,3.6,3.6,0,0,0-2.18-1.71l-20.2-5.65a3.62,3.62,0,0,0-4.46,2.51L39.19,162a3.63,3.63,0,0,0,2.52,4.47l20.19,5.65a3.74,3.74,0,0,0,1,.13,3.63,3.63,0,0,0,3.48-2.65l.46-1.64,12.37,3.46a8,8,0,0,1,4.31,3l2.31,3.17a18.37,18.37,0,0,0,9.9,6.87l31,8.67a9,9,0,0,0,2.4.33,8.84,8.84,0,0,0,8.24-12,9.68,9.68,0,0,0,4.66-1.27,9.89,9.89,0,0,0,3.84-13.33,9.9,9.9,0,0,0,6.87-14.59l-.07-.12a9.91,9.91,0,0,0,7.32-7h0A9.9,9.9,0,0,0,153.08,133ZM62.62,168.18l-19.47-5.45,16.23-58,19.47,5.45Zm93.47-24.05a5.91,5.91,0,0,1-7.27,4.09l-2.09-.59a2,2,0,0,0-1.07,3.86,5.89,5.89,0,0,1,4.08,7.26,5.9,5.9,0,0,1-7.26,4.09l-2.69-.76h0a2,2,0,0,0-1.08,3.85h0a5.91,5.91,0,0,1,4.09,7.27,5.89,5.89,0,0,1-7.26,4.08l-4.09-1.14h0a2,2,0,0,0-1.08,3.85,4.83,4.83,0,1,1-2.6,9.3l-31-8.66a14.37,14.37,0,0,1-7.73-5.37l-2.31-3.18a12,12,0,0,0-6.47-4.49l-12.37-3.46L81.12,116.9l3.46,1c2.72.76,6.13.38,10.14-1.13l.11,0,18.33-8.21,4.74,1.32-2.18,7.81c-1.82,6.48,3.23,9.92,6.21,10.85L152,136.87A5.9,5.9,0,0,1,156.09,144.13Z"/><path class="cls-3" d="M146.2,151.56a2,2,0,0,1-.54-.07l-18.14-5.08a2,2,0,0,1,1.08-3.85l18.13,5.07a2,2,0,0,1-.53,3.93Z"/><path class="cls-3" d="M139.29,166a2,2,0,0,1-.54-.07l-18.13-5.07A2,2,0,0,1,121.7,157l18.13,5.08a2,2,0,0,1-.54,3.92Z"/><path class="cls-3" d="M131.15,180.12a1.68,1.68,0,0,1-.54-.08l-14.24-4a2,2,0,1,1,1.08-3.85l14.24,4a2,2,0,0,1-.54,3.93Z"/></svg>