<svg id="Layer_1" data-name="Layer 1" xmlns="http://www.w3.org/2000/svg" viewBox="0 0 242 242"><defs><style>.cls-1{fill:#99c;}.cls-2{fill:#fff;}.cls-3{fill:#511822;}</style></defs><title>15 ikonica</title><circle class="cls-1" cx="120.75" cy="120.93" r="118.5"/><path class="cls-2" d="M165.15,143l-3-25.44a18.82,18.82,0,0,0-19-16.64h-16a6.85,6.85,0,0,0,.51-2.6V93.53h-14v4.81a7,7,0,0,0,.51,2.6h-16a18.82,18.82,0,0,0-19,16.64l-3,25.44H52v44.25H189.47V143Z"/><rect class="cls-2" x="104.31" y="54.59" width="32.87" height="38.89" rx="16.44"/><circle class="cls-2" cx="120.75" cy="120.93" r="6.61"/><path class="cls-3" d="M191.16,126.91l-4.78-7.9a8.68,8.68,0,1,0-3.35,2.2l4.44,7.35V141H166.93l-2.75-23.64a20.75,20.75,0,0,0-21-18.44H129.72c0-.2,0-.4,0-.6V93.53a1.72,1.72,0,0,0,0-.39A18.43,18.43,0,0,0,139.19,77V71a18.44,18.44,0,0,0-36.88,0v6a18.43,18.43,0,0,0,9.48,16.1,2.58,2.58,0,0,0,0,.39v4.81c0,.2,0,.4,0,.6H98.27a20.73,20.73,0,0,0-20.94,18.4L74.57,141H52a2,2,0,0,0-2,2v44.25a2,2,0,0,0,2,2H189.47a2,2,0,0,0,2-2V128A2,2,0,0,0,191.16,126.91Zm-11-9.18a4.62,4.62,0,1,1,4.61-4.61A4.62,4.62,0,0,1,180.11,117.73ZM106.31,77V71a14.44,14.44,0,0,1,28.88,0v6a14.44,14.44,0,1,1-28.88,0Zm19.44,17.73v3.57a4.93,4.93,0,0,1-4.93,4.93h-.14a4.93,4.93,0,0,1-4.93-4.93V94.77a18,18,0,0,0,10,0Zm-44.45,23a16.76,16.76,0,0,1,17-14.84H113a8.93,8.93,0,0,0,7.64,4.33h.14a8.93,8.93,0,0,0,7.64-4.33h14.77a16.75,16.75,0,0,1,17,14.87L162.9,141H147.48V126.63a2,2,0,0,0-4,0V141H98.75V126.63a2,2,0,0,0-4,0V141H78.6Zm106.17,67.49H54V145H187.47v40.25Z"/></svg>