<?xml version="1.0" encoding="utf-8"?>
<!-- Generator: Adobe Illustrator 23.0.1, SVG Export Plug-In . SVG Version: 6.00 Build 0)  -->
<svg version="1.1" id="Layer_1" xmlns="http://www.w3.org/2000/svg" xmlns:xlink="http://www.w3.org/1999/xlink" x="0px" y="0px"
	 viewBox="0 0 272.6 271.5" style="enable-background:new 0 0 272.6 271.5;" xml:space="preserve">
<style type="text/css">
	.st0{stroke:#000000;stroke-linecap:square;stroke-miterlimit:2;}
	.st1{fill:#FFFFFF;stroke:#FFFFFF;stroke-linecap:square;stroke-miterlimit:2;}
</style>
<path class="st0" d="M144.7,0.8v0.4h-0.1c-0.6,8.8-1,18.2-0.1,27c0.6,2.7,1.1,5.5,1.9,8.1l-8.5-0.1v-0.5c0.6-0.3,0.9-1.3,0.9-2.1
	h0.2c1.5-8.3,0.4-17.4,0.9-25.9c-5,6-9.2,13.6-14,19.7c-2.3,2.4-3.4,5.5-4.5,8.6c0.2,0.3,0.3,0.6,0.3,0.9c-2.8,0.9-5.1-0.1-7.8,0.4
	c0.9-10.4,0.7-19.2,0.6-29.7c-0.2-1.7-0.4-3.3-1.3-4.6V2.3c2,0.1,4.7-0.4,6.6,0.5v0.4h-0.2c-1.4,8.1-1.3,17-0.9,25.5l0.2,0.2
	c1-0.8,1.6-1.8,2.3-2.9c0.5-0.4,1.1-1.2,1.7-1.9c5.5-6.2,10.7-13.2,14.5-20.6c0.2-0.8,0.2-1.7,0.7-2.3c2.3-0.2,4.3-0.6,6.5-0.7
	L144.7,0.8z"/>
<path class="st0" d="M171.5,5.9c0.6,0.4,0.5,1.6,1.5,1.4c2.8,4.6,2.5,11.8,0.5,16.7c-0.8,3.1-2,6.2-3.6,9c-2.5,3.1-5.8,6.9-10.3,6.3
	c-4-0.8-7.5-4.4-8-8.6c-0.9-7.8,1.3-15.3,5.1-21.7c3-3.2,6.2-6.1,10.7-5C168.9,4.4,170.1,4.9,171.5,5.9z"/>
<path class="st0" d="M96.5,6.5c2.8,9.2,5.8,18.4,10.2,26.8c1.1,1.2,1.5,3,3,3.6c0.1,0.4-0.1,0.7-0.4,0.9c-2.4,0.1-4.2,1.7-6.1,2.6
	c0.1,0.5-0.5,0.3-0.7,0.4h-0.4c0.3-8-4.3-14.4-6.7-21.5c-0.7-1.5-1.5-3.2-2-4.9c-1.1,2.1-1,4.7-1.5,7.1c-0.7,8-2.9,15.4-3.2,23.6
	c-0.4,0.7-0.1,1.7-0.7,2.3c-2-0.6-4.3-0.4-6.2-1.1c0-0.7,0.6-0.9,0.8-1.6c0.9-2.8,2.5-5.7,2.7-9h0.1c0.4-0.9,0.4-2,0.5-3.1H86
	c1.5-6.4,2.3-13.3,3.3-19.8c-2.9,1.6-7.1,1.9-9.3,5.2c-0.3,0.2-0.6,0.5-1,0.4c-0.3-1.6-1-3-1.2-4.6c5.1-2,10-4.2,15.1-6.4
	C94.1,7.1,95.1,6.4,96.5,6.5z"/>
<path class="st1" d="M169.6,11.9c1.4,5.9-0.7,12-3,17c-0.8,2.2-2.5,3.9-4.1,5.4c-1.1,0.4-2.3,0.7-3.5,0.2c-2.4-2.2-4-5.7-2.8-9.3
	C156.9,19,159.3,13,164,9c1.2,0.1,1.9-1.2,3-0.5C168.2,9.2,169.6,10.4,169.6,11.9z"/>
<path class="st0" d="M188.4,11.5c1.5,1,3.2,1.5,4.3,2.8c1.4-0.3,1.9,1.3,3,1.4c1,1.2,2.9,1.2,3.7,2.3c1.2-0.1,1.6,1,2.6,1.3
	c3.1,1.7,6.6,3.3,10,4.8c-0.6,1.8-1.6,3.6-2.4,5.4c-0.9,0.3-0.6-0.6-1.2-0.9c-2.1-2.1-4-4-6.4-5.6c-0.6,0.3-0.8-0.4-1.1-0.6
	c0-0.9-1.1-0.2-1.2-0.9c-2.5,3.5-4.7,7.3-7.1,10.9c-3,5.4-5.6,11.1-8.5,16.5c-0.1,0.3,0.1,0.7-0.3,0.9c-0.6,0.6-0.7-0.6-1.5-0.4
	c-1.1-1.2-2.6-2.5-4.1-2.9c0.4-1.8,2-3.4,2.9-5.2c4.6-6.6,8.5-13.3,12.7-20.1c0.3-0.9,1-1.3,1.1-2.2c-4-1.7-7.6-3.5-12.3-3.4
	c-0.2-0.2,0-0.5-0.1-0.7c1-0.6,1.4-1.6,2.1-2.5c0.3-0.8,1.4-1,1.4-2C187.2,9.5,187.6,11,188.4,11.5z"/>
<path class="st0" d="M59.2,24c0.8,1.1,2.2,2.6,3,3.8c0.2,1.3-1.4,0.6-1.8,1.1c-3.3,0.7-6.1,2.3-8.3,4.6c0.1,2.1,2.4,3.6,3.5,5.5
	c1.7,2,3,4.3,4.9,6.5c2.1-0.9,3.6-2.9,5.9-3.6c2.1-2,6-1.9,8.6-0.6c2.5,1.6,4.6,4,4.2,7.4c-0.4,1.9-0.2,4.2-1.8,5.4
	c-1.4,2.9-4.6,4.4-6.7,6.2c-1.5,1-2.1,2.1-3.7,2.8c0,0.2-0.2,0.3-0.4,0.2h-0.4c0.7-2-0.8-4-1.8-5.5c-1.9-3.7-4.6-6.6-6.9-10.1
	c-3.2-3.6-5.8-7.1-9.3-10.8c-1.3-0.7-2.5-1-3.8-1.5c-0.2-0.4,0.4-0.7,0.7-0.7c2.2-1.7,4.3-3.3,6.3-4.8c1.4-0.7,2.2-2.3,3.7-3
	c0.8-1.5,2.9-1.9,3.2-3.5C58.9,23.3,59.1,23.5,59.2,24z"/>
<path class="st0" d="M230.9,38.5c0.5,0.8,1.5,0.9,1.7,1.7c-0.5,1.2-2,2-3.2,2.7c-0.6,0.4-0.3,1.5-1.4,1.2c0-0.9-0.9-0.7-1-1.6
	c-0.4-0.3-0.6-0.5-0.8-0.9c-3.7-2.4-9-2.2-12.6-0.1c-1.4,0.5-0.5,1.3,0,2c1.6,1.5,2.9,3.2,4.3,4.5c0.3,0.8,1.2,1.4,1.9,1.7
	c0.3,0,0.5-0.2,0.9-0.2c-0.1,1.4-1.7,1.9-2.5,2.6c-1.1,0.6-0.8,2.1-2.3,1.8c-2-2.4-3.8-5.3-5.5-8c-0.9-0.9-2-0.9-2.7,0
	c-1.5,2.4-4.7,4.5-3.8,8.1c0.2,3,1.9,5.6,4.7,6.7h0.3c-0.2,1-1.5,1.4-2.4,2c-0.7,0.6-1.6,1.3-1.8,2.2c-1.2-0.1-1.7-1.3-2.6-2
	c-0.8-2.3-2.3-4.5-2.5-7.1c-1.2-5.2,2-9.7,5.2-13.3c2-1.2,3-3,5-4c2.8-1.1,5.2-3.2,8.6-2.9C223.1,35,226.9,37,230.9,38.5z"/>
<path class="st1" d="M73.2,45.8c0.8,0.9,1.1,1.9,1.3,3c-0.5,2.8-2.1,5.1-4.1,6.9c-0.3,0.2-0.3,0.8-0.8,0.4c-2.3-2.2-4.3-4.4-6.2-6.9
	C65.8,46.6,69.5,43,73.2,45.8z"/>
<path class="st0" d="M34.9,47.9c5.6,4.9,12,8.2,18,12.7c3.5,2.3,7.1,4.2,11.2,5c-0.2,0.7-0.9,1.4-1.5,1.9c-1.1,1.6-2.4,3.3-3.1,5.2
	c-0.1,0.2-0.5,0.1-0.7,0.1c-0.9-3.5-4.5-5.6-7.1-7.4c-4.2-3.8-10.2-6.4-14.6-9.9c0.8,5.8,2.9,11.3,4.8,16.7c2.2,4.7,3,10.8,7.2,14.4
	c0.4,1-0.7,2.1-1.3,2.8c-0.3,0.9-1,1-1.4,1.9c-0.6,0.2-0.6,1.4-1.4,1.1c-5.9-6.1-13.6-9.8-20.2-14.8c-2.9-1.7-5.4-3.6-8.6-5
	c-0.3,0.3-0.3,0.6-0.8,0.5c-0.6-1.8,1-2.4,1.6-3.6c1.3-0.9,1.6-2.9,2.9-2.8c1.7,3.9,6,6,9.1,8.8c4.1,2.8,8.2,5.9,12.5,8.2
	c0-1.9-0.9-3.4-1.1-5.4l-0.3-0.2c-2.7-8.4-3.7-17.6-8.8-24.8c-0.4-0.6-1.7-0.8-1.1-2c0.8-0.5,0.7-1.4,1.4-1.8
	C32.8,49.1,33.3,44.1,34.9,47.9z"/>
<path class="st0" d="M242.6,54.7c0.7,0.3,0.6,0.9,0.8,1.4c0.4,0.6,1.7,1.2,1.4,2.3c-4.9,0.9-8.7,3.4-12.7,6c-0.3,0.1-1.1-0.3-1,0.4
	v0.3c-0.1,0-0.2,0.1-0.2,0.2c0.4,0.4,1.3,1,2,1.3c1.8,0.9,3.9,1,5.7,2c2.1,0.6,4.3,1,6.7,1c0.4,1.2-1,1.3-1.2,2.3
	c-0.6,0.9-0.9,2-1.1,3.1c-1.9,0.2-3-1.3-4.8-1.6c-2.1-1.1-4.4-1.7-6.6-2.6l-0.4,0.2c-1.1,3.8-1.1,8.3-2,12c0.4,0.2,0.2,0.7,0.1,1
	c-2.2-0.2-4.4-0.6-6.7-0.6c-0.4-0.2-0.4-0.6-0.4-1c3.5-2,2.2-6.7,3.9-9.7c-0.4-2.2,2-3.6,0.9-5.6c-4.3,2.6-8.9,4.7-12.3,8.5
	c0.2,0.4-0.3,0.5-0.6,0.5c-0.7,0.2-0.1-0.7-0.6-0.9c-1-1.2-1.3-2.3-2.4-3.5c0-0.9-1.5-1.7-0.3-2.5c8.1-2.2,15-7.2,22.2-10.9
	c2.8-1.8,5.5-3.4,7.6-5.8C242,52.3,241.8,54,242.6,54.7z"/>
<path class="st0" d="M119.8,62c0.6,2.3,1.2,4.5,1.8,6.7c1.2,1.1,3.2,0.6,4.9,0.9l0.5-0.3c0.7-2.2,0.8-4.8,1.9-6.9
	c3.8,0.1,7.4-0.3,11.4-0.1l0.9,0.4c0.4,2.2,1.6,4.1,2.1,6.3c1,0.5,2.2,0.5,3.5,0.5c1-2.3,1.9-4.6,2.4-7.1c4.6,0.1,9.5-0.7,14.2-0.3
	c0,1.5-0.9,2.4-1.2,3.6c-0.6,0.2-0.3,1.2-0.4,1.7c-0.4,0.1-0.4,0.6-0.4,1c-0.4,0.2-0.3,0.8-0.5,1.2h-0.2c-1.6,3.8-1.9,8.2-3.1,12.1
	c0.2,0.2,0,0.7,0.1,1c-9,0.3-17.4-0.2-26.3,0.3c-6.4,0-13.7,0.5-20.4,1c-0.6-6.9-3.4-12.8-4.6-19.5c-0.5-0.7-0.8-1.7-0.7-2.6
	C110.3,62.1,114.9,62,119.8,62z"/>
<path class="st1" d="M116.3,67.2c0.7,2.3,1.3,4.8,1.9,7.2c3.7,0.2,7.7-0.1,11.2,0c0.7-1.5,1.5-3,1.6-4.7c0.1,0.1,0.2-0.1,0.3-0.1
	c0-0.1-0.1-0.2-0.1-0.3l0.1,0.2c0.2-0.1,0-0.3,0.1-0.5l-0.1-0.1l0.1,0.1l0.6-2.1c0,0.3,0.3,0.3,0.5,0.3c1.5,0,4.2-1.1,5.1,0.5
	c0.4,2.1,2.2,3.9,2.2,6.3c3.4,0.2,6.5,0.2,9.8,0c1.1-2.1,1.8-4.7,3-6.7c1.4-0.1,2.7-0.1,4,0.2c-0.9,3.6-2,7.1-3.4,10.4
	c-7.8,0.7-16.3-0.1-24.1,0.7c-3-0.4-5.4,0.3-8.3-0.1c-1.8,0-4.2-0.1-6.2-0.4c-0.4-3.3-2-7.3-2.4-10.8
	C113.2,66.5,115.4,66.2,116.3,67.2z"/>
<path class="st0" d="M257,78.8c0.6,1.6,1.3,3.2,2.1,4.7c0.1,1.3,1,2.2,1.2,3.4c0.8,1.6,1.6,3.3,2.4,4.9c-0.1,0.9,1,1.3,0.9,2.4
	c0.6,0.5,0.8,1.4,0.9,2.1c-7.7,0.9-13.8,5.6-20.8,8.3c-3.6,1.9-7.5,3.1-10.4,6.1l-0.1,0.9c-1,0.2-1.2-1.2-1.7-1.8
	c-0.6-1.6-1.7-3.1-2.3-4.7c3.8,0.5,6.5-2.1,9.7-3.2c-0.6-3.6-2.9-6.5-4.3-9.8c-4.1-0.5-7.9-0.1-11.8,0.6c-0.5,0.2-0.2,1.1-1,0.8
	c-0.6-2.3-0.4-4.7-0.5-7c0.6-0.2,1,0.3,1.5,0.5c8.5,0.4,16.8,1.6,25.5,1.3v0.1l9.3,0.6c-0.5-3.1-3.5-5.4-4.4-8.6
	c-0.1-0.4-1-0.4-0.7-1.1C253.9,79,255.5,79,257,78.8z"/>
<path class="st0" d="M10.8,82.8c1.5,0.6,3.9,0.6,4.3,2.1c-3,3-4.7,6.6-5.5,10.8c2.3,0.9,4.1,2.2,6.5,2.7c2,1.1,3.8,1.9,6,2.7
	c2.1-2.7,2.8-6,5.6-8.4c0.9-0.7,2.4-1.3,3.5-1.9c2.4-1.1,5-0.7,7.1,0.9c2.5,2.4,4.1,5.9,3.2,9.8c-1.5,4.1-3.2,8.3-4.5,12.7
	c-0.9,0.1-0.8-0.9-1.5-1.2c-2-2.6-5.3-4-8-5.5c-1.3,0-2.3-0.9-3.4-1.1c-4-1.9-8.3-3.5-12.6-5c-1.8-0.5-3.8-0.7-5.5-1.1
	c-0.8-0.3-1.7,0.1-2.5,0.1c0.1-1.3,1.3-2.4,1.8-3.6c1.8-4.8,4.2-8.9,4.5-14.4C10.2,82.5,10.8,82.3,10.8,82.8z"/>
<path class="st0" d="M179.5,85.4c-0.7,16-1.2,32.3-0.9,48.5h-0.2c-0.2,6,0,12.8-0.1,19.2c-0.9,1-1.6,1.3-2.6,2.2
	c-4.7,3.9-12,1.8-17.1-0.5c-0.2-0.6-1.2-0.3-1.6-0.7c-8.3-3.5-16.6,1.5-22.5,5.8h-1.2c-0.2-18.2-0.5-37.1-0.7-55
	c-0.3-3.8-0.9-8-4.4-9.5c-1.2,0.1-1.7-0.9-2.8-0.9c-3.2-1-6-0.3-9.1,0c-5.7,1.2-11.5,3.3-17.7,2c-0.9-0.6-2.4,0.2-3.2-0.8
	c-0.6,0.5,0,1.1,0,1.7l-0.1,10.2l-0.1,34.1c-0.3,3-0.1,6,0.2,8.9c2.9,1.5,6.5,2,10,1.4c3-1.4,6.2-2.6,9.4-3.6
	c5.2-1.4,11-0.3,14.7,3.4c0.6,0,0.7,0.8,0.9,1.3v6.1c-0.6,0.3-0.6-0.5-1-0.6v-0.2c-1.4-1.3-3.5-2.4-5-3.5h-0.6
	c0-0.7-0.8-0.1-1.2-0.5c-4.3-2-9.3,0-13.5,1.2c-4.9,2.5-11.3,3-16.3,0.5c-1.2,0-2-1.1-2.8-1.7l0.1-10.7l0.3-36.3l-0.3-18.7
	c3.1,0.8,5.9,2.4,9.4,2.5v0.1c2.6,0.7,5.3,0.3,7.9,0.2c7.9-2.2,19.6-5.7,26.2,1.1c4.9,5.2,3.9,13.3,4,20.7v16.3
	c0.4,0.1,0.2,0.5,0.3,0.8h-0.1c0.6,6.6-0.3,13.5,0.7,20.1c2.3-0.9,4.8-2.1,7.3-2.8c5.4-1.9,10.9,0.7,15.4,2.9
	c3.4,1.3,8.8,2.3,11.8-0.4c0.2-6.6,0.6-11.7,0.6-18.3c0.2-5.7,0.3-12.3-0.1-18l0.4-0.4c-0.6-0.3,0.1-0.9-0.1-1.4
	c-0.1-5.4,0.1-11.1-0.2-16.5l-0.3-0.2c-5.6,2.3-12.7,1.5-17.8-1.2c-1.9-0.6-3.9-0.9-5.9-0.3c-3.6,1.2-7.4,4.4-9,8.2h-0.4
	c-0.1-2.6-0.5-5.3-0.2-7.7c3.7-4.8,9.3-6.9,15-5.4c5.1,1,10.5,4.3,15.6,1.8c2.9-1.3,6.2-2.7,8.4-5.4L179.5,85.4L179.5,85.4z"/>
<path class="st0" d="M189.4,91.7c-1.2,26-0.8,51.5-0.4,76.9c-10.6,0-21.8-1-32.5-1l-12.7,0.1c-1.7,1.5-3.5,2.7-5.4,3.6
	c-2.6,0-5.2,0.7-7.4-0.6v-0.1c-2.5-0.2-3.1-3.3-5.6-3v-0.1c-10.8,0.2-21.9,0.1-33.2,0.5c-0.3-0.4-0.8-0.2-1.2-0.3l-0.3,0.3h-12
	c0.7-5.4,0.2-10.9,0.9-16.1c0.3-17.7,0.3-35.5,0-53c-0.1-0.9-0.3-2.4-0.3-3.5c1.5,0.1,2.4,1.1,4,1.2l1.9,1.1
	c-0.2,6.4,0,13.7-0.4,19.9c0.4,0.2-0.1-0.2,0,0l0,0c-0.4,14.4-0.2,29.8-0.1,44.4l0.5,0.3c14.5,0.3,29.4,0.5,44.6,0.4
	c1.6,1.7,4.1,3.5,6.6,2.4c1.5-0.3,3.2-0.9,3.8-2.4c13.2-0.3,26-1,39.1-0.4c1.3-0.3,2.7,0.2,3.8-0.4c1.3-22.6,1.3-44.4,0.3-66.9
	c1.6-1.1,3.7-1.9,5-3.3L189.4,91.7L189.4,91.7z"/>
<path class="st1" d="M257.6,92.6c-4.8,2.9-10.1,5-15.1,7.5c-1-1.3-1.5-2.9-2.1-4.4c-1.4-0.8-0.7-2.4-1.7-3.3
	C244.9,92.3,251.7,92.6,257.6,92.6z"/>
<path class="st1" d="M36.1,96.9c1.4,2.2,1.1,5.3-0.2,7.4c-0.2,0.5-0.3,1-0.6,1.5c-2.9-1.1-5.9-1.9-8.7-3.5c1.2-2.7,2.2-7,5.9-7.2
	C33.9,95.4,35.3,95.9,36.1,96.9z"/>
<path class="st0" d="M255.7,118.7c0.3,0.1,0.1,0.8,0.6,0.7c0.8,1.5,1.2,4.1-0.1,5.5c-0.9,1.2-1.8,1.7-3.3,1.9
	c-0.3-0.6-1.3,0.2-1.5-0.6c-0.9-0.3-2.1-1-2.2-2.1c-0.9-0.7-0.2-2.2-0.1-3.2c0.5-0.9,0.7-1.9,1.8-2.4c0.2,0.1,0.5,0,0.6-0.2
	c1,0.1,2.4-1.2,3.2,0.1L255.7,118.7z"/>
<path class="st0" d="M20.6,121.1c-0.1,1.3,0.8,2.4,0.2,3.7c-0.6,1.1-1.2,2.1-2.4,2.5c-1.6,0-3.4,0.6-4.5-0.7
	c-0.3-0.3-0.1-0.9-0.7-0.9c-0.2-1.2-1.1-2.3-0.6-3.7c0.4-2.1,2.3-2.7,4-3.3C18.1,119,20.2,119.2,20.6,121.1z"/>
<path class="st0" d="M259.3,139.5c3.7-0.1,7.7,0,10.9-1.5h0.9c0.3,2.4-0.5,4.7-0.8,7.1c-2.8-0.9-6.2-1.4-9.3-1
	c-0.7,0.6-0.1,1.8-0.5,2.5c-0.4,2.8-0.2,5.4-0.2,8.3c3.1,1.4,6.1,3.5,9.6,4.7c1.3-0.7,0.7,1.2,2,0.7c-0.2,1.3-1.6,2.1-2.3,3.2
	c-0.9,0.5-0.7,2.1-1.9,1.8c-1.3-0.8-1.7-2.4-3-3c-3-2.1-6.2-3.4-9.2-5.5c-4.1-2.7-8.7-5.7-13.2-7.5c-1.2-1-2.7-1.7-4-2.4l-0.2,0.2
	c-0.4,3.6,0,7.6,1.4,10.7c-1.7-0.1-3.2-0.8-4.9-0.9c1.2-4.4-0.3-9.5,0.4-14.1c-0.1-1.7-0.5-3.4-0.2-5.2
	C242.6,139.4,251.1,138.7,259.3,139.5z"/>
<path class="st0" d="M36.2,139.3c0.2,3.9,1.1,7.1,1.1,10.9c0.7,1.1,0.1,2.7,1,3.6c0,1.4,0.7,2.4,0.7,3.7c-0.1,0-0.3,0-0.4,0.2v0.2
	c-2,0.1-4,0.3-6.2,0.2c0.4-1.2,1.2-2.4,1.2-3.9c0.3-3.2-0.6-6.4-0.8-9.3c-8.7,0.5-17.9,1-26.4,2.3c-1.8,0.7-3.7,0.9-5.3,1.8
	c0.1-2.6-0.8-4.7-0.6-7.4c10.2,1.2,19.7-1.1,29.7-1.7c1.6-0.5,3.4-0.8,4.8-1.7C35.6,136.8,36.1,138.8,36.2,139.3z"/>
<path class="st1" d="M256.3,143.7c-0.3,2.8,0.2,5.7-0.5,8.4c-3.3-1.4-6.2-3.1-9.3-5.1c-1.9-0.9-3.6-2.6-5.7-3.5
	C245.7,143.4,251.4,143.7,256.3,143.7z"/>
<path class="st0" d="M39.2,159.9c0.9,5.1,3,9.9,1.5,15.3c-1,2-2.4,3.8-4.7,4.3c-4,1.1-7.3-1-9.2-3.7c0-0.2,0-0.3-0.2-0.4
	c-0.3-0.4-0.6-1-1.3-1.5c-0.2-1.4-1.1-2.4-1.8-3.5c-5.6,1.5-11.5,2.6-16.9,4.7c-0.5,0.3-0.6,1-1.3,0.8c-0.9-1.9-0.7-4.3-1.2-6.4
	c11.5-1.2,22.4-4,32.9-7.8c0.6-0.4,1.9-0.6,1.8-1.8H39.2z"/>
<path class="st0" d="M233.9,160.9c3.8,1.9,7.5,4,11.5,5.3v0.1c5.5,2,11,4.2,16.5,6c1.1-0.7,1-2.3,1.5-3.4c0.3-0.2,0.6-0.4,1.1-0.3
	c1.7,1.4,3.9,2.1,6.2,2.6c0.9,0,0.3,1,0.5,1.5c-0.8,0.9-0.5,2.4-0.7,3.7c-1.1-0.2-1.8-1.2-2.9-1.3c-0.4-0.4-0.9-0.4-1.3-0.5
	c-1.4,3.1-2.7,6.2-3.9,9.3c0,1.8-1,3.5-1.5,5.1c-0.2,1.4-0.7,2.6-1,3.9c1.1,1.2,4.2,0.4,3.5,2.7c-0.7,1.1-0.5,3.4-2.1,3.5
	c-0.4-1.1-1.7-0.9-2.6-1.5c-1.4-0.8-3.3-0.8-4.8-1.4c0.1-1,0.7-2.3,0.8-3.6c-5.1-2.1-9.5-5.7-15.1-7c-1.9-0.9-4-1.9-6.2-2.5
	c-1.3-0.3-2.6-0.8-4.1-1c-1.5-0.1-3.1-1.3-4.5-0.3c-0.5-1.4,0.7-2.7,1.2-4c2.1-4.9,3.9-10.2,5.8-15.2l0.2-1.6c0.6,0,0.1-0.7,0.4-0.9
	C233.2,159.9,233.3,160.7,233.9,160.9z"/>
<path class="st1" d="M260.1,176.6c-0.6,1.5-0.6,3.3-1.2,4.8c-0.9,1.6-1.6,3.7-2.2,5.7c-7.5-2.7-15-5.8-22.7-8.1v-0.1l-3.2-1.3
	c0.9-3.6,2.2-7.1,3.2-10.8C242.7,170,251.4,173.3,260.1,176.6z"/>
<path class="st1" d="M36.8,168.9c0.3,1.3,0.5,2.8,0.2,4.1c-1,1.5-3,2-4.8,1.6c-2-0.6-2-2.6-3.3-3.9c0.1-0.5-0.1-0.8-0.2-1.3
	c2.6-0.5,5.1-1.1,7.8-1.5L36.8,168.9z"/>
<path class="st0" d="M123,173.5c3.6,2.1,6.7,5.7,11.6,5.6c3-0.2,6-1.1,7.8-3.3c0.7-0.7,1.9-1,2.7-1.6c8.5-0.9,16.5-0.2,25.3-0.1
	c-0.6,5.1-0.8,10.3-1.1,15.5c-3.3,0-7.7-2.4-10.1,0.9c-3.6,4.7-5,10-7.5,14.9c-1.2,1.9-3.2,3.4-4.7,4.7c-4,1.7-8.7,1.6-13.3,1.9
	c-6.3-0.3-15.5,1.6-18-5.7c-0.9-2-2-4.2-2.8-6.3c-1.5-3.1-2.6-7-4.7-9.7c-3.4-2.4-8.5-0.4-12.3-1.2v-0.4h0.2
	c-0.2-5.1-0.5-10.4-1.1-15.6C104.6,173.8,113.6,172.8,123,173.5z"/>
<path class="st1" d="M123.8,180.3c2.4,1.7,5.3,3.1,8.3,3.9c3.1,0.1,7.1,0.6,9.4-1.5c2.2-1,4-2.5,6.2-3.2c5.7-0.6,11.5-0.3,16.9-0.2
	l-0.2,4.3c-4.3,0.5-9.2-1.1-13.1,0.9c-1.3-0.1-2,1-3.2,1.1c-1,0.7-2.4,1.6-3.7,1.9c-2.2,1.1-4.3,1.8-6.8,2.3c-0.3,0.3-1.2,0-1.6,0.3
	c-5.1,0.6-9.4-1.7-13.4-3.6c-0.3-0.8-1.7-0.4-1.9-1.4c-0.6,0.3-1.2,0.1-1.7-0.2c0.1-0.2,0-0.4-0.2-0.4c-0.6,0.3-0.7,0.1-1.4,0.2
	c-0.2-0.1-0.7-0.6-1.2-0.4c-5.1-1-10.1-0.6-15.3-0.7l-0.1-4.8c6.6-0.7,13.3-0.8,19.4-0.4C121.5,179,123,179,123.8,180.3z"/>
<path class="st0" d="M47,181.7c-0.2,1,1,1.2,0.9,2.2c1.3,2.2,2.3,3.8,3,6.3c1,1.1,2.6,2.8,3,4.5c1.1,0.3,0.8,1.7,2,2
	c0.3,0.6-0.5,0.3-0.7,0.7c-0.8-0.1-1.5,0.3-2.2,0.6c-8.8,4.6-18,10.2-26.5,15.9c-0.5,0.2-0.9,1-1.4,0.9c-1.4-2-2.7-3.8-3.3-5.9
	c3.3-1,6.2-2.8,9.2-4.4c-0.3-1.3-1.6-1.9-1.6-3.3c-0.9-1.7-1.5-3.4-2.6-5.1c-4.3,0.4-8.6,0.6-12.8,1.2c-0.4-1.8-1.9-3.4-2.4-5.3
	c9,0.8,20.1,0.6,29.3-0.4c2.3-0.5,4.9-0.3,7.1-1.1c-0.6-1.1-1.6-2.1-2.3-3.2c-0.8-1.7-2.6-2.9-3.1-4.8c-0.3,0-0.6-0.3-0.5-0.7
	c1.5-0.4,2.8-1.6,4.2-1.8C46.6,180.5,46.3,181.3,47,181.7z"/>
<path class="st0" d="M224.3,186c1.6,2.1,4,3.5,5.9,5.4c6.3,4.2,12.7,10,20.1,13.3c0.3,0.3,0.9,0.7,0.7,1.3c-0.8,0.8-1.1,1.8-1.8,2.5
	c0.3,1.1-0.8,1.3-0.8,2.2c-1.2,0.5-1.1-0.9-2.1-1.2c-2.1-2.1-4.7-4.1-6.9-6c-2,1.8-2.8,4.1-4.6,6.1c-0.4,0.6-0.6,1.5-0.7,1.9
	c2,3.7,3.7,7.4,5.9,11c0.1,0.5-0.2,0.8-0.7,0.7c-1.2,1.5-3,1.7-3.6,3.6h-0.6c-1.4-6-3.8-11.5-6.4-17.2c-2.5-5.2-5.1-10.8-8.5-15.6
	c-0.9,0.5-0.7,1.7-1.6,2.3c-0.6,0.9-1.3,1.8-1.9,2.8c-0.8,1.3-1.3,2.4-2.3,3.6c-1.4,0.1-1-1.5-2.2-2.1c-1.2-1,0.7-1.9,0.9-3l0.7-0.3
	c3.1-3.4,4.9-7.6,8.1-11.1c0.6-0.3,0.1-1.8,1.3-1.3C223.3,185.6,223.9,185.6,224.3,186z"/>
<path class="st1" d="M119,190.5c0.7,0.5,1.6,0.7,2.3,1c2.1,0.9,4.2,2,6.1,3.1c7.4,3.3,16.7,1,22.7-3.6c0.9-0.1,1.9-0.7,2.8-1.1
	c-0.4,1.3-1.6,2.8-1.8,4.4c-0.6,1-1.1,2.4-1.6,3.6c-2,4.4-5.5,8.1-10.7,8.5l-0.2,0.2c-4.2,0.7-8.3,0.2-12.6,0
	c-3.5-0.6-5.1-3.1-7-5.9c-1.6-3.5-2.5-7.5-4.5-10.9C116.1,189.8,117.5,190.3,119,190.5z"/>
<path class="st1" d="M236.6,201.6c-0.9,2.5-2.2,4.5-4,6.3c-2.8-5-5.4-9.9-8.2-15C228.2,195.9,232.9,198.6,236.6,201.6z"/>
<path class="st1" d="M47.6,195.5c-4.3,2.4-9.2,4.9-13.8,7.4c-1.4-2.2-2-4.7-3.6-7C36.2,195.8,41.7,195.3,47.6,195.5z"/>
<path class="st0" d="M59.6,200.9c1.1,1.5,2.9,2.7,3.6,4.2c1.5,0.5,1.4,2.3,3,2.7c0.4,1.2,1.9,1.3,2,2.7c1.4,0.3,0.9,2.2,2.5,2.2
	c1.3,1.2,2.8,2.7,4.1,3.6c0.1,1.3-1.5,1.1-2.2,1.8c-5.1,3.6-10.2,7.8-14.5,12c-2.8,2.2-5.4,4.6-8.2,7c0.3,1.2,1.7,1.5,2.1,2.5
	c0.5,0.2,1.1,0.6,0.7,1.2c-2.2,1.3-4.1,2.2-5.8,4c-1.6,0.1-2.4-1.8-3.6-2.7c0.5-1.2,1.7-1.6,2.7-2.4c0.7-0.5-0.5-0.9-0.4-1.5
	c-1.3-0.2-1.2-1.8-2.4-2.3c-2.2-2.6-4.7-5.1-7.4-7.4c-1-1.2-1.7-2.4-3-3c-1.2,0.3-2,1.9-3,2.2c-0.7-1-2.4-2.2-3.2-3
	c0.6-0.9,1.9-1.5,2.4-2.6c1.3-0.9,2.3-1.9,3.3-3.1h0.6c0.5,0.7,1.3,1.4,1.7,2.3c0.3,0.2,0.6,0.4,1,0.3c6-5.5,13.7-10.2,19-16.4
	c1.4-1.5,3.1-2.7,3.8-4.7l-0.2-0.7C59.2,199.3,59.2,200.5,59.6,200.9z"/>
<path class="st0" d="M215.6,208.9c1.1,2.2,1.7,5.4,0.2,7.6c-0.5,1.8-1.4,3.5-2.6,5c-0.6,0.6-1.6,1.4-0.7,2.3
	c3.4,4.4,6.6,9.3,11.4,12.7c0.3,0.5,0.8,0.9,0.6,1.6c-1.7,1-3.3,2.5-4.8,3.9h-0.5c0.2-1.5-0.8-2.5-1.4-3.7
	c-5.7-7.6-12.1-15.6-18.7-22.9c-0.9-0.5-1.2-1.6-2.4-1.3c-0.2-1.4,1.7-1,2-2.1c4.1-2.7,7.3-7.3,13-6.2
	C213.2,206.6,214.9,207.2,215.6,208.9z"/>
<path class="st1" d="M63,209.5c1.1,1.5,2.2,2.3,3.5,3.8l1.4,1.7c-6.3,5.9-13.6,12.3-20.3,17.7c-0.4,0.2-0.9,0.7-1.2,0.1
	c-2.2-2.8-5.1-5-7.3-7.6c7.6-5.8,13.9-12.1,21.3-18.1C61.8,207.6,61.5,209.1,63,209.5z"/>
<path class="st1" d="M211.8,211.7c0.7,1.1,0.8,2.9,0.4,4.3c-0.8,1.3-1.8,2.7-2.8,3.8c-1.8-2.4-3.8-4.4-5.4-7.2
	c1.5-1,3.4-1.4,4.7-2.4C210,210,211.3,210.5,211.8,211.7z"/>
<path class="st0" d="M194.3,217.4c0.3,1.5,2.1,2.5,2.3,4.2c-4.3,0.2-8.3,1.6-11.2,4.3c-0.8,0.1-1,0.9-1.6,1.1
	c5.1,9,10.2,18.5,17.2,26.1h0.2c0.1,0.9-0.9,1.6-1.6,1.9c-1.4,0.5-2.7,1.7-3.9,2.6c-1.2,0.2-0.5-1.5-1.1-2.1
	c-3.5-8-8.8-15.2-13.2-22.7c-1.4-1.7-3-3.7-4.8-4.8c-0.3-1.3,1.6-1.1,2.2-2.1c3.7-1.9,7.9-4.2,11.2-6.7c0.7-1,2-1.6,2.7-2.9
	C193.9,215.9,193.4,217.1,194.3,217.4z"/>
<path class="st0" d="M87.2,224c1.4,0.9,2.9,1.4,4,2.5c2.1,0.5,3.4,2.5,5.5,2.6c0.2,0.2,0.1,0.4,0.1,0.7c-2.9,1.4-4.3,4.5-5.8,7.2
	c-3.9,6.7-8.7,13.9-11.2,21.7c0.1,0.6-0.3,1.1-0.1,1.7H79c0-0.2-0.1-0.5,0.1-0.6c-0.2-0.5-0.7-0.2-1-0.3c-0.2,0.1,0,0.4-0.2,0.3
	c-1.4-0.5-2.6-1.5-4.1-1.8c-0.1-0.4-1-0.4-0.7-1.1c2.5-2.8,4.2-5.4,6.1-8.5c-3.1-1.5-6.1-2.7-9.2-4.3c-3.2,2.3-6.7,4.4-9.4,7.2
	c-1.1-0.6-2.3-2-3.4-2.7c-0.4-0.9-1.8-0.8-1.8-2.1c2.3-0.2,4.7-1,6.2-2.3c1.4-0.5,2.2-1.6,3.6-2.2c4.4-2.6,8.4-5.3,12.7-8.1
	c3.2-1.9,5.8-4.6,9.1-6.3c-1.4-1.1-3.5-1.7-5.5-1.8c-1.1-0.9-2.9-0.3-3.9-1.2c-0.7-0.6-2.7,0.4-2.2-1.3c1.2-0.8,2.1-2,3.1-3.2v-0.8
	C81.4,220.9,84,222.9,87.2,224z"/>
<path class="st0" d="M177.8,239.1c2.8,5.5,4.7,12,4,18.8c-0.9,2.9-2.2,6.3-5,7.4c-0.2,0.9-1.3,0.3-1.6,1c-1.1,0.3-2.5,0.6-3.8,0.3
	v-0.1c-6.6-1.4-10.4-7.9-12.3-13.6c-1.4-4.8-3-11.1-0.5-15.9c0.5-2.3,2.2-3.7,3.8-5.3c0.4,0.2,0.3-0.3,0.7-0.5
	c2.2-1.1,5.5-1.9,7.9-0.3C173.6,232.7,176.8,235.8,177.8,239.1z"/>
<path class="st1" d="M86.3,235.7l-5.2,9.1c-2.7-0.6-5.6-1.5-7.9-3.4c5.5-3.8,9.6-7.8,15.7-10.7C88.5,232.3,87,234.1,86.3,235.7z"/>
<path class="st0" d="M151.2,234.1c-0.1,1.5,0.2,3.2,0,4.7c-0.7,0.2-1-0.3-1.6-0.5c-3.9,0.9-7.2,4.5-8.4,8.4c0,1.2-0.5,2.3-0.4,3.5
	c2.1,0.6,4.2-0.4,6.4-0.3c1.1-0.4,2.2-0.9,3.2-1.6l0.8,0.1c-0.4,2.2,0.1,4.3,0.5,6.3c-3.3-1.2-7.1-0.2-10.3,0.5
	c-0.4,3.7,1.2,6.5,3.2,9.4c0.7,0.8,1.6,0.9,2.4,1.3c1.5,0.8,3.4,0.1,4.9,0.1c0.5-0.2,0.9-0.7,1.6-0.5l0.7,4.7
	c-3.5,1.5-7.7,0.7-11-0.6c-1.6-0.8-2.7-2.5-4-3.3c-3-4.4-3.4-10.5-3.2-16c0.7-5.1,2.1-10.5,6.4-13.6c2.5-1.6,5-3.2,8.2-3.2
	L151.2,234.1z"/>
<path class="st0" d="M120,235.1c3.5-0.2,7,0.6,10.8,0.8c0.7,0.5,1.9-1,2.2,0.4c-0.7,1.9-0.8,4-1.4,6c-0.7-0.1-0.9-1.1-1.5-1.6
	c-3.3-1.1-6.9-2.4-10.7-1.7c-0.7,4.4-0.9,9.1-1.7,13.3c0.4,0.3,0.9,0.1,1.3,0.2v0.1c5,0.8,10.1,2.9,11.4,8.1
	c1.1,2.6,0.1,5.8-1.6,7.6c-5.6,5.1-13.1,1.4-19.8,1.3c-0.6-0.9,0.3-1.5,0.6-2.3c3.4-7.8,2.6-17.5,4.8-25.9c0-2.8-1-5.2-1.5-7.7
	C115.3,234.2,117.8,234.3,120,235.1z"/>
<path class="st1" d="M173.4,241.3c2.1,5.4,4.7,12.2,1.9,18c-1.1,1.2-2.6,2.3-4.5,1.7c-1.4-1.2-3.3-2.5-4.1-4.2
	c-2.5-4.7-4.7-10.1-4.1-15.7c1.1-2.2,1.1-5.5,4.4-5.2c0.1-0.4,0.8-0.2,1.1-0.2C170.3,236.7,172.4,239,173.4,241.3z"/>
<path class="st1" d="M124.3,259.2c0.8,1.1,1,2.5,0.9,3.8c-0.7,1.4-1.3,2.9-2.9,3.5c-1.9,0.5-4.5,0.6-6.3-0.1c0.3-0.9-0.1-2,0.4-2.8
	c-0.1-2.1,0-4.7,1-6.3C119.8,257.5,122.8,257.2,124.3,259.2z"/>
</svg>
