<?xml version="1.0" encoding="utf-8"?>
<!-- Generator: Adobe Illustrator 23.0.1, SVG Export Plug-In . SVG Version: 6.00 Build 0)  -->
<svg version="1.1" id="Layer_1" xmlns="http://www.w3.org/2000/svg" xmlns:xlink="http://www.w3.org/1999/xlink" x="0px" y="0px"
	 viewBox="0 0 48 48" style="enable-background:new 0 0 48 48;" xml:space="preserve">
<style type="text/css">
	.st0{fill:none;stroke:#000000;stroke-width:2;stroke-miterlimit:10;}
</style>
<circle class="st0" cx="24" cy="24" r="23"/>
<path d="M33.3,18.2c1,1.6,1.4,3.4,1.4,5.4c0,1.9-0.5,3.7-1.4,5.4c-1,1.6-2.3,2.9-3.9,3.9c-1.6,1-3.4,1.4-5.4,1.4
	c-1.9,0-3.7-0.5-5.4-1.4c-1.6-1-2.9-2.3-3.9-3.9c-1-1.6-1.4-3.4-1.4-5.4c0-1.9,0.5-3.7,1.4-5.4c1-1.6,2.3-2.9,3.9-3.9
	c1.6-1,3.4-1.4,5.4-1.4c1.9,0,3.7,0.5,5.4,1.4C31,15.3,32.3,16.6,33.3,18.2z M30.6,27.4c0.7-1.2,1-2.4,1-3.8c0-1.4-0.3-2.6-1-3.8
	c-0.7-1.2-1.6-2.1-2.8-2.8c-1.2-0.7-2.4-1-3.8-1c-1.4,0-2.6,0.3-3.8,1c-1.2,0.7-2.1,1.6-2.8,2.8c-0.7,1.2-1,2.4-1,3.8
	c0,1.4,0.3,2.6,1,3.8c0.7,1.2,1.6,2.1,2.8,2.8c1.2,0.7,2.4,1,3.8,1c1.4,0,2.6-0.3,3.8-1C29,29.5,29.9,28.6,30.6,27.4z M25.8,18.7V25
	c0,0.1,0,0.2-0.1,0.3c-0.1,0.1-0.2,0.1-0.3,0.1h-4.5c-0.1,0-0.2,0-0.3-0.1c-0.1-0.1-0.1-0.2-0.1-0.3v-0.9c0-0.1,0-0.2,0.1-0.3
	c0.1-0.1,0.2-0.1,0.3-0.1H24v-4.9c0-0.1,0-0.2,0.1-0.3c0.1-0.1,0.2-0.1,0.3-0.1h0.9c0.1,0,0.2,0,0.3,0.1
	C25.7,18.5,25.8,18.6,25.8,18.7z"/>
</svg>
