<?xml version="1.0" encoding="utf-8"?>
<!-- Generator: Adobe Illustrator 16.0.0, SVG Export Plug-In . SVG Version: 6.00 Build 0)  -->
<!DOCTYPE svg PUBLIC "-//W3C//DTD SVG 1.1//EN" "http://www.w3.org/Graphics/SVG/1.1/DTD/svg11.dtd">
<svg version="1.1" id="Layer_1" xmlns="http://www.w3.org/2000/svg" xmlns:xlink="http://www.w3.org/1999/xlink" x="0px" y="0px"
	 width="53.711px" height="52.5px" viewBox="0 0 53.711 52.5" enable-background="new 0 0 53.711 52.5" xml:space="preserve">
<circle fill="none" stroke="#F26475" stroke-miterlimit="10" cx="26.855" cy="26.25" r="23"/>
<g>
	<path fill="#646464" d="M39.24,19.059c1.331,2.131,1.864,4.528,1.864,7.191c0,2.53-0.666,4.927-1.864,7.19
		c-1.332,2.132-3.062,3.861-5.193,5.193s-4.527,1.865-7.191,1.865c-2.53,0-4.928-0.666-7.191-1.865
		c-2.13-1.332-3.861-3.062-5.192-5.193c-1.332-2.13-1.865-4.527-1.865-7.19c0-2.53,0.666-4.927,1.865-7.191
		c1.331-2.13,3.062-3.861,5.192-5.192c2.131-1.333,4.528-1.865,7.191-1.865c2.53,0,4.927,0.666,7.191,1.865
		C36.178,15.197,37.908,16.929,39.24,19.059z M35.645,31.311c0.932-1.599,1.331-3.196,1.331-5.061s-0.399-3.463-1.331-5.061
		s-2.131-2.797-3.729-3.729s-3.197-1.332-5.061-1.332c-1.865,0-3.463,0.4-5.061,1.332s-2.797,2.131-3.729,3.729
		s-1.332,3.196-1.332,5.061s0.4,3.462,1.332,5.061c0.932,1.598,2.131,2.797,3.729,3.729s3.195,1.331,5.061,1.331
		c1.863,0,3.463-0.399,5.061-1.331S34.713,32.908,35.645,31.311z"/>
	<circle fill="#FFFFFF" cx="26.855" cy="26.25" r="11.854"/>
	<path fill="#646464" d="M28.431,19.357v8.39c0,0.133,0,0.267-0.134,0.4c-0.133,0.133-0.266,0.133-0.399,0.133h-5.993
		c-0.133,0-0.267,0-0.398-0.133c-0.133-0.134-0.133-0.268-0.133-0.4v-1.198c0-0.134,0-0.267,0.133-0.399
		c0.132-0.134,0.266-0.134,0.398-0.134h4.128v-6.524c0-0.134,0-0.267,0.134-0.4c0.133-0.133,0.267-0.133,0.4-0.133h1.197
		c0.134,0,0.268,0,0.4,0.133C28.297,19.091,28.431,19.225,28.431,19.357z"/>
</g>
</svg>
