<?xml version="1.0" encoding="utf-8"?>
<!-- Generator: Adobe Illustrator 16.0.0, SVG Export Plug-In . SVG Version: 6.00 Build 0)  -->
<!DOCTYPE svg PUBLIC "-//W3C//DTD SVG 1.1//EN" "http://www.w3.org/Graphics/SVG/1.1/DTD/svg11.dtd">
<svg version="1.1" id="Layer_1" xmlns="http://www.w3.org/2000/svg" xmlns:xlink="http://www.w3.org/1999/xlink" x="0px" y="0px"
	 width="66px" height="66px" viewBox="0 0 66 66" enable-background="new 0 0 66 66" xml:space="preserve">
<path fill="none" stroke="#FF6666" stroke-width="1.5" stroke-miterlimit="10" d="M52.122,10.372
	c12.496,10.561,14.066,29.252,3.506,41.749S26.376,66.188,13.88,55.628C1.382,45.067-0.188,26.376,10.372,13.879
	S39.624-0.188,52.122,10.372"/>
<g>
	<path fill="#FFFFFF" stroke="#000000" stroke-miterlimit="10" d="M43.531,47.096H22.469c-1.947,0-3.525-1.577-3.525-3.524V25.483
		c0-1.946,1.578-3.524,3.525-3.524h21.062c1.947,0,3.525,1.578,3.525,3.524v18.089C47.057,45.519,45.479,47.096,43.531,47.096"/>
	<path fill="none" stroke="#000000" stroke-linecap="round" stroke-linejoin="round" stroke-miterlimit="10" d="M43.531,47.096
		H22.469c-1.947,0-3.525-1.577-3.525-3.524V25.483c0-1.946,1.578-3.524,3.525-3.524h21.062c1.947,0,3.525,1.578,3.525,3.524v18.089
		C47.057,45.519,45.479,47.096,43.531,47.096z"/>
	<line fill="#FFFFFF" stroke="#000000" stroke-miterlimit="10" x1="19.061" y1="29.405" x2="46.939" y2="29.405"/>
	
		<line fill="none" stroke="#000000" stroke-linecap="round" stroke-linejoin="round" stroke-miterlimit="10" x1="19.061" y1="29.405" x2="46.939" y2="29.405"/>
	<rect x="24.268" y="18.904" fill="#FFFFFF" stroke="#000000" stroke-miterlimit="10" width="2.713" height="6.003"/>
	
		<rect x="24.268" y="18.904" fill="none" stroke="#000000" stroke-linecap="round" stroke-linejoin="round" stroke-miterlimit="10" width="2.713" height="6.003"/>
	<rect x="31.645" y="18.904" fill="#FFFFFF" stroke="#000000" stroke-miterlimit="10" width="2.713" height="6.003"/>
	
		<rect x="31.645" y="18.904" fill="none" stroke="#000000" stroke-linecap="round" stroke-linejoin="round" stroke-miterlimit="10" width="2.713" height="6.003"/>
	<rect x="38.693" y="18.904" fill="#FFFFFF" stroke="#000000" stroke-miterlimit="10" width="2.711" height="6.003"/>
	
		<rect x="38.693" y="18.904" fill="none" stroke="#000000" stroke-linecap="round" stroke-linejoin="round" stroke-miterlimit="10" width="2.711" height="6.003"/>
	<path fill="#FFFFFF" stroke="#000000" stroke-miterlimit="10" d="M35.826,41.815l-2.525-1.432c-0.143-0.082-0.322-0.08-0.463,0.007
		l-2.48,1.506c-0.342,0.208-0.768-0.092-0.688-0.483l0.582-2.843c0.033-0.163-0.025-0.331-0.15-0.44l-2.199-1.893
		c-0.303-0.262-0.148-0.759,0.248-0.803l2.883-0.326c0.166-0.019,0.309-0.125,0.373-0.278l1.121-2.677
		c0.154-0.369,0.674-0.376,0.84-0.012l1.201,2.641c0.068,0.152,0.213,0.254,0.379,0.268l2.893,0.239
		c0.396,0.033,0.566,0.525,0.271,0.796l-2.141,1.958c-0.125,0.111-0.176,0.281-0.139,0.444l0.666,2.823
		C36.592,41.7,36.174,42.011,35.826,41.815"/>
	<path fill="none" stroke="#000000" stroke-linecap="round" stroke-linejoin="round" stroke-miterlimit="10" d="M35.826,41.815
		l-2.525-1.432c-0.143-0.082-0.322-0.08-0.463,0.007l-2.48,1.506c-0.342,0.208-0.768-0.092-0.688-0.483l0.582-2.843
		c0.033-0.163-0.025-0.331-0.15-0.44l-2.199-1.893c-0.303-0.262-0.148-0.759,0.248-0.803l2.883-0.326
		c0.166-0.019,0.309-0.125,0.373-0.278l1.121-2.677c0.154-0.369,0.674-0.376,0.84-0.012l1.201,2.641
		c0.068,0.152,0.213,0.254,0.379,0.268l2.893,0.239c0.396,0.033,0.566,0.525,0.271,0.796l-2.141,1.958
		c-0.125,0.111-0.176,0.281-0.139,0.444l0.666,2.823C36.592,41.7,36.174,42.011,35.826,41.815z"/>
</g>
</svg>
