<?xml version="1.0" encoding="utf-8"?>
<!-- Generator: Adobe Illustrator 16.0.0, SVG Export Plug-In . SVG Version: 6.00 Build 0)  -->
<!DOCTYPE svg PUBLIC "-//W3C//DTD SVG 1.1//EN" "http://www.w3.org/Graphics/SVG/1.1/DTD/svg11.dtd">
<svg version="1.1" id="Layer_1" xmlns="http://www.w3.org/2000/svg" xmlns:xlink="http://www.w3.org/1999/xlink" x="0px" y="0px"
	 width="53.711px" height="52.5px" viewBox="0 0 53.711 52.5" enable-background="new 0 0 53.711 52.5" xml:space="preserve">
<circle fill="none" stroke="#F26475" stroke-miterlimit="10" cx="26.855" cy="26.25" r="23"/>
<g>
	<path fill="#646464" d="M38.855,18.964v14.572c0,0.59-0.209,1.094-0.629,1.514c-0.42,0.418-0.924,0.629-1.514,0.629H16.999
		c-0.589,0-1.094-0.211-1.513-0.629c-0.421-0.42-0.631-0.924-0.631-1.514V18.964c0-0.588,0.21-1.094,0.631-1.514
		c0.419-0.418,0.924-0.629,1.513-0.629h19.714c0.59,0,1.094,0.211,1.514,0.629C38.646,17.872,38.855,18.376,38.855,18.964z
		 M37.143,19.46c0-0.019,0-0.066,0-0.146c0-0.081,0-0.141,0-0.182s-0.004-0.098-0.008-0.174c-0.006-0.076-0.02-0.133-0.039-0.168
		c-0.023-0.035-0.047-0.076-0.074-0.121c-0.027-0.043-0.066-0.078-0.121-0.1c-0.053-0.021-0.115-0.033-0.188-0.033H16.999
		c-0.116,0-0.217,0.043-0.301,0.127c-0.085,0.084-0.128,0.186-0.128,0.301c0,1.5,0.655,2.769,1.969,3.805
		c1.724,1.357,3.514,2.771,5.371,4.246c0.053,0.045,0.209,0.176,0.469,0.395c0.259,0.219,0.464,0.387,0.615,0.502
		c0.151,0.117,0.351,0.258,0.597,0.422c0.245,0.166,0.471,0.289,0.677,0.369c0.205,0.08,0.396,0.121,0.575,0.121h0.014h0.015
		c0.178,0,0.369-0.041,0.575-0.121c0.205-0.08,0.43-0.203,0.676-0.369c0.246-0.164,0.445-0.305,0.598-0.422
		c0.15-0.115,0.355-0.283,0.615-0.502s0.414-0.35,0.469-0.395c1.857-1.475,3.646-2.889,5.371-4.246
		c0.48-0.385,0.932-0.898,1.346-1.547C36.936,20.573,37.143,19.987,37.143,19.46z M37.143,33.536V23.251
		c-0.287,0.32-0.596,0.615-0.926,0.883c-2.393,1.84-4.295,3.348-5.705,4.527c-0.455,0.383-0.826,0.684-1.111,0.896
		s-0.672,0.432-1.158,0.648c-0.486,0.219-0.943,0.328-1.372,0.328h-0.015h-0.014c-0.429,0-0.886-0.109-1.372-0.328
		c-0.487-0.219-0.873-0.436-1.159-0.648c-0.284-0.215-0.655-0.514-1.11-0.896c-1.411-1.18-3.312-2.688-5.705-4.527
		c-0.331-0.268-0.64-0.561-0.925-0.883v10.285c0,0.115,0.043,0.217,0.128,0.301c0.084,0.086,0.185,0.127,0.301,0.127h19.715
		c0.113,0,0.215-0.041,0.301-0.127C37.1,33.753,37.143,33.653,37.143,33.536z"/>
</g>
</svg>
