<?xml version="1.0" encoding="utf-8"?>
<!-- Generator: Adobe Illustrator 23.0.1, SVG Export Plug-In . SVG Version: 6.00 Build 0)  -->
<svg version="1.1" id="Layer_1" xmlns="http://www.w3.org/2000/svg" xmlns:xlink="http://www.w3.org/1999/xlink" x="0px" y="0px"
	 viewBox="0 0 47 47" style="enable-background:new 0 0 47 47;" xml:space="preserve">
<style type="text/css">
	.st0{fill:#FFFFFF;}
	.st1{fill:none;stroke:#FF6666;stroke-miterlimit:10;}
</style>
<path class="st0" d="M35.5,16.6v14.6c0,0.6-0.2,1.1-0.6,1.5c-0.4,0.4-0.9,0.6-1.5,0.6H13.6c-0.6,0-1.1-0.2-1.5-0.6
	c-0.4-0.4-0.6-0.9-0.6-1.5V16.6c0-0.6,0.2-1.1,0.6-1.5c0.4-0.4,0.9-0.6,1.5-0.6h19.7c0.6,0,1.1,0.2,1.5,0.6
	C35.3,15.5,35.5,16,35.5,16.6z M33.8,17.1c0,0,0-0.1,0-0.1c0-0.1,0-0.1,0-0.2c0,0,0-0.1,0-0.2c0-0.1,0-0.1,0-0.2c0,0,0-0.1-0.1-0.1
	c0,0-0.1-0.1-0.1-0.1c-0.1,0-0.1,0-0.2,0H13.6c-0.1,0-0.2,0-0.3,0.1c-0.1,0.1-0.1,0.2-0.1,0.3c0,1.5,0.7,2.8,2,3.8
	c1.7,1.4,3.5,2.8,5.4,4.2c0.1,0,0.2,0.2,0.5,0.4c0.3,0.2,0.5,0.4,0.6,0.5c0.2,0.1,0.3,0.3,0.6,0.4c0.2,0.2,0.5,0.3,0.7,0.4
	c0.2,0.1,0.4,0.1,0.6,0.1h0h0c0.2,0,0.4,0,0.6-0.1c0.2-0.1,0.4-0.2,0.7-0.4c0.2-0.2,0.4-0.3,0.6-0.4c0.2-0.1,0.4-0.3,0.6-0.5
	c0.3-0.2,0.4-0.4,0.5-0.4c1.9-1.5,3.6-2.9,5.4-4.2c0.5-0.4,0.9-0.9,1.3-1.5C33.6,18.2,33.8,17.6,33.8,17.1z M33.8,31.2V20.9
	c-0.3,0.3-0.6,0.6-0.9,0.9c-2.4,1.8-4.3,3.3-5.7,4.5c-0.5,0.4-0.8,0.7-1.1,0.9c-0.3,0.2-0.7,0.4-1.2,0.6c-0.5,0.2-0.9,0.3-1.4,0.3h0
	h0c-0.4,0-0.9-0.1-1.4-0.3c-0.5-0.2-0.9-0.4-1.2-0.6c-0.3-0.2-0.7-0.5-1.1-0.9c-1.4-1.2-3.3-2.7-5.7-4.5c-0.3-0.3-0.6-0.6-0.9-0.9
	v10.3c0,0.1,0,0.2,0.1,0.3c0.1,0.1,0.2,0.1,0.3,0.1h19.7c0.1,0,0.2,0,0.3-0.1C33.7,31.4,33.8,31.3,33.8,31.2z"/>
<circle class="st1" cx="23.5" cy="23.5" r="23"/>
</svg>
