<?xml version="1.0" encoding="utf-8"?>
<!-- Generator: Adobe Illustrator 16.0.0, SVG Export Plug-In . SVG Version: 6.00 Build 0)  -->
<!DOCTYPE svg PUBLIC "-//W3C//DTD SVG 1.1//EN" "http://www.w3.org/Graphics/SVG/1.1/DTD/svg11.dtd">
<svg version="1.1" id="Layer_1" xmlns="http://www.w3.org/2000/svg" xmlns:xlink="http://www.w3.org/1999/xlink" x="0px" y="0px"
	 width="53.711px" height="52.5px" viewBox="0 0 53.711 52.5" enable-background="new 0 0 53.711 52.5" xml:space="preserve">
<circle fill="none" stroke="#F26475" stroke-miterlimit="10" cx="26.408" cy="26.714" r="23"/>
<g>
	<path fill="#646464" d="M33.265,23.286c0,0.974-0.146,1.772-0.441,2.397l-4.875,10.366c-0.144,0.295-0.355,0.527-0.637,0.697
		C27.03,36.914,26.729,37,26.409,37c-0.322,0-0.624-0.086-0.905-0.254c-0.281-0.17-0.489-0.402-0.623-0.697l-4.888-10.366
		c-0.295-0.625-0.442-1.424-0.442-2.397c0-1.893,0.67-3.509,2.009-4.849c1.34-1.339,2.955-2.009,4.849-2.009
		c1.893,0,3.51,0.67,4.848,2.009C32.596,19.778,33.265,21.394,33.265,23.286z M28.833,25.71c0.67-0.669,1.004-1.478,1.004-2.424
		s-0.334-1.755-1.004-2.424c-0.67-0.67-1.479-1.005-2.424-1.005c-0.948,0-1.756,0.335-2.426,1.005
		c-0.669,0.67-1.004,1.478-1.004,2.424s0.335,1.755,1.004,2.424c0.67,0.67,1.478,1.005,2.426,1.005
		C27.354,26.715,28.163,26.38,28.833,25.71z"/>
</g>
</svg>
