<?xml version="1.0" encoding="utf-8"?>
<!-- Generator: Adobe Illustrator 16.0.0, SVG Export Plug-In . SVG Version: 6.00 Build 0)  -->
<!DOCTYPE svg PUBLIC "-//W3C//DTD SVG 1.1//EN" "http://www.w3.org/Graphics/SVG/1.1/DTD/svg11.dtd">
<svg version="1.1" id="Layer_1" xmlns="http://www.w3.org/2000/svg" xmlns:xlink="http://www.w3.org/1999/xlink" x="0px" y="0px"
	 width="66px" height="66px" viewBox="0 0 66 66" enable-background="new 0 0 66 66" xml:space="preserve">
<path fill="none" stroke="#FF6666" stroke-width="1.5" stroke-miterlimit="10" d="M52.121,10.372
	c12.497,10.56,14.067,29.252,3.506,41.749c-10.56,12.497-29.251,14.067-41.749,3.507C1.382,45.068-0.188,26.376,10.372,13.879
	S39.625-0.188,52.121,10.372"/>
<path fill="#FFFFFF" stroke="#000000" stroke-miterlimit="10" d="M46.029,33.457L26.458,44.333c-0.226,0.128-0.42,0.143-0.582,0.044
	c-0.162-0.098-0.243-0.275-0.243-0.53V22.153c0-0.255,0.081-0.433,0.243-0.53c0.162-0.099,0.356-0.084,0.582,0.044l19.571,10.876
	c0.226,0.128,0.339,0.28,0.339,0.457S46.255,33.329,46.029,33.457z"/>
</svg>
