<?xml version="1.0" encoding="utf-8"?>
<!-- Generator: Adobe Illustrator 16.0.0, SVG Export Plug-In . SVG Version: 6.00 Build 0)  -->
<!DOCTYPE svg PUBLIC "-//W3C//DTD SVG 1.1//EN" "http://www.w3.org/Graphics/SVG/1.1/DTD/svg11.dtd">
<svg version="1.1" id="Layer_1" xmlns="http://www.w3.org/2000/svg" xmlns:xlink="http://www.w3.org/1999/xlink" x="0px" y="0px"
	 width="53.711px" height="52.5px" viewBox="0 0 53.711 52.5" enable-background="new 0 0 53.711 52.5" xml:space="preserve">
<circle fill="none" stroke="#F26475" stroke-miterlimit="10" cx="26.855" cy="26.25" r="23"/>
<g>
	<path fill="#646464" d="M36.284,31.716c0,0.24-0.045,0.555-0.134,0.943c-0.091,0.389-0.185,0.693-0.281,0.918
		c-0.188,0.445-0.731,0.92-1.635,1.42c-0.839,0.455-1.669,0.682-2.49,0.682c-0.241,0-0.476-0.016-0.702-0.047
		c-0.229-0.031-0.486-0.086-0.771-0.166c-0.286-0.082-0.498-0.146-0.637-0.195s-0.387-0.141-0.744-0.273
		c-0.355-0.135-0.574-0.215-0.655-0.24c-0.875-0.312-1.656-0.686-2.345-1.113c-1.143-0.705-2.322-1.666-3.542-2.885
		c-1.219-1.219-2.181-2.4-2.886-3.543c-0.429-0.688-0.8-1.469-1.112-2.344c-0.025-0.081-0.105-0.301-0.24-0.656
		c-0.135-0.357-0.227-0.605-0.274-0.744c-0.049-0.138-0.113-0.35-0.194-0.636c-0.08-0.285-0.136-0.542-0.167-0.771
		c-0.03-0.228-0.047-0.462-0.047-0.703c0-0.82,0.229-1.65,0.684-2.489c0.5-0.902,0.974-1.447,1.42-1.636
		c0.224-0.098,0.528-0.19,0.918-0.28c0.388-0.089,0.703-0.135,0.942-0.135c0.125,0,0.22,0.015,0.281,0.04
		c0.161,0.055,0.397,0.395,0.71,1.02c0.1,0.17,0.232,0.41,0.402,0.723c0.169,0.312,0.325,0.598,0.469,0.852
		c0.144,0.255,0.281,0.492,0.415,0.717c0.026,0.036,0.104,0.146,0.234,0.335c0.129,0.188,0.226,0.346,0.288,0.476
		c0.062,0.129,0.094,0.257,0.094,0.381c0,0.18-0.128,0.402-0.382,0.671c-0.255,0.268-0.531,0.514-0.83,0.735
		c-0.3,0.225-0.576,0.46-0.831,0.71c-0.254,0.25-0.382,0.456-0.382,0.616c0,0.08,0.021,0.181,0.066,0.302
		c0.045,0.12,0.082,0.212,0.114,0.274c0.03,0.062,0.094,0.17,0.188,0.321c0.094,0.151,0.145,0.235,0.152,0.255
		c0.679,1.223,1.455,2.272,2.331,3.146c0.874,0.877,1.924,1.652,3.146,2.332c0.02,0.008,0.104,0.061,0.255,0.152
		c0.151,0.094,0.259,0.158,0.321,0.188c0.062,0.033,0.154,0.07,0.273,0.115c0.121,0.045,0.223,0.066,0.303,0.066
		c0.16,0,0.365-0.127,0.615-0.383c0.25-0.254,0.486-0.529,0.711-0.83c0.223-0.299,0.469-0.574,0.735-0.83
		c0.269-0.254,0.491-0.383,0.67-0.383c0.124,0,0.252,0.031,0.381,0.096c0.13,0.061,0.288,0.158,0.476,0.287
		c0.188,0.131,0.3,0.209,0.336,0.234c0.224,0.133,0.462,0.271,0.717,0.414c0.254,0.145,0.538,0.301,0.852,0.469
		c0.312,0.172,0.553,0.305,0.723,0.402c0.625,0.312,0.965,0.549,1.019,0.711C36.271,31.497,36.284,31.591,36.284,31.716z"/>
</g>
</svg>
