<?xml version="1.0" encoding="utf-8"?>
<!-- Generator: Adobe Illustrator 16.0.0, SVG Export Plug-In . SVG Version: 6.00 Build 0)  -->
<!DOCTYPE svg PUBLIC "-//W3C//DTD SVG 1.1//EN" "http://www.w3.org/Graphics/SVG/1.1/DTD/svg11.dtd">
<svg version="1.1" id="Layer_1" xmlns="http://www.w3.org/2000/svg" xmlns:xlink="http://www.w3.org/1999/xlink" x="0px" y="0px"
	 width="53.711px" height="52.5px" viewBox="0 0 53.711 52.5" enable-background="new 0 0 53.711 52.5" xml:space="preserve">
<path fill="#FFFFFF" d="M36.53,20.258c-0.549,0.803-1.212,1.486-1.989,2.051c0.008,0.114,0.013,0.286,0.013,0.516
	c0,1.063-0.156,2.126-0.467,3.186c-0.312,1.061-0.784,2.077-1.418,3.051c-0.635,0.975-1.39,1.836-2.265,2.584
	c-0.876,0.749-1.932,1.347-3.168,1.793c-1.235,0.446-2.558,0.669-3.965,0.669c-2.219,0-4.248-0.594-6.09-1.78
	c0.286,0.033,0.605,0.049,0.958,0.049c1.841,0,3.482-0.564,4.923-1.693c-0.859-0.017-1.629-0.28-2.309-0.792
	c-0.679-0.512-1.146-1.164-1.399-1.958c0.271,0.041,0.52,0.061,0.749,0.061c0.352,0,0.7-0.045,1.044-0.135
	c-0.917-0.188-1.676-0.645-2.277-1.369c-0.602-0.724-0.902-1.564-0.902-2.522v-0.049c0.557,0.311,1.153,0.479,1.792,0.503
	c-0.54-0.36-0.97-0.83-1.289-1.412c-0.319-0.581-0.479-1.211-0.479-1.891c0-0.72,0.18-1.387,0.54-2.001
	c0.99,1.22,2.195,2.196,3.615,2.929s2.94,1.14,4.562,1.221c-0.066-0.311-0.099-0.613-0.099-0.908c0-1.097,0.387-2.031,1.16-2.805
	s1.708-1.16,2.806-1.16c1.146,0,2.111,0.417,2.896,1.252c0.893-0.172,1.731-0.491,2.518-0.958c-0.304,0.941-0.885,1.67-1.744,2.186
	C35.007,20.791,35.768,20.586,36.53,20.258z"/>
<circle fill="none" stroke="#F26475" stroke-width="1.5" stroke-miterlimit="10" cx="26.855" cy="26.167" r="23"/>
</svg>
