<?xml version="1.0" encoding="utf-8"?>
<!-- Generator: Adobe Illustrator 16.0.0, SVG Export Plug-In . SVG Version: 6.00 Build 0)  -->
<!DOCTYPE svg PUBLIC "-//W3C//DTD SVG 1.1//EN" "http://www.w3.org/Graphics/SVG/1.1/DTD/svg11.dtd">
<svg version="1.1" id="Layer_1" xmlns="http://www.w3.org/2000/svg" xmlns:xlink="http://www.w3.org/1999/xlink" x="0px" y="0px"
	 width="66px" height="66px" viewBox="0 0 66 66" enable-background="new 0 0 66 66" xml:space="preserve">
<path fill="none" stroke="#FF6666" stroke-width="1.5" stroke-miterlimit="10" d="M52.121,10.372
	c12.498,10.56,14.067,29.252,3.507,41.749c-10.56,12.497-29.251,14.067-41.75,3.507C1.381,45.067-0.189,26.376,10.373,13.879
	C20.932,1.382,39.625-0.188,52.121,10.372"/>
<g>
	<path fill="#FFFFFF" stroke="#000000" stroke-miterlimit="10" d="M22.412,48.129H43.18l0.232-0.005
		c1.285,0,2.327-1.043,2.327-2.328v-0.49v0.006v-27.44H24.915v2.45H20.26v25.479c0,1.286,1.042,2.328,2.327,2.328"/>
	<path fill="none" stroke="#000000" stroke-linecap="round" stroke-linejoin="round" stroke-miterlimit="10" d="M45.74,45.312
		v-27.44H24.915v27.44v0.489c0,1.286-1.042,2.328-2.327,2.328s-2.327-1.042-2.327-2.328V20.321h4.654"/>
	
		<line fill="none" stroke="#000000" stroke-linecap="round" stroke-linejoin="round" stroke-miterlimit="10" x1="43.413" y1="48.123" x2="43.413" y2="48.123"/>
	<path fill="none" stroke="#000000" stroke-linecap="round" stroke-linejoin="round" stroke-miterlimit="10" d="M22.412,48.129
		H43.18l0.232-0.005c1.285,0,2.327-1.043,2.327-2.328v-0.49"/>
	
		<rect x="28.302" y="20.947" fill="none" stroke="#000000" stroke-linecap="round" stroke-linejoin="round" stroke-miterlimit="10" width="5.931" height="7.193"/>
	
		<line fill="none" stroke="#000000" stroke-linecap="round" stroke-linejoin="round" stroke-miterlimit="10" x1="37.446" y1="20.947" x2="42.242" y2="20.947"/>
	
		<line fill="none" stroke="#000000" stroke-linecap="round" stroke-linejoin="round" stroke-miterlimit="10" x1="37.446" y1="24.422" x2="42.242" y2="24.422"/>
	
		<line fill="none" stroke="#000000" stroke-linecap="round" stroke-linejoin="round" stroke-miterlimit="10" x1="37.446" y1="27.948" x2="42.242" y2="27.948"/>
	
		<line fill="none" stroke="#000000" stroke-linecap="round" stroke-linejoin="round" stroke-miterlimit="10" x1="28.302" y1="32.372" x2="42.242" y2="32.372"/>
	
		<line fill="none" stroke="#000000" stroke-linecap="round" stroke-linejoin="round" stroke-miterlimit="10" x1="28.302" y1="38.012" x2="42.242" y2="38.012"/>
	
		<line fill="none" stroke="#000000" stroke-linecap="round" stroke-linejoin="round" stroke-miterlimit="10" x1="28.302" y1="44.417" x2="42.242" y2="44.417"/>
</g>
</svg>
