<svg id="Layer_1" data-name="Layer 1" xmlns="http://www.w3.org/2000/svg" viewBox="0 0 264 200"><defs><style>.cls-1{fill:#511822;}.cls-2{fill:#9c6;}.cls-3{fill:#fff;}</style></defs><title>studenti</title><path class="cls-1" d="M143,76.83H99.39a2,2,0,0,0-2,2V89.62a2,2,0,0,0,2,2H143a2,2,0,0,0,2-2V78.83A2,2,0,0,0,143,76.83Zm-2,10.79H101.39V80.83H141Z"/><path class="cls-1" d="M185.12,112.39H174.6V97.16A49.71,49.71,0,0,0,165,67.79l10.54-31.36a2,2,0,0,0-1.25-2.53l-17.61-6a2,2,0,0,0-1.53.11,2,2,0,0,0-1,1.15l-7.72,23a48.41,48.41,0,0,0-6-2.46V44.54A12.61,12.61,0,0,0,127.86,32H114.57A12.6,12.6,0,0,0,102,44.54v5.17a48.65,48.65,0,0,0-5.07,2L89.33,29.18a2,2,0,0,0-2.53-1.26l-17.61,6a2,2,0,0,0-1.25,2.53l10.2,30.35A49.78,49.78,0,0,0,67.83,97.16v15.23H57.31a2,2,0,0,0-2,2v45.43a2,2,0,0,0,2,2H67.83v1.05A21.2,21.2,0,0,0,89,184h64.43a21.2,21.2,0,0,0,21.17-21.17v-1.05h10.52a2,2,0,0,0,2-2V114.39A2,2,0,0,0,185.12,112.39Zm-27.78-80L171.15,37l-9.08,27a50.28,50.28,0,0,0-12-10ZM106,44.54A8.6,8.6,0,0,1,114.57,36h13.29a8.6,8.6,0,0,1,8.6,8.59v4a49.8,49.8,0,0,0-11.91-1.45h-6.67A49.65,49.65,0,0,0,106,48.55ZM72.36,37l13.82-4.68,7.13,21.22A50.46,50.46,0,0,0,81.15,63.2Zm-13,120.78V116.39h8.52v41.43Zm25.21-21a17.51,17.51,0,0,1,17.37-15.48h38.66a17.5,17.5,0,0,1,17.36,15.48ZM89,180a17,17,0,0,1-4.6-.65v-38.6h8.89V148a2,2,0,0,0,4,0v-7.21H158v38.6a17,17,0,0,1-4.6.65Zm81.6-17.17A17.14,17.14,0,0,1,162,177.7V138.79a21.51,21.51,0,0,0-21.48-21.48H101.89A21.51,21.51,0,0,0,80.4,138.79V177.7a17.16,17.16,0,0,1-8.57-14.83V97.16A46.11,46.11,0,0,1,117.88,51.1h6.67A46.11,46.11,0,0,1,170.6,97.16v65.71Zm12.52-5.05H174.6V116.39h8.52Z"/><circle class="cls-2" cx="198.22" cy="145" r="41.51" transform="translate(-46.63 125.86) rotate(-31.72)"/><path class="cls-3" d="M214,129.79a2.29,2.29,0,0,0-3.23,0l-28.86,28.86a2.29,2.29,0,0,0,0,3.23,2.28,2.28,0,0,0,3.23,0L214,133A2.29,2.29,0,0,0,214,129.79Z"/><path class="cls-3" d="M188.13,143.11a8.4,8.4,0,1,0-8.4-8.4A8.4,8.4,0,0,0,188.13,143.11Zm0-12.23a3.83,3.83,0,1,1-3.83,3.83A3.84,3.84,0,0,1,188.13,130.88Z"/><path class="cls-3" d="M209.46,146.89a8.4,8.4,0,1,0,8.39,8.39A8.39,8.39,0,0,0,209.46,146.89Zm0,12.22a3.83,3.83,0,1,1,3.83-3.83A3.84,3.84,0,0,1,209.46,159.11Z"/></svg>