<svg id="Layer_1" data-name="Layer 1" xmlns="http://www.w3.org/2000/svg" viewBox="0 0 242 242"><defs><style>.cls-1{fill:#69c;}.cls-2{fill:#fff;}.cls-3{fill:#511822;}</style></defs><title>15 ikonica</title><circle class="cls-1" cx="120.75" cy="120.92" r="118.5"/><path class="cls-2" d="M171.84,104.41v10.08H158.13V97.86a6.29,6.29,0,0,0-6.29-6.29H56a6.29,6.29,0,0,0-6.29,6.29v63.65A6.29,6.29,0,0,0,56,167.8h95.85a6.29,6.29,0,0,0,6.29-6.29V141.74h13.71v10.08l31.36,11V93.46Z"/><path class="cls-3" d="M204.36,91.83a2,2,0,0,0-1.81-.26l-31.37,11a2,2,0,0,0-1.34,1.89v8.06l-4.86,0-4.85,0V97.86a8.3,8.3,0,0,0-8.29-8.29H56a8.3,8.3,0,0,0-8.29,8.29v63.65A8.3,8.3,0,0,0,56,169.8h95.85a8.3,8.3,0,0,0,8.29-8.29V143.74h9.71v8.09a2,2,0,0,0,1.34,1.89l31.37,10.95a2.06,2.06,0,0,0,.65.11,2,2,0,0,0,1.16-.37,2,2,0,0,0,.84-1.63V93.46A2,2,0,0,0,204.36,91.83Zm-52.52,74H56a4.3,4.3,0,0,1-4.29-4.29V97.86A4.3,4.3,0,0,1,56,93.57h95.85a4.3,4.3,0,0,1,4.29,4.29v16.27a1.38,1.38,0,0,0,0,.35l0,3.65v43.38A4.3,4.3,0,0,1,151.84,165.8Zm18-26.07h-9.68l0-16.17,0-5.47v-1.64l4.84,0,4.87,0v1l0,15.23ZM201.2,160l-27.36-9.55V114.49s0-.07,0-.1v-8.56l27.36-9.55Z"/><path class="cls-3" d="M108.35,154.93H60.92a2,2,0,0,0,0,4h47.43a2,2,0,0,0,0-4Z"/><path class="cls-3" d="M108.35,140.82H60.92a2,2,0,0,0,0,4h47.43a2,2,0,0,0,0-4Z"/><path class="cls-2" d="M131.49,59.48A27.91,27.91,0,0,0,103.87,84.3a28.11,28.11,0,1,0,0,6.75,27.84,27.84,0,1,0,27.6-31.57Z"/><path class="cls-3" d="M132.49,58.05a29.85,29.85,0,0,0-28.14,20,29.83,29.83,0,1,0,.06,19.86,29.82,29.82,0,1,0,28.08-39.84ZM76.27,113.87a25.82,25.82,0,1,1,25.82-25.81A25.84,25.84,0,0,1,76.27,113.87Zm56.22-.19a25.82,25.82,0,1,1,25.82-25.81A25.85,25.85,0,0,1,132.49,113.68Z"/><path class="cls-3" d="M89.5,84.55l-17.67-12a3.65,3.65,0,0,0-5.7,3v23.9a3.64,3.64,0,0,0,1.94,3.23,3.75,3.75,0,0,0,1.72.43,3.69,3.69,0,0,0,2-.63l17.67-12a3.65,3.65,0,0,0,0-6ZM70.13,98.88V76.28l16.7,11.3Z"/><path class="cls-3" d="M132.49,66.76a6.43,6.43,0,1,0,6.43,6.42A6.44,6.44,0,0,0,132.49,66.76Zm0,8.85a2.43,2.43,0,1,1,2.43-2.43A2.43,2.43,0,0,1,132.49,75.61Z"/><path class="cls-3" d="M132.49,96.12a6.43,6.43,0,1,0,6.43,6.43A6.44,6.44,0,0,0,132.49,96.12Zm0,8.86a2.43,2.43,0,1,1,2.43-2.43A2.43,2.43,0,0,1,132.49,105Z"/><path class="cls-3" d="M148.16,81.44a6.43,6.43,0,1,0,6.43,6.43A6.43,6.43,0,0,0,148.16,81.44Zm0,8.85a2.43,2.43,0,1,1,2.43-2.42A2.42,2.42,0,0,1,148.16,90.29Z"/><path class="cls-3" d="M116.82,81.44a6.43,6.43,0,1,0,6.43,6.43A6.43,6.43,0,0,0,116.82,81.44Zm0,8.85a2.43,2.43,0,1,1,2.43-2.42A2.43,2.43,0,0,1,116.82,90.29Z"/></svg>