<svg id="Layer_1" data-name="Layer 1" xmlns="http://www.w3.org/2000/svg" viewBox="0 0 242 242"><defs><style>.cls-1{fill:#f66;}.cls-2{fill:#fff;}.cls-3{fill:#511822;}</style></defs><title>15 ikonica</title><circle class="cls-1" cx="120.75" cy="121.26" r="118.5"/><path class="cls-2" d="M184.13,88.91c-34.37-.37-49.18,15.33-54,22.21v-2H111.38v1.77c-5-7-19.81-22.38-53.86-22-21,37.36,0,64.53,0,64.53,34,.37,48.89-15,53.86-22v1.77h18.74v-2c4.83,6.88,19.64,22.58,54,22.21C205.17,116.08,184.13,88.91,184.13,88.91Z"/><path class="cls-3" d="M185.64,88.13a2,2,0,0,0-1.56-.78c-30.91-.29-46.5,11.9-53.54,20.31a2,2,0,0,0-.49-.07H111.31a2.21,2.21,0,0,0-.37,0C95.46,89,68.56,87.26,57.42,87.35a2,2,0,0,0-1.72,1c-21.44,38.07-.05,66.46.16,66.74a2,2,0,0,0,1.56.77h1.23c30.08,0,45.35-12,52.29-20.29a1.5,1.5,0,0,0,.37,0h18.74a2.63,2.63,0,0,0,.49-.06c15,18.09,40.88,20.31,52.56,20.31h1a2,2,0,0,0,1.72-1C207.24,116.79,185.86,88.41,185.64,88.13ZM109,131.6c-5.81,7.62-20,20.29-50.38,20.29h-.16c-3-4.54-17.24-28.67.14-60.54,11.54,0,37.08,2.31,50.68,20.66v5l-9.4-8.84a2,2,0,0,0-2.74,2.91l11.17,10.51-11.12,9.75a2,2,0,0,0,2.64,3l9.45-8.29v5.27A2,2,0,0,0,109,131.6Zm19,0H113.31v-20h14.74Zm54.82,20.25c-11.58,0-37.22-2.33-50.78-20.81,0,0,0,0,0,0v-5.76l9.55,9a2,2,0,0,0,1.37.54,2,2,0,0,0,1.45-.63,2,2,0,0,0-.08-2.82l-11.16-10.52,11.11-9.74a2,2,0,0,0-2.64-3l-9.6,8.41v-4.43a2,2,0,0,0,.36-.35c5.8-7.66,20-20.38,50.44-20.38H183C186.05,95.88,200.25,120,182.87,151.89Z"/></svg>