<svg id="Layer_1" data-name="Layer 1" xmlns="http://www.w3.org/2000/svg" viewBox="0 0 242 242"><defs><style>.cls-1{fill:#ccc;}.cls-2{fill:#fff;}.cls-3{fill:#511822;}</style></defs><title>15 ikonica</title><circle class="cls-1" cx="120.65" cy="121.21" r="118.5"/><rect class="cls-2" x="39.39" y="140.42" width="162.52" height="37.24"/><path class="cls-3" d="M201.92,179.66H39.39a2,2,0,0,1-2-2V140.42a2,2,0,0,1,2-2H201.92a2,2,0,0,1,2,2v37.24A2,2,0,0,1,201.92,179.66Zm-160.53-4H199.92V142.42H41.39Z"/><path class="cls-2" d="M179.65,74.86h-.24V66.71h-47c-6,0-10.89,2.62-11.56,8.15h-.17c-.67-5.53-5.59-8.15-11.56-8.15H61.9v8.15H52.34V158.7h59.33v2a3.73,3.73,0,0,0,3.73,3.72h10.51a3.73,3.73,0,0,0,3.73-3.72v-2H189V74.86Z"/><path class="cls-3" d="M189,73.22h-7.56V67.06a2,2,0,0,0-2-2h-47c-5.29,0-9.38,1.84-11.65,5-2.27-3.13-6.35-5-11.64-5H61.9a2,2,0,0,0-2,2v6.16H52.34a2,2,0,0,0-2,2v83.83a2,2,0,0,0,2,2h57.33a5.74,5.74,0,0,0,5.73,5.72h10.51a5.74,5.74,0,0,0,5.73-5.72H189a2,2,0,0,0,2-2V75.22A2,2,0,0,0,189,73.22Zm-56.54-4.16h45v78.49h-45a15.38,15.38,0,0,0-9.65,2.91V76.53C122.78,69.6,130.16,69.06,132.43,69.06Zm-23.29,0c2.26,0,9.64.54,9.64,7.47v.14h0v73.79a15.35,15.35,0,0,0-9.64-2.91H63.9V69.06Zm77.83,88H129.64a2,2,0,0,0-2,2v2a1.74,1.74,0,0,1-1.73,1.73H115.4a1.74,1.74,0,0,1-1.73-1.73v-2a2,2,0,0,0-2-2H54.34V77.22H59.9v72.33a2,2,0,0,0,2,2h47.24c2.26,0,9.64.54,9.64,7.47v.15a2,2,0,0,0,4,0V159c0-6.93,7.38-7.47,9.65-7.47h47a2,2,0,0,0,2-2V77.22H187Z"/></svg>