<svg id="Layer_1" data-name="Layer 1" xmlns="http://www.w3.org/2000/svg" viewBox="0 0 242 242"><defs><style>.cls-1{fill:#9c6;}.cls-2{fill:#fff;}.cls-3{fill:#511822;}</style></defs><title>15 ikonica</title><circle class="cls-1" cx="120.65" cy="120.92" r="118.5"/><polygon class="cls-2" points="142.38 112.32 119.37 125.32 95.73 113.48 63.35 178.16 84.46 172.66 92.69 192.85 119.71 138.9 149.38 191.43 156.6 170.85 177.96 175.29 142.38 112.32"/><path class="cls-3" d="M179.7,175.31l-35.57-63a2,2,0,0,0-1.21-1,2,2,0,0,0-1.52.19l-22.09,12.47L96.63,112.7a2,2,0,0,0-1.53-.11,2,2,0,0,0-1.15,1L61.56,178.26a2,2,0,0,0,2.3,2.83L83.27,176l7.57,18.58a2,2,0,0,0,1.78,1.24h.07a2,2,0,0,0,1.79-1.1l25.34-50.6,27.82,49.27a2,2,0,0,0,1.74,1h.18a2,2,0,0,0,1.71-1.33l6.64-18.93,19.64,4.08a2,2,0,0,0,2.15-2.94ZM92.88,189,86.31,172.9a2,2,0,0,0-1.85-1.25,2.24,2.24,0,0,0-.51.07l-16.84,4.39,29.52-58.94,18.49,9.26-2.29,1.29a2,2,0,0,0-.76,2.72l5.37,9.51Zm29.51-58.94-2.79,5.57-3.06-5.42,2.89-1.64ZM157,169.89a2,2,0,0,0-2.29,1.3L149,187.61l-27-47.77,4.9-9.77a2.05,2.05,0,0,0,.11-1.52,2,2,0,0,0-1-1.16l-2.34-1.18,18-10.17,32.42,57.4Z"/><circle class="cls-2" cx="118.81" cy="103.75" r="49.2"/><path class="cls-3" d="M170,102.47A51.2,51.2,0,1,0,118.79,155l1.3,0A51.2,51.2,0,0,0,170,102.47Zm-50,48.47-1.2,0a47.21,47.21,0,0,1-1.16-94.4h1.21A47.2,47.2,0,0,1,120,150.94Z"/><path class="cls-3" d="M141.92,92.07l-13.86-1.15a.2.2,0,0,1-.16-.12l-5.76-12.65a4,4,0,0,0-3.88-2.46,4.15,4.15,0,0,0-3.81,2.57l-5.37,12.83a.22.22,0,0,1-.16.12L95.1,92.77a4.2,4.2,0,0,0-2.27,7.35l10.54,9.07a.2.2,0,0,1,.06.19L100.65,123a4.16,4.16,0,0,0,1.69,4.28,4.26,4.26,0,0,0,2.42.77,4.13,4.13,0,0,0,2.18-.62l11.88-7.21a.22.22,0,0,1,.21,0l12.09,6.86a4.2,4.2,0,0,0,6.16-4.61l-3.19-13.54a.18.18,0,0,1,.06-.19l10.26-9.38a4.2,4.2,0,0,0-2.49-7.28Zm-.21,4.33-10.26,9.38a4.21,4.21,0,0,0-1.26,4.06l3.2,13.54a.18.18,0,0,1-.08.2.15.15,0,0,1-.21,0L121,116.74a4.18,4.18,0,0,0-4.25.06L104.86,124a.16.16,0,0,1-.21,0,.17.17,0,0,1-.08-.2l2.78-13.63a4.19,4.19,0,0,0-1.37-4L95.44,97.09a.2.2,0,0,1-.06-.21.19.19,0,0,1,.17-.14l13.82-1.56a4.21,4.21,0,0,0,3.4-2.55l5.37-12.82a.17.17,0,0,1,.18-.12h0a.17.17,0,0,1,.18.11l5.76,12.66a4.22,4.22,0,0,0,3.47,2.45l13.86,1.14a.17.17,0,0,1,.17.14A.19.19,0,0,1,141.71,96.4Z"/></svg>