<svg id="Layer_1" data-name="Layer 1" xmlns="http://www.w3.org/2000/svg" viewBox="0 0 242 242"><defs><style>.cls-1{fill:#6cf;}.cls-2{fill:#fff;}.cls-3{fill:#511822;}</style></defs><title>15 ikonica</title><circle class="cls-1" cx="121.51" cy="120.92" r="118.5"/><path class="cls-2" d="M65.7,140.78a14.18,14.18,0,0,1-12.19,13.68,10.56,10.56,0,0,1-12.19-10.7,14.16,14.16,0,0,1,12.19-13.68A10.56,10.56,0,0,1,65.7,140.78Zm49.55-18.25a14.17,14.17,0,0,0-12.19,13.68,10.57,10.57,0,0,0,12.19,10.7,14.17,14.17,0,0,0,12.19-13.68A10.57,10.57,0,0,0,115.25,122.53Zm12.19-54.7L65.7,75.38V92.53L127.44,85Z"/><path class="cls-2" d="M197,120.43,166.1,124.2V107.05L197,103.28Zm-43.06,36.35a14.18,14.18,0,0,0-12.19,13.68,10.56,10.56,0,0,0,12.19,10.7,14.17,14.17,0,0,0,12.19-13.68A10.57,10.57,0,0,0,153.91,156.78Z"/><path class="cls-3" d="M127.2,65.85,65.45,73.39a2,2,0,0,0-1.75,2v56c-.08-.06-.14-.14-.22-.21a12.85,12.85,0,0,0-10.22-3,16.24,16.24,0,0,0-13.94,15.67A12.5,12.5,0,0,0,52,156.55a15,15,0,0,0,1.76-.11,16.25,16.25,0,0,0,14-15.66V94.3l57.74-7.06v36.55l-.21-.21a12.78,12.78,0,0,0-10.22-3,16.24,16.24,0,0,0-14,15.66A12.5,12.5,0,0,0,113.74,149a14.79,14.79,0,0,0,1.75-.1,16.25,16.25,0,0,0,14-15.67V67.83a2,2,0,0,0-2.24-2ZM53.26,152.47a8.87,8.87,0,0,1-7.08-2.06,8.7,8.7,0,0,1-2.86-6.65,12.14,12.14,0,0,1,10.43-11.7A10.63,10.63,0,0,1,55,132a8.53,8.53,0,0,1,8.7,8.8A12.13,12.13,0,0,1,53.26,152.47ZM115,144.93a8.89,8.89,0,0,1-7.09-2.06,8.75,8.75,0,0,1-2.86-6.66,12.13,12.13,0,0,1,10.43-11.69,10.79,10.79,0,0,1,1.26-.08,8.49,8.49,0,0,1,8.69,8.79A12.14,12.14,0,0,1,115,144.93ZM125.44,83v.18L67.7,90.27V77.15l57.74-7.06Z"/><path class="cls-3" d="M198.3,101.78a2,2,0,0,0-1.57-.49l-30.87,3.77a2,2,0,0,0-1.76,2v51l-.21-.21a12.85,12.85,0,0,0-10.22-3,16.25,16.25,0,0,0-13.95,15.66,12.5,12.5,0,0,0,12.68,12.8,14.82,14.82,0,0,0,1.75-.11,16.25,16.25,0,0,0,13.95-15.66V126l29.11-3.56a2,2,0,0,0,1.76-2V103.28A2,2,0,0,0,198.3,101.78Zm-44.63,77.4a8.89,8.89,0,0,1-7.09-2.06,8.74,8.74,0,0,1-2.86-6.66,12.13,12.13,0,0,1,10.43-11.69,10.93,10.93,0,0,1,1.26-.08,8.51,8.51,0,0,1,8.69,8.8A12.13,12.13,0,0,1,153.67,179.18ZM195,118.66l-26.87,3.28V108.82L195,105.54Z"/></svg>