<svg id="Layer_1" data-name="Layer 1" xmlns="http://www.w3.org/2000/svg" viewBox="0 0 242 242"><defs><style>.cls-1{fill:#f66;}.cls-2{fill:#fff;}.cls-3{fill:#511822;}</style></defs><title>15 ikonica</title><circle class="cls-1" cx="120.75" cy="121.21" r="118.5"/><path class="cls-2" d="M177.87,70.86h-.24V62.71h-47c-6,0-10.89,2.62-11.56,8.15h-.17c-.67-5.53-5.59-8.15-11.56-8.15H60.12v8.15H50.56V154.7h59.33v2a3.73,3.73,0,0,0,3.73,3.72h10.51a3.73,3.73,0,0,0,3.73-3.72v-2h59.33V70.86Z"/><path class="cls-3" d="M187.19,69.22h-7.56V63.06a2,2,0,0,0-2-2h-47c-5.29,0-9.37,1.84-11.65,5a10.29,10.29,0,0,0-2.22-2.25,15.64,15.64,0,0,0-9.42-2.72H60.12a2,2,0,0,0-2,2v6.16H50.56a2,2,0,0,0-2,2v83.83a2,2,0,0,0,2,2h57.33a5.74,5.74,0,0,0,5.73,5.72h10.51a5.74,5.74,0,0,0,5.73-5.72h57.33a2,2,0,0,0,2-2V71.22A2,2,0,0,0,187.19,69.22Zm-56.54-4.16h45v78.49h-45a15.38,15.38,0,0,0-9.65,2.91V72.53C121,65.6,128.38,65.06,130.65,65.06Zm-23.29,0a11.8,11.8,0,0,1,7,1.93,6.49,6.49,0,0,1,2.6,5.54v.14h0v73.79a15.35,15.35,0,0,0-9.64-2.91H62.12V65.06Zm77.83,88H127.86a2,2,0,0,0-2,2v2a1.74,1.74,0,0,1-1.73,1.73H113.62a1.74,1.74,0,0,1-1.73-1.73v-2a2,2,0,0,0-2-2H52.56V73.22h5.56v72.33a2,2,0,0,0,2,2h47.24c2.26,0,9.64.54,9.64,7.47v.15a2,2,0,0,0,4,0V155c0-6.93,7.38-7.47,9.65-7.47h47a2,2,0,0,0,2-2V73.22h5.56Z"/><path class="cls-2" d="M190.89,192.93l-5.33-20.86a2.38,2.38,0,0,0-2.31-1.8h-6.66v-7.68H159.2v7.68h-6.45a2.38,2.38,0,0,0-2.31,1.8l-5.33,20.86a2.38,2.38,0,0,0,2.31,3h41.16A2.38,2.38,0,0,0,190.89,192.93Z"/><path class="cls-2" d="M195,122.48c-6.7,20.75-26.74,32.58-26.74,32.58a110.25,110.25,0,0,1,4.93-39.61c6.52-20.23,25.9-30.09,25.9-30.09A95,95,0,0,1,195,122.48Z"/><path class="cls-3" d="M197.87,122.1a96.14,96.14,0,0,0,4.17-38,2,2,0,0,0-2.89-1.53c-.82.42-20.19,10.48-26.9,31.26a111.13,111.13,0,0,0-5,40.4,2.36,2.36,0,0,0,.15.58c-.47,1.89-.92,3.82-1.33,5.77H159.2a2,2,0,0,0-2,2v5.68h-4.45a4.38,4.38,0,0,0-4.25,3.3l-5.33,20.87a4.38,4.38,0,0,0,4.25,5.47h41.16a4.4,4.4,0,0,0,4.25-5.47l-5.33-20.87a4.4,4.4,0,0,0-4.25-3.3h-4.66v-5.68a2,2,0,0,0-2-2h-6.45c.41-1.88.85-3.74,1.31-5.56C176,152.06,191.9,140.6,197.87,122.1ZM161.2,164.59h4.05c-.23,1.22-.45,2.45-.65,3.68h-3.4Zm22.42,8L189,193.43a.39.39,0,0,1-.37.48H147.42a.39.39,0,0,1-.31-.15.38.38,0,0,1-.07-.33l5.33-20.87a.4.4,0,0,1,.38-.29H164a136,136,0,0,0-1.28,17.35,2,2,0,0,0,2,2h0a2,2,0,0,0,2-2A131.15,131.15,0,0,1,168,172.27h15.21A.38.38,0,0,1,183.62,172.56Zm-9-8v3.68h-5.94c.21-1.23.43-2.46.67-3.68Zm1.47-49.53c4.76-14.76,16.87-23.89,22.25-27.35a95.44,95.44,0,0,1-4.25,33.16c-4.35,13.5-14.72,23.18-20.92,28a203.59,203.59,0,0,1,20.15-46.51,2,2,0,0,0-3.38-2.14,205.66,205.66,0,0,0-18.68,41.32A108.42,108.42,0,0,1,176.06,115.06Z"/></svg>