<svg id="Layer_1" data-name="Layer 1" xmlns="http://www.w3.org/2000/svg" xmlns:xlink="http://www.w3.org/1999/xlink" viewBox="0 0 242 242"><defs><style>.cls-1{fill:none;}.cls-2{fill:#fcc;}.cls-3{clip-path:url(#clip-path);}.cls-4{fill:#fff;}.cls-5{fill:#511822;}</style><clipPath id="clip-path"><circle class="cls-1" cx="122.22" cy="120.78" r="68.33"/></clipPath></defs><title>15 ikonica</title><circle class="cls-2" cx="121.41" cy="120.93" r="118.5"/><g class="cls-3"><path class="cls-4" d="M122.58,120.87C102.12,97.58,109.09,64,129.33,43.56,112.05,45.68,88.67,46.8,80.59,58c-11.12,14.28,2.23,43.71,22.65,54.91A88.72,88.72,0,0,0,122.58,120.87Z"/><path class="cls-4" d="M122.44,120.77c18.54,26.45,7.52,63.11-17.81,81.52,17.28-.08,38.63-.17,47.74-9.37,14.18-13.28,5.9-45.78-12.05-60.94A75.7,75.7,0,0,0,122.44,120.77Z"/><path class="cls-4" d="M122.51,120.82c-25.27,20.5-59.87,14.55-82.34-6.7,3.13,16.26,3.23,38.63,12.41,45.7,15.3,11.12,45.76.81,60.25-19.76A82.11,82.11,0,0,0,122.51,120.82Z"/><path class="cls-4" d="M122.51,120.82c26.41-17.35,59-5.3,77.4,17-2.11-18.29-1.2-41.68-12.43-50.78-13.26-10.11-42.72-3.87-55.84,16.1A71.1,71.1,0,0,0,122.51,120.82Z"/></g><path class="cls-5" d="M121.41,50.14a70.79,70.79,0,1,0,70.78,70.79A70.87,70.87,0,0,0,121.41,50.14ZM188,125.6A68.61,68.61,0,0,0,163.35,113a57,57,0,0,0-14.77-2,50.25,50.25,0,0,0-22.78,5.41,75.11,75.11,0,0,1,6.7-11.65C139,95,150.28,87.92,162.74,85.85a34.34,34.34,0,0,1,15.94.78,66.26,66.26,0,0,1,9.51,34.3C188.19,122.5,188.12,124.06,188,125.6ZM175.45,81.76a41.18,41.18,0,0,0-13.36.15c-13.54,2.24-25.84,10-32.89,20.57a77.34,77.34,0,0,0-8,14.51C106.31,97.27,110.79,72,123.68,54.2A66.75,66.75,0,0,1,175.45,81.76ZM79,69.41a66.47,66.47,0,0,1,39.86-15.2,65.52,65.52,0,0,0-10.46,27.46,51.5,51.5,0,0,0,8,35.5,94.07,94.07,0,0,1-12.55-5.76c-11.7-6.49-21.71-20.16-24.35-33.23A29.56,29.56,0,0,1,79,69.41Zm-4.11,3.71A37.61,37.61,0,0,0,75.56,79c2.9,14.36,13.48,28.79,26.33,35.93a95.14,95.14,0,0,0,15.49,6.86c-20,13.93-44.19,11.2-62.73.22,0-.36,0-.71,0-1.06A66.58,66.58,0,0,1,74.84,73.12Zm42.53,53.48a87.08,87.08,0,0,1-6.82,12.12c-8.09,11.37-22.15,20.14-35.82,22.34a39.32,39.32,0,0,1-6.27.51,66.48,66.48,0,0,1-13.57-34.85C73.61,136.93,97.21,139.28,117.37,126.6Zm-45.7,38.84c1.21-.1,2.44-.23,3.7-.43,14.68-2.37,29.76-11.78,38.47-24a89.91,89.91,0,0,0,8.38-15.49c6.43,11.16,8.15,24.5,4.78,38a63.28,63.28,0,0,1-11.84,23.86A66.65,66.65,0,0,1,71.67,165.44ZM120,187.68a67.22,67.22,0,0,0,10.92-23.16c3.38-13.61,2-27.07-3.88-38.61A79.21,79.21,0,0,1,138,133.57c10.32,8.8,17.73,24.56,18,38.33a34.73,34.73,0,0,1-.44,6.41,66.4,66.4,0,0,1-34.12,9.4Zm39.91-12.21c.08-1.19.12-2.4.09-3.66-.31-15.05-8.12-31.64-19.44-41.3a83.12,83.12,0,0,0-14.48-9.71c17-9.12,41.34-8.13,61.48,9.46A66.85,66.85,0,0,1,159.88,175.47Z"/></svg>