<svg id="Layer_1" data-name="Layer 1" xmlns="http://www.w3.org/2000/svg" viewBox="0 0 242 242"><defs><style>.cls-1{fill:#c96;}.cls-2{fill:#fff;}.cls-3{fill:#511822;}</style></defs><title>15 ikonica</title><circle class="cls-1" cx="121.41" cy="121.26" r="118.5"/><path class="cls-2" d="M179.79,67.52h0l-56.93,48.7L108.7,39.63A16.06,16.06,0,0,0,95.83,58.34l12.94,69.94L86.63,147.21,85.91,169l26.23-22.43,5.74,31,13-17.85-4.66-25.23L178,90.16A16.07,16.07,0,0,0,179.79,67.52Z"/><path class="cls-3" d="M181.31,66.22a2,2,0,0,0-2.82-.22L124.2,112.44,110.66,39.27a2,2,0,0,0-2.33-1.6,18.07,18.07,0,0,0-14.47,21l12.73,68.81L85.33,145.69a2,2,0,0,0-.7,1.46l-.72,21.74a2,2,0,0,0,1.14,1.86,1.87,1.87,0,0,0,.86.2,2,2,0,0,0,1.3-.48l23.59-20.18,5.11,27.61a2,2,0,0,0,1.52,1.59,2.3,2.3,0,0,0,.45,0,2,2,0,0,0,1.61-.83l13-17.84a2,2,0,0,0,.35-1.54l-4.46-24.1,50.92-43.56a18.05,18.05,0,0,0,2-25.45ZM97.8,58a14.07,14.07,0,0,1,9.32-15.87l13.57,73.35-10.59,9Zm31,101.24L119,172.61l-4.68-25.32,10.58-9.06ZM181.6,79.05a14,14,0,0,1-4.87,9.59L88.06,164.48l.54-16.32,90.86-77.73A13.92,13.92,0,0,1,181.6,79.05Z"/><path class="cls-3" d="M118.21,128.05a2.9,2.9,0,1,0,1.9,3.63A2.9,2.9,0,0,0,118.21,128.05Z"/><path class="cls-2" d="M154.63,185.81l-3-16.5a15,15,0,0,0-17.45-12l-4.62.86a15,15,0,0,0-12,17.45l3,16.49a15,15,0,0,0,17.45,12l4.62-.85A15,15,0,0,0,154.63,185.81Zm-12.81,8.88-6.12,1.13a7.86,7.86,0,0,1-9.15-6.3L124,175.89a7.85,7.85,0,0,1,6.29-9.15l6.12-1.14a7.87,7.87,0,0,1,9.16,6.3l2.52,13.64A7.86,7.86,0,0,1,141.82,194.69Z"/><path class="cls-2" d="M89.08,146.59,86,143a15,15,0,0,0-21.11-1.65l-12.75,10.9a15,15,0,0,0-1.64,21.12l3,3.57a15,15,0,0,0,21.12,1.64l12.74-10.9A15,15,0,0,0,89.08,146.59ZM82.2,163.81l-10.54,9A7.86,7.86,0,0,1,60.58,172l-4-4.73a7.85,7.85,0,0,1,.86-11.07l10.54-9A7.85,7.85,0,0,1,79,148l4,4.73A7.86,7.86,0,0,1,82.2,163.81Z"/><path class="cls-3" d="M135.25,206.32a17,17,0,0,1-16.65-13.9l-3-16.49a17,17,0,0,1,13.6-19.78l4.62-.85a17,17,0,0,1,19.78,13.6l3,16.5h0A17,17,0,0,1,143,205.17l-4.62.86A17.53,17.53,0,0,1,135.25,206.32ZM136.86,159a12.64,12.64,0,0,0-2.36.22l-4.62.86a13,13,0,0,0-10.4,15.12l3,16.49a13,13,0,0,0,15.12,10.4l4.62-.86a13,13,0,0,0,10.4-15.12l-3-16.49A13,13,0,0,0,136.86,159Zm-2.61,38.9a9.87,9.87,0,0,1-9.67-8.07l-2.52-13.63a9.87,9.87,0,0,1,7.9-11.49l6.12-1.13a9.84,9.84,0,0,1,11.48,7.9l2.52,13.63a9.86,9.86,0,0,1-7.89,11.49l-6.12,1.13A10.19,10.19,0,0,1,134.25,197.91Zm3.63-30.49a6.46,6.46,0,0,0-1.07.1l-6.12,1.14a5.85,5.85,0,0,0-4.69,6.82l2.52,13.63a5.85,5.85,0,0,0,6.82,4.69l6.12-1.13h0a5.85,5.85,0,0,0,4.69-6.82l-2.52-13.64A5.87,5.87,0,0,0,137.88,167.42Z"/><path class="cls-3" d="M80.53,146.66a9.84,9.84,0,0,0-13.89-1.08l-10.54,9A9.87,9.87,0,0,0,55,168.49l4,4.73A9.88,9.88,0,0,0,73,174.3l10.54-9a9.87,9.87,0,0,0,1.08-13.89Zm2.4,11.59a5.9,5.9,0,0,1-2,4l-10.54,9a5.87,5.87,0,0,1-8.26-.64l-4-4.73a5.87,5.87,0,0,1,.64-8.26l10.54-9a5.84,5.84,0,0,1,8.25.64L81.54,154A5.85,5.85,0,0,1,82.93,158.25Z"/><path class="cls-3" d="M90.6,145.24l-3.06-3.57a17,17,0,0,0-23.93-1.87L50.86,150.71A17,17,0,0,0,49,174.64l3,3.57A17,17,0,0,0,76,180.07l12.74-10.9a17,17,0,0,0,1.87-23.93Zm0,12a12.85,12.85,0,0,1-4.5,8.85L73.39,177a13,13,0,0,1-18.3-1.43L52,172a13,13,0,0,1,1.42-18.29l12.75-10.91a13,13,0,0,1,18.29,1.43l3.06,3.57A12.89,12.89,0,0,1,90.63,157.28Z"/></svg>