<svg id="Layer_1" data-name="Layer 1" xmlns="http://www.w3.org/2000/svg" viewBox="0 0 242 242"><defs><style>.cls-1{fill:#fc6;}.cls-2{fill:#fff;}.cls-3{fill:#511822;}</style></defs><title>15 ikonica</title><circle class="cls-1" cx="121.51" cy="121.26" r="118.5"/><path class="cls-2" d="M162.85,77.68h-8.26V65.82H144.07V77.68H127.24V65.82H116.72V77.68H98.6V65.82H88.08V77.68h-7A13.67,13.67,0,0,0,67.42,91.36v70.21a13.68,13.68,0,0,0,13.67,13.68h81.76a13.69,13.69,0,0,0,13.68-13.68V91.36A13.68,13.68,0,0,0,162.85,77.68Z"/><path class="cls-3" d="M162.39,76.41h-6.26V66.55a2,2,0,0,0-2-2H143.61a2,2,0,0,0-2,2v9.86H128.78V66.55a2,2,0,0,0-2-2H116.26a2,2,0,0,0-2,2v9.86H100.15V66.55a2,2,0,0,0-2-2H87.62a2,2,0,0,0-2,2v9.86h-5A15.69,15.69,0,0,0,65,92.08v70.21A15.69,15.69,0,0,0,80.63,178h81.76a15.7,15.7,0,0,0,15.68-15.68V92.08A15.7,15.7,0,0,0,162.39,76.41Zm-16.78-7.86h6.52v19.3h-6.52Zm-27.35,0h6.52v19.3h-6.52Zm-28.64,0h6.53v19.3H89.62Zm-9,11.86h5v9.44a2,2,0,0,0,2,2H98.15a2,2,0,0,0,2-2V80.41h14.11v9.44a2,2,0,0,0,2,2h10.52a2,2,0,0,0,2-2V80.41h12.83v9.44a2,2,0,0,0,2,2h10.52a2,2,0,0,0,2-2V80.41h6.26a11.69,11.69,0,0,1,11.68,11.67V105.3H69V92.08A11.69,11.69,0,0,1,80.63,80.41ZM162.39,174H80.63A11.69,11.69,0,0,1,69,162.29v-53H174.07v53A11.69,11.69,0,0,1,162.39,174Z"/><path class="cls-3" d="M140.46,128.15l-11.1-.92-4.6-10.13a3.78,3.78,0,0,0-6.93.1l-4.3,10.27-11.06,1.25a3.78,3.78,0,0,0-2,6.62l8.44,7.26-2.23,10.91a3.73,3.73,0,0,0,1.53,3.85,3.79,3.79,0,0,0,2.17.7,3.85,3.85,0,0,0,2-.56l9.51-5.78,9.68,5.49h0a3.78,3.78,0,0,0,5.54-4.16l-2.56-10.83,8.22-7.51a3.79,3.79,0,0,0-2.24-6.56Zm-8.77,11.21a3.78,3.78,0,0,0-1.13,3.65L133,153.48l-9.36-5.3a3.76,3.76,0,0,0-3.82,0l-9.2,5.59,2.15-10.54a3.76,3.76,0,0,0-1.23-3.62l-8.15-7,10.69-1.21a3.77,3.77,0,0,0,3.06-2.3l4.15-9.92,4.46,9.79a3.78,3.78,0,0,0,3.13,2.21l10.72.88Z"/></svg>