<svg id="Layer_1" data-name="Layer 1" xmlns="http://www.w3.org/2000/svg" viewBox="0 0 242 242"><defs><style>.cls-1{fill:#c9c;}.cls-2{fill:#fff;}.cls-3{fill:#511822;}</style></defs><title>15 ikonica</title><circle class="cls-1" cx="121.41" cy="121.21" r="118.5"/><path class="cls-2" d="M161.41,135.85c-4.78-1.91-7.15-2.29-14.62-5.73-3.52-1.62-6.11-4.08-6.87-7.44-1.38-6.12,2.05-10.61,6.64-13,4.19-2.19,5.12-2.17,12.78-5.83,7.1-3.39,10.65-5.09,13.06-9,4.06-6.56,1.81-14.11,1.55-14.78,0,0-9.33-31.12-64-19.45-6.93,1.47-33.85,8-48.72,33.75-3,5.18-11.79,21-8.55,41,5.66,35.11,42.63,49.16,45,50,20.63,7.47,45.25,6,62-6,4.36-3.12,11.71-8.54,13.32-17.7C174.83,152,170.85,139.63,161.41,135.85ZM78.61,90.5a11.66,11.66,0,1,1-6.41,15.19A11.66,11.66,0,0,1,78.61,90.5ZM80.55,147A11.66,11.66,0,1,1,87,131.83,11.65,11.65,0,0,1,80.55,147Zm25,25.3a11.66,11.66,0,1,1,6.41-15.19A11.65,11.65,0,0,1,105.51,172.32Zm12.13-79.57a11.66,11.66,0,1,1,6.41-15.19A11.65,11.65,0,0,1,117.64,92.75Zm21.41,84a11.66,11.66,0,1,1,6.4-15.2A11.68,11.68,0,0,1,139.05,176.73Z"/><path class="cls-3" d="M162.16,134c-1.72-.69-3.16-1.19-4.55-1.68a99.85,99.85,0,0,1-10-4c-2.23-1-5-2.91-5.75-6.06-1.43-6.35,3.45-9.67,5.61-10.8s3.25-1.57,4.94-2.29,3.9-1.65,7.78-3.5c7.21-3.45,11.18-5.34,13.9-9.74,4.47-7.22,2.17-15.16,1.76-16.41h0c-.1-.34-2.64-8.52-12.27-15.17-15.73-10.85-38.06-9.07-54-5.66-12.79,2.73-36.28,10.87-50,34.71-8.1,14-11.06,28.29-8.8,42.34,5.9,36.57,44.68,51,46.33,51.59a78.82,78.82,0,0,0,26.76,4.7c13.83,0,27.06-3.73,37.13-10.93,4-2.87,12.33-8.84,14.12-19C176.93,151.57,172.61,138.17,162.16,134Zm9,27.41c-1.5,8.53-8.66,13.66-12.51,16.41-15.51,11.1-39.14,13.35-60.2,5.73-1.56-.56-38.21-14.2-43.74-48.46C52.58,122,55.37,108.61,63,95.38c13-22.5,35.27-30.21,47.4-32.8,52-11.1,61.27,16.88,61.63,18.07a1,1,0,0,0,.06.16c0,.07,2.27,7.08-1.39,13-2.11,3.4-5.28,4.92-12.23,8.24-3.79,1.81-5.91,2.71-7.61,3.43s-3.06,1.3-5.23,2.43c-6.22,3.25-9.08,8.94-7.66,15.22.84,3.76,3.6,6.8,8,8.82a99.42,99.42,0,0,0,10.34,4.15c1.41.5,2.74,1,4.38,1.62C169.12,141.09,172.68,152.64,171.14,161.41Z"/><path class="cls-3" d="M125.84,87.26a13.55,13.55,0,0,0,.06-10.46h0a13.66,13.66,0,1,0-12.63,18.81,13.68,13.68,0,0,0,12.57-8.35Zm-9,3.64a9.66,9.66,0,0,1-12.54-12.7,9.58,9.58,0,0,1,5.26-5.2,9.66,9.66,0,0,1,12.54,12.7A9.58,9.58,0,0,1,116.89,90.9Z"/><path class="cls-3" d="M83,115A13.67,13.67,0,0,0,95.65,96.15h0A13.66,13.66,0,1,0,83,115ZM79.36,92.35A9.67,9.67,0,0,1,92,97.66h0a9.66,9.66,0,1,1-12.59-5.31Z"/><path class="cls-3" d="M88.81,131.08a13.65,13.65,0,1,0-12.65,18.81,13.67,13.67,0,0,0,12.65-18.81Zm-9,14.09a9.66,9.66,0,1,1,5.3-12.59A9.59,9.59,0,0,1,79.8,145.17Z"/><path class="cls-3" d="M106.43,148.93a13.68,13.68,0,1,0,7.34,7.44A13.59,13.59,0,0,0,106.43,148.93ZM110,165.27a9.66,9.66,0,1,1-8.9-13.41,9.65,9.65,0,0,1,8.9,13.41Z"/><path class="cls-3" d="M140,153.34a13.66,13.66,0,1,0,7.35,7.44A13.57,13.57,0,0,0,140,153.34Zm3.59,16.34a9.65,9.65,0,1,1,0-7.39A9.61,9.61,0,0,1,143.55,169.68Z"/><path class="cls-2" d="M159.82,74.38l-2.33,1-8.24-20.27-1.67.68A9.13,9.13,0,0,0,147,44.51c-2.29-2.5-5.75-3.46-8.78-5A14.45,14.45,0,0,1,131.15,33a15.55,15.55,0,0,1-.58,9.64c-1.13,3.19-2.93,6.3-2.83,9.68a9.14,9.14,0,0,0,7.42,8.46l6.21-2.52-7.88,3.2,8.24,20.27-2.32.94,4.05,9.95,10.2-4.15,10.2-4.15Z"/><path class="cls-2" d="M192.46,174.27c-.42-2.8-1.31-8-3.16-17.34-3.34-16.72-29.92-70.77-29.92-70.77l-5.72,2.32-5.72,2.33s18.69,57.26,28,71.57c5.17,8,8.18,12.32,9.84,14.61a3.72,3.72,0,0,0,6.71-2.72Z"/><path class="cls-3" d="M194.43,175c-.41-2.74-1.29-8-3.17-17.43-3-15.18-24.31-59.4-29.15-69.34l2.51-1a2,2,0,0,0,1.1-2.61l-4.05-10a2,2,0,0,0-2.61-1.1l-.47.19L151.1,55.31a1.77,1.77,0,0,0-.35-.55,11.19,11.19,0,0,0-2.29-10.61c-2-2.15-4.54-3.26-7-4.34-.83-.35-1.61-.69-2.35-1.06A12.53,12.53,0,0,1,132.88,33a2,2,0,0,0-3.68,1.43,13.7,13.7,0,0,1-.52,8.56c-.28.78-.6,1.57-.94,2.4-1,2.5-2.09,5.08-2,8a11.21,11.21,0,0,0,5.76,9.2,2.1,2.1,0,0,0,.14.64l7.49,18.41-.47.19a2,2,0,0,0-1.1,2.61l4,10a2,2,0,0,0,1.86,1.24,2,2,0,0,0,.75-.14l2.5-1c3.47,10.49,19.09,57,27.53,70,5.24,8.08,8.27,12.45,9.89,14.69a5.72,5.72,0,0,0,10.3-4.19Zm-63-128.06c.34-.84.7-1.71,1-2.6a19.09,19.09,0,0,0,1.08-4.3,20.7,20.7,0,0,0,3.79,2.32c.84.42,1.7.79,2.54,1.16,2.18.94,4.25,1.84,5.65,3.37a7.17,7.17,0,0,1,.76,8.26l-8.4,3.41L135,59.71a7.16,7.16,0,0,1-5.23-6.44C129.68,51.2,130.53,49.11,131.44,46.91Zm4.66,16.66L144,60.36l4.14-1.69,6.74,16.56-1.19.48-10.87,4.42ZM142,84.78l.47-.19h0l7.88-3.2,8.35-3.4,2.54,6.24-11.88,4.83-2.19.9h0L144.56,91Zm47.4,92.64h0a1.73,1.73,0,0,1-2-.59c-1.59-2.21-4.58-6.53-9.78-14.54-8.13-12.53-23.93-59.59-27.16-69.33l7.31-3,.66-.26c4.49,9.23,26,54,28.94,68.61,1.86,9.35,2.74,14.53,3.14,17.23A1.73,1.73,0,0,1,189.42,177.42Z"/></svg>