<svg id="Layer_1" data-name="Layer 1" xmlns="http://www.w3.org/2000/svg" viewBox="0 0 242 242"><defs><style>.cls-1{fill:#ccc;}.cls-2{fill:#fff;}.cls-3{fill:#511822;}.cls-4{fill:none;}</style></defs><title>15 ikonica</title><circle class="cls-1" cx="120.65" cy="120.93" r="118.5"/><path class="cls-2" d="M175.54,70.91h-110a9.72,9.72,0,0,0-9.73,9.73v62.85a9.73,9.73,0,0,0,9.73,9.74h37.15v22h-15v11h65.74v-11h-15v-22h37.16a9.74,9.74,0,0,0,9.73-9.74V80.64A9.73,9.73,0,0,0,175.54,70.91Z"/><path class="cls-3" d="M175.64,69.45h-110A11.75,11.75,0,0,0,53.93,81.18V144a11.75,11.75,0,0,0,11.74,11.73h35.15v17.95h-13a2,2,0,0,0-2,2v11a2,2,0,0,0,2,2h65.73a2,2,0,0,0,2-2v-11a2,2,0,0,0-2-2h-13V155.77h35.15A11.75,11.75,0,0,0,187.38,144V81.18A11.75,11.75,0,0,0,175.64,69.45Zm-110,4h110a7.74,7.74,0,0,1,7.74,7.73v52.31H57.93V81.18A7.74,7.74,0,0,1,65.67,73.45ZM151.52,184.7H89.79v-7h61.73Zm-15-11H104.82V155.77h31.67Zm39.15-21.95h-110A7.74,7.74,0,0,1,57.93,144v-6.55H183.38V144A7.74,7.74,0,0,1,175.64,151.77Z"/><path class="cls-4" d="M161.64,110.55H128.87c-4.49,0-8.13,2.12-8.13,6.6v0c0-4.48-3.63-6.6-8.12-6.6H79.67V53h33c4.49,0,8.12,2.12,8.12,6.61v0c0-4.49,3.64-6.61,8.13-6.61h32.77Z"/><path class="cls-2" d="M120.64,116.7v-.1c0-4.49-3.64-6.61-8.13-6.61H79.56V52.44h33c4.49,0,8.13,2.12,8.13,6.61v0c0-4.49,3.63-6.61,8.12-6.61h32.78V110H128.76c-4.49,0-8.12,2.12-8.12,6.61Z"/><path class="cls-3" d="M161.64,51H128.87c-3.55,0-6.37,1.13-8.13,3.09-1.75-2-4.57-3.09-8.12-3.09H79.67a2,2,0,0,0-2,2v57.55a2,2,0,0,0,2,2h33c1.84,0,6.12.45,6.12,4.6v.1a2,2,0,0,0,2,2,2,2,0,0,0,2-2c0-4.15,4.29-4.6,6.13-4.6h32.77a2,2,0,0,0,2-2V53A2,2,0,0,0,161.64,51Zm-49,57.55H81.67V55h31c1.84,0,6.12.45,6.12,4.61V110A12.07,12.07,0,0,0,112.62,108.55ZM122.74,110V59.61c0-4.16,4.29-4.61,6.13-4.61h30.77v53.55H128.87A12.14,12.14,0,0,0,122.74,110Z"/></svg>