<svg id="Layer_1" data-name="Layer 1" xmlns="http://www.w3.org/2000/svg" viewBox="0 0 264 200"><defs><style>.cls-1{fill:#511822;}.cls-2{fill:#fc6;}.cls-3{fill:#fff;}</style></defs><title>individualna</title><path class="cls-1" d="M210.48,62.51H199.37V53.33a2,2,0,0,0-2-2H176.52a64.29,64.29,0,0,0-119.4,0H36.28a2,2,0,0,0-2,2v9.18H23.17a2,2,0,0,0-2,2V179.44a2,2,0,0,0,2,2h79.34v.73a7.11,7.11,0,0,0,7.1,7.1H124a7.11,7.11,0,0,0,7.1-7.1v-.73h79.35a2,2,0,0,0,2-2V64.51A2,2,0,0,0,210.48,62.51Zm-15.11-7.18V164.42H133c-6,0-10.83,1.79-14,4.9V139.48a64.28,64.28,0,0,0,59-84.15ZM97.65,111.25a2,2,0,0,0-2,2v18.44a60,60,0,0,1-12.17-6.24l2.24-19.23A13,13,0,0,1,98.87,94.73h9.38a9.28,9.28,0,0,0,8.5,5.58h.14a9.28,9.28,0,0,0,8.5-5.58h9.39a13,13,0,0,1,13.15,11.52l2.23,19.2a59.76,59.76,0,0,1-11.59,6V113.25a2,2,0,0,0-4,0v19.62a60.16,60.16,0,0,1-34.92.16V113.25A2,2,0,0,0,97.65,111.25Zm40.81-56.72c-20.57-.12-26.82-8.57-26.87-8.64A2,2,0,0,0,110,45a1.94,1.94,0,0,0-1.65.84c-3.66,5.08-9.85,6.76-13.09,7.3a20.12,20.12,0,0,1,20.07-19.38h3.07a20.13,20.13,0,0,1,20.1,20.1ZM95.19,57.21c3.28-.45,10-2,14.84-7.16,3.25,3,11.49,8.41,28.43,8.47v7.07a20.13,20.13,0,0,1-20.1,20.1h-3.07a20.12,20.12,0,0,1-20.1-20.1Zm20.1,32.48h3.07a25.09,25.09,0,0,0,3.8-.3v1.66a5.27,5.27,0,0,1-5.27,5.26h-.14a5.27,5.27,0,0,1-5.27-5.26V89.39A25.11,25.11,0,0,0,115.29,89.69Zm1.53-74.79a60.28,60.28,0,0,1,37.06,107.86l-2-16.94a17,17,0,0,0-17.12-15.09h-8.62V88.38a24.13,24.13,0,0,0,16.3-22.79V53.87a24.13,24.13,0,0,0-24.1-24.1h-3.07a24.13,24.13,0,0,0-24.1,24.1V65.59a24.12,24.12,0,0,0,16.29,22.79v2.35H98.87a17,17,0,0,0-17.13,15l-2,17A60.28,60.28,0,0,1,116.82,14.9ZM55.67,55.33A64.28,64.28,0,0,0,115,139.49v29.83c-3.14-3.12-8-4.9-14-4.9H38.28V55.33ZM208.48,177.44H129.13a2,2,0,0,0-2,2v2.73a3.1,3.1,0,0,1-3.1,3.1H109.61a3.1,3.1,0,0,1-3.1-3.1v-2.73a2,2,0,0,0-2-2H25.17V66.51h9.11v99.91a2,2,0,0,0,2,2H101c3.27,0,14,.79,14,11v.19a2,2,0,1,0,4,0v-.19c0-10.19,10.68-11,14-11h64.41a2,2,0,0,0,2-2V66.51h9.11Z"/><path class="cls-1" d="M116.82,78.46a6.63,6.63,0,0,0,5.56-3,2,2,0,0,0-3.35-2.2,2.64,2.64,0,0,1-4.42,0,2,2,0,0,0-3.35,2.2A6.65,6.65,0,0,0,116.82,78.46Z"/><path class="cls-1" d="M106.31,65.63a2.42,2.42,0,1,0-2.42-2.41A2.41,2.41,0,0,0,106.31,65.63Z"/><path class="cls-1" d="M127.34,65.63a2.42,2.42,0,1,0-2.42-2.41A2.41,2.41,0,0,0,127.34,65.63Z"/><circle class="cls-2" cx="213.37" cy="145.2" r="41.51" transform="translate(-44.47 133.86) rotate(-31.72)"/><path class="cls-3" d="M216.72,131.33v28.73h-5.33V135.81h-6.08v-4.48Z"/></svg>