<svg id="Layer_1" data-name="Layer 1" xmlns="http://www.w3.org/2000/svg" viewBox="0 0 264 200"><defs><style>.cls-1{fill:none;stroke:#511822;stroke-linecap:round;stroke-linejoin:round;stroke-width:4px;}.cls-2{fill:#511822;}.cls-3{fill:#f96;}.cls-4{fill:#fff;}</style></defs><title>grupna</title><path class="cls-1" d="M164.69,100.11h8a11.37,11.37,0,0,1,11.46,10.06l6.27,32.43"/><path class="cls-2" d="M200.63,107.25A82.38,82.38,0,1,0,84.8,182.51a2,2,0,0,0,1.23.56h0a82.36,82.36,0,0,0,64.42,0h0a2,2,0,0,0,1.23-.56A82.5,82.5,0,0,0,200.63,107.25ZM48.84,143.59a2,2,0,0,0,.24-.64l5.83-32.43,0-.15a9.34,9.34,0,0,1,9.47-8.26H71.2a7.51,7.51,0,0,0,6.74,4.23h.11a7.51,7.51,0,0,0,6.74-4.23h6.8a9.69,9.69,0,0,1,3.7.73,22,22,0,0,0-.41,4.25v10.6a22,22,0,0,0,14.74,20.76v1.79H102A15.54,15.54,0,0,0,86.33,154.1L84.43,178A78.89,78.89,0,0,1,48.84,143.59ZM79,93.64H77A12.23,12.23,0,0,1,64.8,81.43V73.89A12.23,12.23,0,0,1,77,61.68h2A12.23,12.23,0,0,1,91.2,73.89v7.54A12.23,12.23,0,0,1,79,93.64Zm-2,4h2a16.71,16.71,0,0,0,2.57-.22v1.42a3.5,3.5,0,0,1-3.5,3.5h-.11a3.5,3.5,0,0,1-3.5-3.5V97.42A16.71,16.71,0,0,0,77,97.64Zm45.88,43.08a4.58,4.58,0,0,1-4.57,4.57h-.13a4.58,4.58,0,0,1-4.57-4.57v-1.28a21.71,21.71,0,0,0,3.25.24h2.77a21.81,21.81,0,0,0,3.25-.24Zm-3.25-5h-2.77a18,18,0,0,1-18-18v-7.41c3-.44,8.93-1.85,13.24-6.38,3,2.75,10.51,7.49,25.51,7.59v6.2A18,18,0,0,1,119.64,135.68Zm18-28.18c-18.3-.11-23.91-7.67-23.95-7.73a2,2,0,0,0-1.63-.88,2,2,0,0,0-1.65.84c-3.19,4.43-8.53,6-11.48,6.48a18,18,0,0,1,18-17.11h2.77a18,18,0,0,1,18,18Zm-34.72,76.61V160.8a2,2,0,0,0-4,0v22.41a78.59,78.59,0,0,1-10.61-3.54l2-25.21A11.55,11.55,0,0,1,102,144.24h8.36a8.58,8.58,0,0,0,7.81,5h.13a8.55,8.55,0,0,0,7.8-5h8.37a11.54,11.54,0,0,1,11.7,10.18l2,25.25a77,77,0,0,1-10.08,3.4V160.8a2,2,0,0,0-4,0V184a78.6,78.6,0,0,1-31.21.09ZM152.08,178l-1.91-23.89a15.53,15.53,0,0,0-15.68-13.82h-7.6v-1.79a22,22,0,0,0,14.74-20.76v-10.6a21.85,21.85,0,0,0-.37-4,9.89,9.89,0,0,1,4.29-1h6.8a7.48,7.48,0,0,0,6.73,4.23h.11a7.51,7.51,0,0,0,7.5-7.5V96.48a1.64,1.64,0,0,0,0-.23,16.22,16.22,0,0,0,9.67-14.82V73.89a16.23,16.23,0,0,0-16.22-16.21h-2a16.23,16.23,0,0,0-16.21,16.21v7.54a16.22,16.22,0,0,0,9.67,14.82,1.6,1.6,0,0,0,0,.23v1.63h-6a14,14,0,0,0-5.38,1.11A22,22,0,0,0,119.64,85.1h-2.77A22,22,0,0,0,96.43,99a13.74,13.74,0,0,0-4.84-.89h-6V96.48a1.64,1.64,0,0,0,0-.23A16.24,16.24,0,0,0,95.2,81.43V73.89A16.23,16.23,0,0,0,79,57.68H77A16.23,16.23,0,0,0,60.8,73.89v7.54a16.23,16.23,0,0,0,9.66,14.82c0,.07,0,.15,0,.23v1.63h-6A13.34,13.34,0,0,0,51,109.89l-5,27.68A78.38,78.38,0,1,1,152.08,178Zm8-84.31h-2a12.23,12.23,0,0,1-12.21-12.21V73.89a12.23,12.23,0,0,1,12.21-12.21h2a12.23,12.23,0,0,1,12.22,12.21v7.54A12.23,12.23,0,0,1,160.12,93.64Zm-2,4h2a16.71,16.71,0,0,0,2.57-.22v1.42a3.5,3.5,0,0,1-3.5,3.5h-.11a3.5,3.5,0,0,1-3.5-3.5V97.42A16.81,16.81,0,0,0,158.15,97.64Z"/><path class="cls-2" d="M122.86,124a2,2,0,0,0-2.77.58,2.19,2.19,0,0,1-1.84,1,2.21,2.21,0,0,1-1.84-1,2,2,0,1,0-3.34,2.19,6.19,6.19,0,0,0,10.37,0A2,2,0,0,0,122.86,124Z"/><path class="cls-2" d="M108.74,113.36a2.19,2.19,0,1,0,2.19,2.19A2.19,2.19,0,0,0,108.74,113.36Z"/><path class="cls-2" d="M127.76,113.36a2.19,2.19,0,1,0,2.19,2.19A2.19,2.19,0,0,0,127.76,113.36Z"/><path class="cls-2" d="M119,41.51h-1.47a12.62,12.62,0,0,0-12.61,12.61v5.63a12.62,12.62,0,0,0,12.61,12.61H119A12.63,12.63,0,0,0,131.6,59.75V54.12A12.63,12.63,0,0,0,119,41.51Zm8.61,18.24A8.62,8.62,0,0,1,119,68.36h-1.47a8.62,8.62,0,0,1-8.61-8.61V54.12a8.62,8.62,0,0,1,8.61-8.61H119a8.62,8.62,0,0,1,8.61,8.61Z"/><circle class="cls-3" cx="213.02" cy="144.94" r="41.51" transform="translate(-44.39 133.64) rotate(-31.72)"/><path class="cls-4" d="M245.12,145h-5.31v-5.32a1.33,1.33,0,0,0-2.65,0V145h-5.31a1.33,1.33,0,1,0,0,2.65h5.31v5.31a1.33,1.33,0,0,0,2.65,0V147.6h5.31a1.33,1.33,0,0,0,0-2.65"/><path class="cls-4" d="M197.72,130.25V159h-5.33V134.73h-6.08v-4.48Z"/><path class="cls-4" d="M203.43,144.62c0-9.44,5.17-14.78,12-14.78s12,5.34,12,14.78-5.17,14.77-12,14.77S203.43,154.06,203.43,144.62Zm18.63,0c0-6.94-2.71-10.14-6.65-10.14s-6.61,3.2-6.61,10.14,2.71,10.14,6.61,10.14S222.06,151.55,222.06,144.62Z"/></svg>