<svg id="Layer_1" data-name="Layer 1" xmlns="http://www.w3.org/2000/svg" viewBox="0 0 264 200"><defs><style>.cls-1{fill:#511822;}.cls-2{fill:#f66;}.cls-3{fill:#fff;}</style></defs><title>porodicna</title><path class="cls-1" d="M119,25.33a82.16,82.16,0,1,0,82.15,82.16A82.26,82.26,0,0,0,119,25.33Zm0,4a78.1,78.1,0,0,1,69.52,113.79l-1.65-20.61a15.11,15.11,0,0,0-7.18-11.39,25.9,25.9,0,0,0,7-4.65,2,2,0,0,0,.06-2.8c-5.86-6.22-7.79-16-8.44-21.82V75.68a22,22,0,0,0-21.93-21.94H153.6a22,22,0,0,0-21.93,21.94v1.39c0,.17,0,17.36-8.76,26.66a2,2,0,0,0,.06,2.8,25.79,25.79,0,0,0,7.18,4.71,15.2,15.2,0,0,0-7,11.31l-.12,1.53a18.46,18.46,0,0,0-2.71-.22H118a17.41,17.41,0,0,0-2.72.23l-.13-1.58a15.48,15.48,0,0,0-15.64-13.78H92V107a22,22,0,0,0,14.7-20.7V75.68A22,22,0,0,0,84.73,53.74H82A22,22,0,0,0,60,75.68V86.25A22,22,0,0,0,74.73,107v1.78H67.15A15.51,15.51,0,0,0,51.5,122.55l-1.7,21.31A78.11,78.11,0,0,1,119,29.33Zm1.36,136.18H118a14.48,14.48,0,0,1-14.46-14.46v-5.8a19.5,19.5,0,0,0,10.57-5.07c2.69,2.31,8.83,6,20.63,6.11v4.76A14.47,14.47,0,0,1,120.31,165.51ZM68.06,147.45V129.23a2,2,0,0,0-4,0v18.22H53.53l2-24.54a11.51,11.51,0,0,1,11.66-10.18h8.34a8.58,8.58,0,0,0,7.79,5h.13a8.58,8.58,0,0,0,7.79-5h8.34a11.5,11.5,0,0,1,11.66,10.14l.18,2.25a18.48,18.48,0,0,0-11.81,17.2v5.13Zm34.6-71.38c-18.26-.13-23.83-7.64-23.87-7.7a2,2,0,0,0-1.63-.88,2.06,2.06,0,0,0-1.65.84c-3.17,4.41-8.49,5.94-11.44,6.46A18,18,0,0,1,82,57.74h2.77a18,18,0,0,1,17.93,17.94ZM64,78.86c3-.44,8.9-1.85,13.2-6.36,3,2.74,10.48,7.47,25.43,7.57v6.18a18,18,0,0,1-17.93,17.93H82A18,18,0,0,1,64,86.25ZM82,108.18h2.77a21.45,21.45,0,0,0,3.23-.24v1.27a4.56,4.56,0,0,1-4.55,4.56h-.13a4.56,4.56,0,0,1-4.55-4.56v-1.27A21.45,21.45,0,0,0,82,108.18Zm52.81,34.11c-14.58-.22-19-6.16-19.07-6.2a2,2,0,0,0-1.63-.87,2.05,2.05,0,0,0-1.65.83c-2.4,3.34-6.36,4.63-8.79,5.12A14.47,14.47,0,0,1,118,127.86h2.28A14.47,14.47,0,0,1,134.77,142.29Zm4,0A18.46,18.46,0,0,0,127,125.12l.18-2.21a11.5,11.5,0,0,1,11.66-10.18h8.34a8.58,8.58,0,0,0,7.79,5h.13a8.58,8.58,0,0,0,7.79-5h8.34a11.51,11.51,0,0,1,11.66,10.14l2,24.58h-46Zm-1.17-33.55c-4.31.23-8.34-2.32-10.4-3.89A35.4,35.4,0,0,0,133,93.69,22.05,22.05,0,0,0,146.37,107v1.78h-7.58c-.37,0-.74,0-1.11,0Zm34.45-.06a2.09,2.09,0,0,0-.43,0l-.44,0H163.6V107a22.06,22.06,0,0,0,13.24-12.83,34.89,34.89,0,0,0,5.61,10.7C180.38,106.39,176.39,108.94,172.05,108.71ZM135.67,78.86c3-.44,8.91-1.85,13.2-6.36,3,2.73,10.42,7.4,25.24,7.56,0,.65.11,1.38.19,2.18v4a18,18,0,0,1-17.93,17.93H153.6a18,18,0,0,1-17.93-17.93Zm14.7,29.08a21.45,21.45,0,0,0,3.23.24h2.77a21.45,21.45,0,0,0,3.23-.24v1.27a4.56,4.56,0,0,1-4.55,4.56h-.13a4.56,4.56,0,0,1-4.55-4.56Zm23.93-32-.08.15c-18.21-.15-23.75-7.64-23.8-7.7a2,2,0,0,0-1.62-.88,2.13,2.13,0,0,0-1.65.84c-3.17,4.41-8.5,5.94-11.44,6.46A18,18,0,0,1,153.6,57.74h2.77A18,18,0,0,1,174.3,75.68ZM54.37,151.45H99.59a18.36,18.36,0,0,0,5.1,12.33h-.18a14.2,14.2,0,0,0-14.33,12.57l-.58,3.55A78.55,78.55,0,0,1,54.37,151.45Zm39,29.88c0-.07,0-.14,0-.21l.69-4.19s0-.08,0-.12a10.22,10.22,0,0,1,10.36-9h4.86a2.08,2.08,0,0,0,.66-.12,18.33,18.33,0,0,0,8,1.85h2.28a18.34,18.34,0,0,0,7.8-1.75l.17,0h5.5a10.2,10.2,0,0,1,10.35,9s0,.08,0,.12l.69,4.28a77.88,77.88,0,0,1-51.44.12Zm55.25-1.57-.54-3.41a14.2,14.2,0,0,0-14.33-12.57h-.13a18.36,18.36,0,0,0,5.1-12.33h44.77A78.64,78.64,0,0,1,148.65,179.76Z"/><path class="cls-1" d="M83.35,98.06a6.16,6.16,0,0,0,5.17-2.81,2,2,0,0,0-3.34-2.19,2.18,2.18,0,0,1-3.67,0,2,2,0,0,0-3.34,2.2A6.18,6.18,0,0,0,83.35,98.06Z"/><path class="cls-1" d="M73.86,86.29a2.18,2.18,0,1,0-2.18-2.18A2.18,2.18,0,0,0,73.86,86.29Z"/><path class="cls-1" d="M92.83,86.29a2.18,2.18,0,1,0-2.18-2.18A2.19,2.19,0,0,0,92.83,86.29Z"/><path class="cls-1" d="M155,98.06a6.16,6.16,0,0,0,5.17-2.81,2,2,0,0,0-3.34-2.19,2.18,2.18,0,0,1-3.67,0,2,2,0,1,0-3.34,2.2A6.18,6.18,0,0,0,155,98.06Z"/><path class="cls-1" d="M145.5,86.29a2.18,2.18,0,1,0-2.18-2.18A2.19,2.19,0,0,0,145.5,86.29Z"/><circle class="cls-1" cx="164.47" cy="84.11" r="2.18"/><circle class="cls-2" cx="213.66" cy="144.94" r="41.51" transform="matrix(0.85, -0.53, 0.53, 0.85, -44.29, 133.97)"/><path class="cls-3" d="M232.4,140.34a9.81,9.81,0,0,0-18.75-4,9.81,9.81,0,0,0-18.18,7.32,10.05,10.05,0,0,0,1.82,3.14,10.19,10.19,0,0,0,1.1,1.08l15,14.85a.47.47,0,0,0,.33.14.48.48,0,0,0,.34-.14l15.5-15.44h0a9.82,9.82,0,0,0,2.28-3.6A9.66,9.66,0,0,0,232.4,140.34Z"/></svg>