<svg id="Layer_1" data-name="Layer 1" xmlns="http://www.w3.org/2000/svg" viewBox="0 0 264 200"><defs><style>.cls-1{fill:#511822;}.cls-2{fill:#6cf;}.cls-3{fill:#fff;}</style></defs><title>65plus</title><path class="cls-1" d="M83.59,125.63c12.76,0,19.79-6.24,19.79-17.56,0-5.92-2.5-15.84-19.22-15.84-14.9,0-20.22,8.18-20.22,15.84C63.94,119.06,71.29,125.63,83.59,125.63Zm.57-29.4c10.1,0,15.22,4,15.22,11.84,0,9.12-5.16,13.56-15.79,13.56-10.09,0-15.65-4.82-15.65-13.56C67.94,100.66,74,96.23,84.16,96.23Z"/><path class="cls-1" d="M213.13,108.35C213.13,97,207.8,84.18,194,78.1l10.89-11.91a2,2,0,0,0,.52-1.35v-21a2,2,0,0,0-2-2H141.55a1.94,1.94,0,0,0-1.32.5L117.15,62.66V51.3h0V48.71a2,2,0,0,0-1.07-1.77c-2.09-1.1-13.38-6.57-30.19-6.57l-.94,0c-.56,0-1.1,0-1.67,0-14.77,0-26.43,4.49-34.61,13.31L21.76,81A38.12,38.12,0,0,0,18.9,84c-8,9.55-12,23.4-12,41.15S11,156.51,19.24,165.41c7.76,8.4,19,12.65,33.39,12.65,14.7,0,26.56-4.43,34.29-12.81l15.19-14.85v15.13a4.63,4.63,0,0,0,2.35,4c9.92,5.57,22.6,8.51,36.68,8.51s26.38-4.68,34.19-13.14l26.94-27.36a2,2,0,0,0,0-2.83,1.85,1.85,0,0,0-.58-.39C209,128.08,213.13,119.1,213.13,108.35ZM189.92,76.6A50.16,50.16,0,0,0,175,74.51a51.18,51.18,0,0,0-16.45,2.74l1.3-11h39.53Zm-73.41-8L139,48.71l-4.67,42.84-10.39,9.65A30.91,30.91,0,0,0,106,78.46Zm-14.6,8.3a50.78,50.78,0,0,0-15.45-2.2c-10.5,0-16.9,2.43-20.49,4.57,1.46-11.6,7.45-16.42,19.92-16.42a64.41,64.41,0,0,1,25.22,5.35ZM85.17,44.38a96.17,96.17,0,0,1,16.45,1.72A56.86,56.86,0,0,1,113.15,50V64.68a68.38,68.38,0,0,0-27.26-5.87c-16.16,0-23.63,7.53-24.24,24.4a2,2,0,0,0,.56,1.46,2,2,0,0,0,1.44.61h.29a2,2,0,0,0,1.45-.62c2.62-2.77,9.72-6,21.07-6,15.76,0,34.15,7.7,34.15,29.41,0,20-13.84,32-37,32-26.36,0-39.18-15.14-39.18-46.27C44.41,61.75,58.51,44.69,85.17,44.38ZM22,86.61a36.57,36.57,0,0,1,2.62-2.79L47.75,60.29c-3.66,6.45-6,14.39-6.88,23.75a2.16,2.16,0,0,0-.51.34L11.9,110.9C13.47,100.87,16.84,92.73,22,86.61ZM10.85,125.19c0-2.83.11-5.54.33-8.15L40.5,89.72c0,1.34-.09,2.69-.09,4.08,0,17.4,4,30.31,11.81,38.69l-31.1,29C14.31,153.32,10.85,141.13,10.85,125.19Zm94,18.62a2,2,0,0,0-2.17.41L84.09,162.43l-.08.07c-7,7.56-17.8,11.56-31.38,11.56-12.21,0-21.87-3.26-28.76-9.68l31.26-29.13q10.51,8.79,28.46,8.82c25.3,0,41-13.8,41-36q0-1-.06-2l12-11.19,15,7.19a2,2,0,0,0,1.92-.1,37.17,37.17,0,0,1,18.6-5c10,0,15.79,4.16,15.79,11.4,0,8.31-5.91,13.28-15.79,13.28-16.94,0-30.45-8.14-31.94-9.07a2.07,2.07,0,0,0-1.06-.3h-1.43a2,2,0,0,0-2,2v19.58h0l-29.56,28.78v-17A2,2,0,0,0,104.88,143.81Zm67.55,18.35c-7.08,7.67-18.19,11.9-31.29,11.9-12.82,0-24.36-2.54-33.49-7.34l30.73-29.93c9.27,4.76,20.88,7.28,33.73,7.28,9.15,0,17.19-2,23.66-5.62Zm-.32-22.09c-12.47,0-23.65-2.46-32.43-7.11v-16a69.37,69.37,0,0,0,32.43,8.71c12,0,19.79-6.78,19.79-17.28C191.9,97,181.67,93,172.11,93A41.39,41.39,0,0,0,152.35,98l-14-6.71,5-45.5h57.51a.6.6,0,0,1,.53.59V62.27H158.05a2,2,0,0,0-2,1.77L154.2,79.88a2,2,0,0,0,1.08,2l.29.15a2,2,0,0,0,1.77,0A43.55,43.55,0,0,1,175,78.51c15.75,0,34.15,7.82,34.15,29.84C209.13,127.32,194.25,140.07,172.11,140.07Z"/><circle class="cls-2" cx="217.29" cy="145.27" r="41.51" transform="translate(-43.92 135.93) rotate(-31.72)"/><path class="cls-3" d="M228.72,143h-9.15v-9.15a2.28,2.28,0,0,0-4.56,0V143h-9.15a2.28,2.28,0,0,0,0,4.56H215v9.15a2.28,2.28,0,0,0,4.56,0v-9.15h9.15a2.28,2.28,0,0,0,0-4.56Z"/></svg>