<svg id="Layer_1" data-name="Layer 1" xmlns="http://www.w3.org/2000/svg" viewBox="0 0 264 200"><defs><style>.cls-1{fill:#511822;}.cls-2{fill:#69c;}.cls-3{fill:#fff;}</style></defs><title>besplatna</title><path class="cls-1" d="M173.85,114.84c-4.56-2.63-15.23-6.58-26.07-9.1,10.67-2.54,21.09-6.42,25.53-9a22.17,22.17,0,0,0-22.17-38.4C147,60.77,139.37,67,132.31,74.2c2.67-9.64,4.23-19.22,4.23-24a22.17,22.17,0,1,0-44.34,0c0,5,1.74,15.43,4.7,25.61C89.55,68.18,81.4,61.47,77.07,59a22.17,22.17,0,0,0-22.18,38.4c4.16,2.4,13.33,5.87,23.09,8.37-10,2.53-19.45,6.09-23.63,8.5a22.17,22.17,0,0,0,22.18,38.4c4.57-2.64,13.3-9.9,20.9-18C94.18,145.33,92.2,156.74,92.2,162a22.17,22.17,0,1,0,44.34,0c0-5-1.77-15.45-4.72-25.63,7.33,7.65,15.47,14.36,19.86,16.89a21.92,21.92,0,0,0,11,3,22.38,22.38,0,0,0,5.78-.76,22.18,22.18,0,0,0,5.35-40.62Zm-20.71-53A18.17,18.17,0,0,1,171.31,93.3c-5.48,3.16-21.56,8.71-34.49,10.45l-.38,0A22.21,22.21,0,0,0,127.59,88c.64-1.49,1.25-3,1.83-4.66C137.35,74,148.12,64.72,153.14,61.83Zm-38.77,62.08a18.17,18.17,0,1,1,18.17-18.17A18.19,18.19,0,0,1,114.37,123.91ZM96.2,50.23a18.17,18.17,0,1,1,36.34,0c0,5.72-2.57,19.54-6.64,31q-1.66,2-3.13,4a22,22,0,0,0-8.4-1.66,22.2,22.2,0,0,0-9.15,2c-.49-.65-1-1.31-1.52-2C99.13,71.7,96.2,56.33,96.2,50.23ZM56.89,93.9A18.17,18.17,0,1,1,75.07,62.43c5.26,3,17.11,13.27,25.12,23.17.31.8.64,1.59,1,2.35A22.21,22.21,0,0,0,92.37,103c-1.6.18-3.26.41-5,.7C75.34,101.54,61.91,96.8,56.89,93.9Zm17.64,55.28A18.18,18.18,0,0,1,56.35,117.7c5.15-3,18.83-7.78,31-9.92,1.71.3,3.38.55,5,.73a22.18,22.18,0,0,0,9,15.19l-.06.16C93.39,134.39,80.21,145.89,74.53,149.18Zm58,12.8a18.17,18.17,0,1,1-36.34,0c0-6.68,3.41-24,8.62-36.11l.07-.09a22.16,22.16,0,0,0,18.23.33c.61.84,1.25,1.68,1.93,2.53C129.62,140.52,132.54,155.79,132.54,162Zm46-18.85a18.16,18.16,0,0,1-24.82,6.65c-5.34-3.08-17.13-13.27-25.13-23.17-.39-1-.79-2-1.2-2.91a22.15,22.15,0,0,0,9.09-15.87l.39,0c13,1.66,29.4,7.27,35,10.52A18.19,18.19,0,0,1,178.5,143.13Z"/><circle class="cls-2" cx="201.07" cy="144.75" r="41.51" transform="translate(-46.07 127.33) rotate(-31.72)"/><path class="cls-3" d="M219.69,131.72h-7.1a6.38,6.38,0,0,0-9.47-8.53h0a11.33,11.33,0,0,0-2.05,3.82,11.51,11.51,0,0,0-2-3.82h0a6.41,6.41,0,0,0-9,0,6.39,6.39,0,0,0-.45,8.53h-7.1a2,2,0,0,0-2,2v10.06a2,2,0,0,0,2,2h1.11v17.77a2,2,0,0,0,2,2h31a2,2,0,0,0,2-2V145.78h1.11a2,2,0,0,0,2-2V133.72A2,2,0,0,0,219.69,131.72Zm-2,10.06H203.07v-6l.35-.08h14.27ZM205.94,126a2.38,2.38,0,1,1,3.37,3.37c-.5.5-2.75,1.34-5.44,2.08C204.61,128.78,205.44,126.52,205.94,126Zm-13.11,0a2.37,2.37,0,0,1,1.68-.69,2.41,2.41,0,0,1,1.69.69c.5.5,1.34,2.76,2.07,5.45-2.69-.74-4.94-1.58-5.44-2.08a2.38,2.38,0,0,1,0-3.37Zm-8.38,9.7h14.27l.35.08v6H184.45Zm3.11,10.06h11.51v15.77H187.56Zm27,15.77H203.07V145.78h11.51Z"/></svg>